<?xml version="1.0" encoding="utf-8"?>
<!-- Generator: Adobe Illustrator 16.0.0, SVG Export Plug-In . SVG Version: 6.00 Build 0)  -->
<!DOCTYPE svg PUBLIC "-//W3C//DTD SVG 1.0//EN" "http://www.w3.org/TR/2001/REC-SVG-20010904/DTD/svg10.dtd">
<svg version="1.0" id="Layer_1" xmlns="http://www.w3.org/2000/svg" xmlns:xlink="http://www.w3.org/1999/xlink" x="0px" y="0px"
	 width="32.332px" height="32.332px" viewBox="0 0 32.332 32.332" enable-background="new 0 0 32.332 32.332" xml:space="preserve">
<symbol  id="New_Symbol_3" viewBox="-57.5 -30 115 60">
	<g>
		<path fill="#FFFFFF" d="M27.5,30C15.196,30,4.629,22.59,0,11.992C-4.629,22.59-15.196,30-27.5,30c-16.568,0-30-13.432-30-30
			s13.432-30,30-30h55c16.568,0,30,13.432,30,30S44.068,30,27.5,30z M-30.606,0c0,1.716,1.391,3.107,3.106,3.107
			S-24.394,1.716-24.394,0c0-1.717-1.391-3.107-3.106-3.107S-30.606-1.717-30.606,0z M-10.938-25.012
			C-6.146-21.833-2.324-17.315,0-11.992c2.324-5.323,6.146-9.841,10.938-13.02H-10.938z M27.5-25.012
			c-13.729,0-24.871,11.062-25.006,24.761C2.494-0.167,2.5-0.084,2.5,0S2.494,0.167,2.494,0.251
			C2.629,13.947,13.771,25.012,27.5,25.012c13.813,0,25.013-11.199,25.013-25.012C52.513-13.814,41.313-25.012,27.5-25.012z"/>
	</g>
</symbol>
<g>
	<g>
		<path fill="#FFFFFF" d="M16.166,0C7.237,0,0,7.238,0,16.166s7.237,16.166,16.166,16.166s16.166-7.238,16.166-16.166
			S25.095,0,16.166,0z M12.069,22.639V9.398l11.467,6.621L12.069,22.639z"/>
	</g>
</g>
</svg>
