<?xml version="1.0" encoding="utf-8"?>
<!-- Generator: Adobe Illustrator 16.0.0, SVG Export Plug-In . SVG Version: 6.00 Build 0)  -->
<!DOCTYPE svg PUBLIC "-//W3C//DTD SVG 1.0//EN" "http://www.w3.org/TR/2001/REC-SVG-20010904/DTD/svg10.dtd">
<svg version="1.0" id="Layer_1" xmlns="http://www.w3.org/2000/svg" xmlns:xlink="http://www.w3.org/1999/xlink" x="0px" y="0px"
	 width="98.326px" height="51.301px" viewBox="0 0 98.326 51.301" enable-background="new 0 0 98.326 51.301" xml:space="preserve">
<symbol  id="New_Symbol_3">
</symbol>
<g>
	<path fill="#FFFFFF" d="M72.538,0.15c-10.458,0-19.44,6.299-23.375,15.307C45.228,6.449,36.246,0.15,25.787,0.15
		c-14.083,0-25.5,11.417-25.5,25.5c0,14.083,11.417,25.5,25.5,25.5h46.75c14.084,0,25.501-11.417,25.501-25.5
		C98.039,11.567,86.622,0.15,72.538,0.15z M23.146,25.651c0-1.458,1.182-2.642,2.641-2.642s2.641,1.183,2.641,2.642
		c0,1.459-1.182,2.642-2.641,2.642S23.146,27.11,23.146,25.651z M39.866,46.912c4.072-2.702,7.321-6.542,9.297-11.067
		c1.976,4.525,5.225,8.365,9.297,11.067H39.866z M72.538,46.912c-11.67,0-21.141-9.403-21.255-21.047
		c0-0.071,0.005-0.142,0.005-0.213s-0.005-0.142-0.005-0.213c0.114-11.642,9.585-21.047,21.255-21.047
		c11.742,0,21.262,9.52,21.262,21.26C93.799,37.393,84.28,46.912,72.538,46.912z"/>
</g>
</svg>
