<?xml version="1.0" encoding="utf-8"?>
<!-- Generator: Adobe Illustrator 16.0.0, SVG Export Plug-In . SVG Version: 6.00 Build 0)  -->
<!DOCTYPE svg PUBLIC "-//W3C//DTD SVG 1.0//EN" "http://www.w3.org/TR/2001/REC-SVG-20010904/DTD/svg10.dtd">
<svg version="1.0" id="Layer_1" xmlns="http://www.w3.org/2000/svg" xmlns:xlink="http://www.w3.org/1999/xlink" x="0px" y="0px"
	 width="79.579px" height="18.144px" viewBox="0 0 79.579 18.144" enable-background="new 0 0 79.579 18.144" xml:space="preserve">
<symbol  id="New_Symbol_3" viewBox="-57.5 -30 115 60">
	<g>
		<path fill="#FFFFFF" d="M27.5,30C15.196,30,4.629,22.59,0,11.992C-4.629,22.59-15.196,30-27.5,30c-16.568,0-30-13.432-30-30
			s13.432-30,30-30h55c16.568,0,30,13.432,30,30S44.068,30,27.5,30z M-30.606,0c0,1.716,1.391,3.107,3.106,3.107
			S-24.394,1.716-24.394,0c0-1.717-1.391-3.107-3.106-3.107S-30.606-1.717-30.606,0z M-10.938-25.012
			C-6.146-21.833-2.324-17.315,0-11.992c2.324-5.323,6.146-9.841,10.938-13.02H-10.938z M27.5-25.012
			c-13.729,0-24.871,11.062-25.006,24.761C2.494-0.167,2.5-0.084,2.5,0S2.494,0.167,2.494,0.251
			C2.629,13.947,13.771,25.012,27.5,25.012c13.813,0,25.013-11.199,25.013-25.012C52.513-13.814,41.313-25.012,27.5-25.012z"/>
	</g>
</symbol>
<g>
	<polygon fill="#F1F1F2" points="3.188,10.584 3.188,3.313 8.853,6.988 	"/>
	<polygon fill="#F1F1F2" points="5.291,9.228 3.186,10.551 3.186,14.829 5.285,14.829 5.285,9.252 5.291,9.248 	"/>
	<path fill="#414142" d="M8.842,6.996l0.002-0.002L8.842,6.996z"/>
	<path fill="#414142" d="M8.844,6.994L8.85,6.991L8.844,6.994z"/>
	<polygon fill="#F1F1F2" points="8.85,6.991 8.847,9.487 12.455,7.229 12.52,14.829 14.696,14.829 14.696,3.317 	"/>
	<polygon fill="#EF5325" points="3.186,10.557 5.291,9.228 3.186,8.163 	"/>
	<polygon fill="#3F3F3D" points="8.85,6.991 5.285,9.228 5.285,11.717 8.847,9.487 	"/>
	<polygon fill="#F1F1F2" points="25.374,9.744 27.858,5.661 28.784,5.661 28.784,12.481 27.469,12.481 27.469,8.682 25.832,11.361 
		24.917,11.361 23.279,8.682 23.279,12.481 21.964,12.481 21.964,5.661 22.89,5.661 	"/>
	<g>
		<path fill="#F1F1F2" d="M34.387,5.564c2.104,0,3.557,1.568,3.557,3.507s-1.452,3.508-3.557,3.508s-3.556-1.569-3.556-3.508
			S32.282,5.564,34.387,5.564 M34.387,11.41c1.286,0,2.241-1.053,2.241-2.339s-0.955-2.338-2.241-2.338s-2.241,1.052-2.241,2.338
			S33.101,11.41,34.387,11.41"/>
		<path fill="#F1F1F2" d="M42.133,5.661c1.081,0,1.793,0.233,2.348,0.644c0.838,0.623,1.354,1.637,1.354,2.767
			s-0.517,2.144-1.354,2.767c-0.555,0.41-1.267,0.644-2.348,0.644h-2.144v-6.82H42.133z M44.022,7.591
			c-0.38-0.478-0.935-0.761-1.744-0.761h-0.974v4.482h0.974c0.81,0,1.364-0.283,1.744-0.76c0.312-0.391,0.497-0.916,0.497-1.481
			C44.52,8.507,44.335,7.98,44.022,7.591"/>
		<path fill="#F1F1F2" d="M48.758,11.877c-0.564-0.506-0.877-1.228-0.877-2.27V5.661h1.315v4.044c0,0.623,0.166,1.004,0.448,1.267
			c0.293,0.282,0.701,0.438,1.159,0.438s0.868-0.156,1.16-0.438c0.282-0.263,0.448-0.644,0.448-1.267V5.661h1.314v3.946
			c0,1.042-0.312,1.764-0.877,2.27c-0.525,0.468-1.275,0.702-2.046,0.702C50.034,12.579,49.284,12.345,48.758,11.877"/>
		<polygon fill="#F1F1F2" points="56.212,5.661 57.527,5.661 57.527,11.312 60.401,11.312 60.401,12.481 56.212,12.481 		"/>
		<path fill="#F1F1F2" d="M62.935,11.877c-0.565-0.506-0.877-1.228-0.877-2.27V5.661h1.315v4.044c0,0.623,0.166,1.004,0.448,1.267
			c0.292,0.282,0.701,0.438,1.159,0.438s0.867-0.156,1.159-0.438c0.283-0.263,0.448-0.644,0.448-1.267V5.661h1.315v3.946
			c0,1.042-0.312,1.764-0.877,2.27c-0.526,0.468-1.276,0.702-2.046,0.702S63.461,12.345,62.935,11.877"/>
		<path fill="#F1F1F2" d="M70.563,10.659c0.39,0.429,0.984,0.751,1.607,0.751c0.585,0,0.994-0.361,0.994-0.857
			c0-0.877-1.267-0.984-2.183-1.521c-0.536-0.312-0.965-0.779-0.965-1.549c0-1.218,1.121-1.919,2.251-1.919
			c0.691,0,1.335,0.165,1.978,0.643l-0.682,0.975c-0.273-0.254-0.73-0.448-1.179-0.448c-0.497,0-1.053,0.214-1.053,0.74
			c0,1.101,3.147,0.76,3.147,3.06c0,1.208-1.082,2.046-2.31,2.046c-0.916,0-1.764-0.38-2.465-1.023L70.563,10.659z"/>
		<path fill="#F1F1F2" d="M79.526,0h-1.32H1.373H0l0,0v1.373l0,0v16.771h0.687h0.687h76.833h1.32h0.053V0H79.526z M1.373,1.373
			h15.492v15.397H1.373V1.373z M18.238,16.771V1.373h59.968v15.397H18.238z"/>
	</g>
</g>
</svg>
