<?xml version="1.0" encoding="utf-8"?>
<!-- Generator: Adobe Illustrator 16.0.0, SVG Export Plug-In . SVG Version: 6.00 Build 0)  -->
<!DOCTYPE svg PUBLIC "-//W3C//DTD SVG 1.0//EN" "http://www.w3.org/TR/2001/REC-SVG-20010904/DTD/svg10.dtd">
<svg version="1.0" id="Layer_1" xmlns="http://www.w3.org/2000/svg" xmlns:xlink="http://www.w3.org/1999/xlink" x="0px" y="0px"
	 width="63.334px" height="36px" viewBox="0 0 63.334 36" enable-background="new 0 0 63.334 36" xml:space="preserve">
<symbol  id="New_Symbol_3" viewBox="-57.5 -30 115 60">
	<g>
		<path fill="#FFFFFF" d="M27.5,30C15.196,30,4.629,22.59,0,11.992C-4.629,22.59-15.196,30-27.5,30c-16.568,0-30-13.432-30-30
			s13.432-30,30-30h55c16.568,0,30,13.432,30,30S44.068,30,27.5,30z M-30.606,0c0,1.716,1.391,3.107,3.106,3.107
			S-24.394,1.716-24.394,0c0-1.717-1.391-3.107-3.106-3.107S-30.606-1.717-30.606,0z M-10.938-25.012
			C-6.146-21.833-2.324-17.315,0-11.992c2.324-5.323,6.146-9.841,10.938-13.02H-10.938z M27.5-25.012
			c-13.729,0-24.871,11.062-25.006,24.761C2.494-0.167,2.5-0.084,2.5,0S2.494,0.167,2.494,0.251
			C2.629,13.947,13.771,25.012,27.5,25.012c13.813,0,25.013-11.199,25.013-25.012C52.513-13.814,41.313-25.012,27.5-25.012z"/>
	</g>
</symbol>
<g>
	<g id="Ebene_x0020_1_8_">
		<g id="_153574520_8_">
			<path id="_153577136_8_" fill="#FFFFFF" d="M8.754,14.855c0.957,0,2.062-0.238,3.318-0.717v3.08
				c-0.279,0.099-0.678,0.209-1.196,0.327c0.159,0.459,0.24,0.888,0.24,1.287c0,1.275-0.384,2.387-1.15,3.333
				c-0.768,0.946-1.761,1.51-2.977,1.688c-0.798,0.12-1.194,0.549-1.194,1.286c0,0.259,0.13,0.519,0.389,0.777
				c0.338,0.379,0.836,0.618,1.493,0.718c2.851,0.438,4.276,1.624,4.276,3.559c0,3.088-1.845,4.633-5.531,4.633
				c-1.515,0-2.761-0.269-3.737-0.807c-1.235-0.678-1.854-1.745-1.854-3.199c0-1.675,0.929-2.821,2.782-3.438v-0.061
				c-0.679-0.418-1.017-1.056-1.017-1.913c0-1.115,0.319-1.814,0.955-2.093v-0.061c-0.636-0.219-1.204-0.717-1.703-1.494
				c-0.558-0.837-0.836-1.735-0.836-2.69c0-1.436,0.507-2.631,1.524-3.588c0.976-0.897,2.142-1.346,3.497-1.346
				C7.01,14.139,7.916,14.378,8.754,14.855z M8.873,30.582L8.873,30.582c0-1.016-0.837-1.524-2.511-1.524
				c-1.615,0-2.422,0.528-2.422,1.584c0,1.036,0.876,1.555,2.631,1.555C8.106,32.196,8.873,31.658,8.873,30.582z M4.269,19.102
				L4.269,19.102c0,1.374,0.629,2.062,1.884,2.062c1.217,0,1.823-0.697,1.823-2.092c0-0.578-0.138-1.077-0.417-1.496
				c-0.34-0.458-0.809-0.687-1.406-0.687C4.897,16.89,4.269,17.627,4.269,19.102z"/>
			<path id="_153577064_8_" fill="#FFFFFF" d="M15.243,11.956c-0.579,0-1.071-0.22-1.479-0.657
				c-0.409-0.438-0.612-0.957-0.612-1.555c0-0.618,0.203-1.146,0.612-1.585c0.408-0.438,0.9-0.657,1.479-0.657
				c0.558,0,1.042,0.219,1.45,0.657c0.407,0.439,0.612,0.967,0.612,1.585c0,0.598-0.205,1.116-0.612,1.555
				C16.285,11.736,15.801,11.956,15.243,11.956z"/>
			<path id="_153576992_8_" fill="#FFFFFF" d="M13.538,27.562c0.04-0.398,0.06-1.076,0.06-2.033V16.23
				c0-0.936-0.02-1.583-0.06-1.942h3.379c-0.04,0.379-0.06,1.007-0.06,1.884v9.178c0,1.017,0.02,1.754,0.06,2.213H13.538z"/>
			<path id="_153576920_8_" fill="#FFFFFF" d="M23.104,14.288h2.601v2.899c-0.1,0-0.284-0.009-0.553-0.029
				c-0.27-0.02-0.524-0.03-0.762-0.03h-1.286v5.562c0,1.335,0.438,2.003,1.315,2.003c0.618,0,1.176-0.169,1.673-0.508v2.988
				c-0.736,0.4-1.623,0.599-2.659,0.599c-1.456,0-2.462-0.518-3.021-1.555c-0.418-0.776-0.627-2.003-0.627-3.677v-5.353h0.029v-0.06
				l-0.448-0.03c-0.26,0-0.599,0.03-1.017,0.09v-2.899h1.465v-1.166c0-0.559-0.029-1.007-0.09-1.346h3.468
				c-0.059,0.379-0.089,0.808-0.089,1.286V14.288L23.104,14.288z"/>
			<path id="_153576848_8_" fill="#FFFFFF" d="M33.604,14.198c-0.856,0-1.754,0.3-2.691,0.897V9.863c0-1.135,0.021-1.884,0.06-2.242
				h-3.407c0.06,0.318,0.09,1.067,0.09,2.242V25.68c0,0.917-0.03,1.544-0.09,1.883h3.468c0-0.061-0.021-0.304-0.061-0.732
				c-0.038-0.429-0.06-0.812-0.06-1.15v-7.355c0.698-0.657,1.375-0.986,2.033-0.986c0.758,0,1.336,0.379,1.735,1.136
				c0.299,0.599,0.448,1.346,0.448,2.242l-0.03,4.036c0,0.678-0.05,1.614-0.15,2.811h3.618c-0.079-0.498-0.12-1.415-0.12-2.75
				v-4.097c0-1.734-0.388-3.209-1.165-4.425C36.405,14.896,35.18,14.198,33.604,14.198L33.604,14.198z"/>
			<path id="_153576776_8_" fill="#FFFFFF" d="M44.188,27.683c-1.573,0-2.739-0.699-3.497-2.094
				c-0.598-1.137-0.896-2.621-0.896-4.454v-4.096c0-1.355-0.038-2.272-0.119-2.751h3.588c-0.06,0.438-0.1,1.375-0.121,2.81
				l-0.029,4.037c0,1.136,0.13,1.953,0.39,2.452c0.299,0.617,0.847,0.927,1.645,0.927c0.558,0,1.186-0.329,1.883-0.986v-7.355
				c0-0.339-0.021-0.728-0.061-1.167c-0.04-0.438-0.06-0.677-0.06-0.717h3.469c-0.04,0.339-0.061,0.967-0.061,1.884v9.148
				c0,1.176,0.021,1.923,0.061,2.242h-3.26v-1.076C46.202,27.283,45.225,27.683,44.188,27.683L44.188,27.683z"/>
			<path id="_153576704_8_" fill="#FFFFFF" d="M57.644,27.652c-1.076,0-1.973-0.388-2.691-1.166v1.076h-3.168
				c0.061-0.339,0.089-0.966,0.089-1.883V9.863c0-1.175-0.028-1.924-0.089-2.242h3.408c-0.039,0.358-0.061,1.107-0.061,2.242v5.202
				c0.917-0.578,1.814-0.867,2.69-0.867c1.574,0,2.811,0.697,3.708,2.093c0.758,1.216,1.137,2.69,1.137,4.425
				c0,1.773-0.399,3.319-1.197,4.634C60.514,26.885,59.238,27.652,57.644,27.652z M57.195,17.338L57.195,17.338
				c-0.658,0-1.346,0.329-2.063,0.986v5.173c0.639,0.616,1.266,0.926,1.884,0.926c0.778,0,1.365-0.428,1.765-1.285
				c0.318-0.678,0.478-1.484,0.478-2.422C59.258,18.463,58.571,17.338,57.195,17.338L57.195,17.338z"/>
		</g>
	</g>
</g>
</svg>
