<?xml version="1.0" encoding="utf-8"?>
<!-- Generator: Adobe Illustrator 16.0.0, SVG Export Plug-In . SVG Version: 6.00 Build 0)  -->
<!DOCTYPE svg PUBLIC "-//W3C//DTD SVG 1.0//EN" "http://www.w3.org/TR/2001/REC-SVG-20010904/DTD/svg10.dtd">
<svg version="1.0" id="Layer_1" xmlns="http://www.w3.org/2000/svg" xmlns:xlink="http://www.w3.org/1999/xlink" x="0px" y="0px"
	 width="93.49px" height="73px" viewBox="0 0 93.49 73" enable-background="new 0 0 93.49 73" xml:space="preserve">
<symbol  id="New_Symbol_3_1_" viewBox="-57.5 -30 115 60">
	<g>
		<path fill="#FFFFFF" d="M27.5,30C15.196,30,4.629,22.59,0,11.992C-4.629,22.59-15.196,30-27.5,30c-16.568,0-30-13.432-30-30
			s13.432-30,30-30h55c16.568,0,30,13.432,30,30S44.068,30,27.5,30z M-30.606,0c0,1.716,1.391,3.107,3.106,3.107
			S-24.394,1.716-24.394,0c0-1.717-1.391-3.107-3.106-3.107S-30.606-1.717-30.606,0z M-10.938-25.012
			C-6.146-21.833-2.324-17.315,0-11.992c2.324-5.323,6.146-9.841,10.938-13.02H-10.938z M27.5-25.012
			c-13.729,0-24.871,11.062-25.006,24.761C2.494-0.167,2.5-0.084,2.5,0S2.494,0.167,2.494,0.251
			C2.629,13.947,13.771,25.012,27.5,25.012c13.813,0,25.013-11.199,25.013-25.012C52.513-13.814,41.313-25.012,27.5-25.012z"/>
	</g>
</symbol>
<g id="New_Symbol_3">
</g>
<g id="New_Symbol_4">
</g>
<path fill="#FFFFFF" d="M93.49,25.062c0-0.308-0.167-0.591-0.436-0.743l-2.858-1.615l2.866-1.653
	c0.268-0.152,0.429-0.438,0.428-0.745c0-0.307-0.167-0.591-0.436-0.741L60.305,1.056c-0.265-0.152-0.585-0.15-0.851,0.003
	L0.432,35.09c-0.268,0.154-0.431,0.439-0.43,0.745c0,0.309,0.167,0.594,0.436,0.745l2.857,1.614L0.43,39.846
	C0.164,39.998,0,40.283,0.001,40.592c0.001,0.306,0.167,0.591,0.436,0.742l2.858,1.614L0.43,44.602
	C0.164,44.754,0,45.041,0.001,45.348c0.001,0.308,0.167,0.591,0.436,0.743l2.858,1.614L0.43,49.358C0.16,49.512,0,49.796,0,50.103
	c0.001,0.309,0.167,0.593,0.436,0.744l32.748,18.511c0.13,0.075,0.276,0.111,0.421,0.111c0.149,0,0.297-0.038,0.43-0.115
	L58.443,55.28c0.08-0.02,0.168-0.022,0.241-0.066l11.953-6.873c0.092-0.054,0.154-0.139,0.219-0.218l22.205-12.802
	c0.266-0.152,0.429-0.438,0.427-0.746c0-0.309-0.167-0.592-0.436-0.744l-2.856-1.613l2.865-1.651
	c0.266-0.151,0.429-0.438,0.427-0.745c0-0.307-0.167-0.592-0.436-0.742l-2.857-1.619l2.866-1.651
	C93.33,25.656,93.491,25.37,93.49,25.062z M59.886,2.789l31.019,17.529L70.166,32.274L39.162,14.738L59.886,2.789z M2.588,35.826
	l22.876-13.19l31.016,17.528L33.604,53.354L2.588,35.826z M2.588,40.58l2.44-1.406l28.156,15.914c0.132,0.074,0.277,0.11,0.422,0.11
	c0.148,0,0.295-0.039,0.43-0.116L57.401,41.61v2.776L33.604,58.11L2.588,40.58z M2.588,45.335l2.44-1.405l28.156,15.916
	c0.132,0.074,0.277,0.109,0.422,0.109c0.148,0,0.295-0.038,0.43-0.115l23.365-13.472v2.775L33.604,62.864L2.588,45.335z
	 M33.604,67.62L2.588,50.091l2.44-1.406l28.156,15.913c0.132,0.074,0.277,0.109,0.422,0.109c0.148,0,0.295-0.035,0.43-0.114
	l23.365-13.471v2.777L33.604,67.62z M90.904,34.583L71.072,46.021v-2.778l17.401-10.031L90.904,34.583z M90.904,29.83L71.072,41.264
	v-2.776l17.398-10.032L90.904,29.83z M71.072,36.509v-2.776l17.4-10.034l2.432,1.374L71.072,36.509z"/>
</svg>
