<?xml version="1.0" encoding="utf-8"?>
<!-- Generator: Adobe Illustrator 16.0.0, SVG Export Plug-In . SVG Version: 6.00 Build 0)  -->
<!DOCTYPE svg PUBLIC "-//W3C//DTD SVG 1.0//EN" "http://www.w3.org/TR/2001/REC-SVG-20010904/DTD/svg10.dtd">
<svg version="1.0" id="Layer_1" xmlns="http://www.w3.org/2000/svg" xmlns:xlink="http://www.w3.org/1999/xlink" x="0px" y="0px"
	 width="102.5px" height="78px" viewBox="0 0 102.5 78" enable-background="new 0 0 102.5 78" xml:space="preserve">
<symbol  id="New_Symbol_3_1_" viewBox="-57.5 -30 115 60">
	<g>
		<path fill="#FFFFFF" d="M27.5,30C15.196,30,4.629,22.59,0,11.992C-4.629,22.59-15.196,30-27.5,30c-16.568,0-30-13.432-30-30
			s13.432-30,30-30h55c16.568,0,30,13.432,30,30S44.068,30,27.5,30z M-30.606,0c0,1.716,1.391,3.107,3.106,3.107
			S-24.394,1.716-24.394,0c0-1.717-1.391-3.107-3.106-3.107S-30.606-1.717-30.606,0z M-10.938-25.012
			C-6.146-21.833-2.324-17.315,0-11.992c2.324-5.323,6.146-9.841,10.938-13.02H-10.938z M27.5-25.012
			c-13.729,0-24.871,11.062-25.006,24.761C2.494-0.167,2.5-0.084,2.5,0S2.494,0.167,2.494,0.251
			C2.629,13.947,13.771,25.012,27.5,25.012c13.813,0,25.013-11.199,25.013-25.012C52.513-13.814,41.313-25.012,27.5-25.012z"/>
	</g>
</symbol>
<g id="New_Symbol_3">
</g>
<g id="New_Symbol_4">
	<path fill="#FFFFFF" d="M74.641,15.753c-10.605,0-19.715,6.387-23.705,15.522c-3.99-9.136-13.1-15.522-23.705-15.522
		c-14.281,0-25.859,11.577-25.859,25.859S12.949,67.472,27.23,67.472h47.41c14.281,0,25.859-11.577,25.859-25.859
		S88.922,15.753,74.641,15.753z M24.553,41.612c0-1.479,1.199-2.679,2.678-2.679s2.678,1.199,2.678,2.679s-1.199,2.679-2.678,2.679
		S24.553,43.092,24.553,41.612z M41.508,63.172c4.129-2.74,7.424-6.634,9.428-11.223c2.004,4.589,5.298,8.482,9.428,11.223H41.508z
		 M74.641,63.172c-11.835,0-21.439-9.535-21.555-21.344c0-0.072,0.004-0.144,0.004-0.216s-0.004-0.144-0.004-0.216
		c0.115-11.807,9.72-21.344,21.555-21.344c11.906,0,21.561,9.653,21.561,21.56C96.201,53.521,86.547,63.172,74.641,63.172z"/>
</g>
</svg>
