<?xml version="1.0" encoding="utf-8"?>
<!-- Generator: Adobe Illustrator 16.0.0, SVG Export Plug-In . SVG Version: 6.00 Build 0)  -->
<!DOCTYPE svg PUBLIC "-//W3C//DTD SVG 1.1//EN" "http://www.w3.org/Graphics/SVG/1.1/DTD/svg11.dtd">
<svg version="1.1" id="Layer_1" xmlns="http://www.w3.org/2000/svg" xmlns:xlink="http://www.w3.org/1999/xlink" x="0px" y="0px"
	 width="20px" height="18.967px" viewBox="0 0 20 18.967" enable-background="new 0 0 20 18.967" xml:space="preserve">
<g>
	<path fill="#FFFFFF" d="M20.003,6.036c0-0.012-0.001-0.025-0.003-0.039c-0.001-0.013-0.001-0.025-0.003-0.037
		c-0.001-0.014-0.005-0.025-0.008-0.037c-0.001-0.014-0.004-0.027-0.007-0.039c-0.003-0.013-0.008-0.023-0.013-0.035
		c-0.004-0.014-0.007-0.025-0.012-0.039c-0.006-0.01-0.012-0.021-0.019-0.033c-0.005-0.012-0.01-0.023-0.017-0.035
		c-0.006-0.011-0.014-0.021-0.021-0.031c-0.007-0.012-0.013-0.021-0.021-0.033c-0.006-0.01-0.018-0.02-0.027-0.03
		c-0.006-0.009-0.013-0.018-0.022-0.027c-0.01-0.009-0.02-0.018-0.029-0.026c-0.009-0.008-0.02-0.016-0.029-0.025
		c-0.021-0.016-0.042-0.03-0.065-0.043l-9.43-5.444c-0.183-0.106-0.411-0.106-0.594,0.001L0.316,5.522l0,0c0,0,0,0,0,0.001
		L0.315,5.524c-0.011,0.006-0.02,0.013-0.03,0.02C0.274,5.551,0.261,5.558,0.25,5.567c-0.01,0.01-0.02,0.018-0.03,0.026
		C0.21,5.602,0.201,5.61,0.192,5.619c-0.01,0.01-0.018,0.021-0.026,0.032C0.157,5.659,0.149,5.667,0.142,5.676
		C0.133,5.688,0.126,5.7,0.119,5.71c-0.006,0.011-0.014,0.02-0.021,0.03C0.092,5.752,0.087,5.764,0.082,5.776
		C0.077,5.788,0.07,5.798,0.064,5.809C0.061,5.822,0.057,5.833,0.052,5.846C0.049,5.858,0.044,5.87,0.041,5.883
		C0.037,5.895,0.035,5.909,0.032,5.92C0.03,5.934,0.026,5.946,0.025,5.958C0.023,5.971,0.023,5.985,0.021,5.999
		c0,0.012-0.002,0.023-0.002,0.037L0,12.936c0,0.213,0.112,0.41,0.295,0.516l9.432,5.443c0.092,0.055,0.193,0.08,0.295,0.08
		c0.026,0,0.052-0.002,0.078-0.004c0.004,0,0.009-0.004,0.014-0.004c0.021-0.004,0.042-0.006,0.062-0.012
		c0.004,0,0.009-0.004,0.014-0.004c0.02-0.008,0.041-0.012,0.061-0.021c0.006-0.004,0.01-0.006,0.016-0.008
		c0.018-0.01,0.036-0.018,0.053-0.027h0.001c0.001,0,0.001,0,0.001,0l9.369-5.443c0.181-0.105,0.293-0.303,0.294-0.512l0.02-6.9
		c0-0.001,0-0.002,0-0.002C20.003,6.037,20.003,6.037,20.003,6.036z M9.981,1.278l3.549,2.049L5.318,8.069L1.794,6.036L9.981,1.278z
		 M9.434,17.359l-8.247-4.764l0.016-5.535l8.246,4.761L9.434,17.359z M10.041,10.796L6.503,8.753l8.213-4.742l3.512,2.028
		L10.041,10.796z M18.799,12.596l-8.181,4.754l0.016-5.527l8.181-4.753L18.799,12.596z"/>
	<polygon fill="#FFFFFF" points="8.765,16.172 5.224,14.129 5.23,11.75 8.772,13.795 	"/>
</g>
<g>
</g>
<g>
</g>
<g>
</g>
<g>
</g>
<g>
</g>
<g>
</g>
</svg>
