<?xml version="1.0" encoding="utf-8"?>
<!-- Generator: Adobe Illustrator 16.0.0, SVG Export Plug-In . SVG Version: 6.00 Build 0)  -->
<!DOCTYPE svg PUBLIC "-//W3C//DTD SVG 1.0//EN" "http://www.w3.org/TR/2001/REC-SVG-20010904/DTD/svg10.dtd">
<svg version="1.0" id="Layer_1" xmlns="http://www.w3.org/2000/svg" xmlns:xlink="http://www.w3.org/1999/xlink" x="0px" y="0px"
	 width="92.166px" height="36.667px" viewBox="0 0 92.166 36.667" enable-background="new 0 0 92.166 36.667" xml:space="preserve">
<symbol  id="New_Symbol_3" viewBox="-57.5 -30 115 60">
	<g>
		<path fill="#FFFFFF" d="M27.5,30C15.196,30,4.629,22.59,0,11.992C-4.629,22.59-15.196,30-27.5,30c-16.568,0-30-13.432-30-30
			s13.432-30,30-30h55c16.568,0,30,13.432,30,30S44.068,30,27.5,30z M-30.606,0c0,1.716,1.391,3.107,3.106,3.107
			S-24.394,1.716-24.394,0c0-1.717-1.391-3.107-3.106-3.107S-30.606-1.717-30.606,0z M-10.938-25.012
			C-6.146-21.833-2.324-17.315,0-11.992c2.324-5.323,6.146-9.841,10.938-13.02H-10.938z M27.5-25.012
			c-13.729,0-24.871,11.062-25.006,24.761C2.494-0.167,2.5-0.084,2.5,0S2.494,0.167,2.494,0.251
			C2.629,13.947,13.771,25.012,27.5,25.012c13.813,0,25.013-11.199,25.013-25.012C52.513-13.814,41.313-25.012,27.5-25.012z"/>
	</g>
</symbol>
<g>
	<path fill="#FFFFFF" d="M49.18,18.979c-0.776,0-1.334,0.255-1.899,0.513v5.85c0.542,0.054,0.852,0.054,1.368,0.054
		c1.861,0,2.115-0.853,2.115-2.04V20.56C50.764,19.685,50.472,18.979,49.18,18.979 M36.826,18.66c-1.291,0-1.586,0.707-1.586,1.583
		v0.492h3.169v-0.492C38.409,19.367,38.115,18.66,36.826,18.66 M12.894,24.75c0,0.692,0.327,1.052,1.051,1.052
		c0.775,0,1.234-0.252,1.801-0.511v-1.388h-1.697C13.246,23.903,12.894,24.052,12.894,24.75 M61.197,18.979
		c-1.292,0-1.739,0.706-1.739,1.581v3.203c0,0.878,0.447,1.585,1.739,1.585c1.29,0,1.741-0.707,1.741-1.585V20.56
		C62.938,19.685,62.487,18.979,61.197,18.979 M6.558,28.338h-3.8v-9.185H0.859v-3.166h1.898v-1.901c0-2.582,1.072-4.118,4.118-4.118
		h2.536v3.166H7.827c-1.186,0-1.265,0.442-1.265,1.269l-0.005,1.585H9.43l-0.336,3.166H6.558V28.338z M19.546,28.361H16.38
		l-0.138-0.8c-1.446,0.8-2.737,0.931-3.588,0.931c-2.324,0-3.561-1.55-3.561-3.693c0-2.527,1.442-3.431,4.023-3.431h2.628v-0.546
		c0-1.291-0.149-1.669-2.136-1.669h-3.25l0.317-3.166h3.553c4.36,0,5.316,1.375,5.316,4.861V28.361z M30.316,19.385
		c-1.972-0.338-2.537-0.412-3.485-0.412c-1.703,0-2.219,0.376-2.219,1.82v2.732c0,1.445,0.516,1.822,2.219,1.822
		c0.948,0,1.514-0.075,3.485-0.414v3.087c-1.728,0.388-2.852,0.489-3.801,0.489c-4.081,0-5.702-2.144-5.702-5.239v-2.217
		c0-3.1,1.621-5.245,5.702-5.245c0.949,0,2.073,0.102,3.801,0.489V19.385z M42.21,23.271h-6.97v0.255
		c0,1.445,0.516,1.822,2.219,1.822c1.53,0,2.465-0.075,4.433-0.414v3.087c-1.896,0.388-2.886,0.489-4.748,0.489
		c-4.08,0-5.703-2.144-5.703-5.239v-2.535c0-2.708,1.205-4.927,5.386-4.927s5.384,2.192,5.384,4.927V23.271z M54.563,23.329
		c0,2.991-0.855,5.175-6.044,5.175c-1.871,0-2.972-0.166-5.039-0.483V10.918l3.8-0.632v5.981c0.82-0.304,1.883-0.459,2.851-0.459
		c3.8,0,4.433,1.702,4.433,4.435V23.329z M66.743,23.395c0,2.582-1.068,5.084-5.533,5.084c-4.467,0-5.554-2.502-5.554-5.084v-2.492
		c0-2.582,1.087-5.085,5.554-5.085c4.465,0,5.533,2.503,5.533,5.085V23.395z M78.911,23.395c0,2.582-1.069,5.084-5.531,5.084
		c-4.467,0-5.555-2.502-5.555-5.084v-2.492c0-2.582,1.088-5.085,5.555-5.085c4.462,0,5.531,2.503,5.531,5.085V23.395z M91.4,28.338
		h-4.119L83.8,22.533v5.805H80v-17.42l3.8-0.632v11.215l3.481-5.514H91.4l-3.802,6.017L91.4,28.338z M73.367,18.979
		c-1.291,0-1.738,0.706-1.738,1.581v3.203c0,0.878,0.447,1.585,1.738,1.585c1.288,0,1.744-0.707,1.744-1.585V20.56
		C75.111,19.685,74.655,18.979,73.367,18.979"/>
</g>
</svg>
