<?xml version="1.0" encoding="utf-8"?>
<!-- Generator: Adobe Illustrator 16.0.0, SVG Export Plug-In . SVG Version: 6.00 Build 0)  -->
<!DOCTYPE svg PUBLIC "-//W3C//DTD SVG 1.0//EN" "http://www.w3.org/TR/2001/REC-SVG-20010904/DTD/svg10.dtd">
<svg version="1.0" id="Layer_1" xmlns="http://www.w3.org/2000/svg" xmlns:xlink="http://www.w3.org/1999/xlink" x="0px" y="0px"
	 width="137.504px" height="24.242px" viewBox="0 0 137.504 24.242" enable-background="new 0 0 137.504 24.242"
	 xml:space="preserve">
<symbol  id="New_Symbol_3" viewBox="-57.5 -30 115 60">
	<g>
		<path fill="#FFFFFF" d="M27.5,30C15.196,30,4.629,22.59,0,11.992C-4.629,22.59-15.196,30-27.5,30c-16.568,0-30-13.432-30-30
			s13.432-30,30-30h55c16.568,0,30,13.432,30,30S44.068,30,27.5,30z M-30.606,0c0,1.716,1.391,3.107,3.106,3.107
			S-24.394,1.716-24.394,0c0-1.717-1.391-3.107-3.106-3.107S-30.606-1.717-30.606,0z M-10.938-25.012
			C-6.146-21.833-2.324-17.315,0-11.992c2.324-5.323,6.146-9.841,10.938-13.02H-10.938z M27.5-25.012
			c-13.729,0-24.871,11.062-25.006,24.761C2.494-0.167,2.5-0.084,2.5,0S2.494,0.167,2.494,0.251
			C2.629,13.947,13.771,25.012,27.5,25.012c13.813,0,25.013-11.199,25.013-25.012C52.513-13.814,41.313-25.012,27.5-25.012z"/>
	</g>
</symbol>
<g id="New_Symbol_9_">
	<g>
		<g enable-background="new    ">
			<path fill="#FFFFFF" d="M62.482,23.845v-8.988c0-1.073-0.027-2.036-0.451-2.656c-0.451-0.622-1.102-0.905-1.979-0.905
				c-2.232,0-3.25,1.442-3.25,3.731v8.818h-3.816V1.571h3.816v9.554h0.027c0.594-1.328,2.092-2.684,4.58-2.684
				c3.363,0,4.889,1.723,4.889,5.369v10.033h-3.816V23.845L62.482,23.845z"/>
			<path fill="#FFFFFF" d="M80.971,13.896c-0.17-1.526-1.104-2.771-2.996-2.771c-2.545,0-3.449,2.262-3.449,5.117
				c0,2.797,0.678,5.229,3.42,5.229c2.205,0,3.053-1.582,3.166-2.966h3.787c-0.225,3.731-3.193,5.737-6.953,5.737
				c-4.918,0-7.35-2.967-7.35-7.914c0-5.004,2.801-7.914,7.406-7.914c3.703,0,6.586,1.78,6.842,5.482L80.971,13.896L80.971,13.896z"
				/>
			<path fill="#FFFFFF" d="M93.125,23.845h-3.703V1.571h3.703v14.106l6.021-6.898h4.211l-5.484,6.105l5.994,8.959H99.57
				l-4.211-6.586l-2.234,2.518V23.845L93.125,23.845z"/>
		</g>
		<g enable-background="new    ">
			<path fill="#FFFFFF" d="M112.402,17.429v6.414h-3.787V8.78h3.648v3.535h0.055c1.074-2.771,2.996-3.815,5.711-3.815
				c0.988,0,2.119,0.196,2.77,0.537v3.279c-0.82-0.312-1.838-0.537-3.166-0.537C114.211,11.774,112.402,13.954,112.402,17.429z"/>
		</g>
		<g enable-background="new    ">
			<path fill="#FFFFFF" d="M133.631,12.906c-0.143-1.187-1.074-1.78-2.77-1.78c-1.725,0-2.713,0.651-2.713,1.667
				c0,1.046,0.592,1.47,2.203,1.723l2.572,0.425c3.336,0.538,4.58,1.922,4.58,4.211c0,3.337-2.574,5.09-6.699,5.09
				c-4.297,0-6.475-1.611-6.756-4.778h3.561c0.227,1.33,0.99,2.092,3.195,2.092c2.119,0,3.109-0.565,3.109-1.809
				c0-1.019-0.566-1.412-2.316-1.696l-2.658-0.426c-2.545-0.394-4.354-1.61-4.354-4.436c0-2.742,2.291-4.778,6.303-4.778
				c4.24,0,6.107,1.979,6.332,4.495L133.631,12.906L133.631,12.906z"/>
		</g>
	</g>
	<g>
		<path fill="#FFFFFF" d="M21.283,23.55c0.025-1.494,0.049-9.592,0.137-14.923c0.041-2.387,0.545-5.795,0.545-5.795
			c-1.4-1.476-3.854-2.72-6.018-2.75c-4.332-0.062-7.893,3.401-7.953,7.733c-4.328-0.084-7.908,3.358-7.992,7.69
			c-0.084,4.33,3.287,7.918,8.064,7.999C13.396,23.591,19.789,23.525,21.283,23.55z"/>
		<g>
			<g>
				<path fill="#FFFFFF" d="M27.807,0l0.016,1.914c1.584,0.004,3.072,0.625,4.189,1.748c1.117,1.123,1.73,2.614,1.725,4.197
					l0.016,1.918h1.918c3.264,0,5.922,2.654,5.93,5.915c0.006,1.575-0.592,3.046-1.68,4.137c-1.162,1.165-2.797,1.81-4.602,1.81
					h-3.822h-9.16h-0.461v-1.742V8.197c0-3.583,2.551-6.283,5.932-6.283V0 M27.807,0c-4.32,0-7.842,3.427-7.842,8.197
					c0,5.33-0.002,13.861-0.002,15.355c1.168,0,6.65-0.002,11.533-0.002c1.355,0,2.664,0,3.822,0
					c4.777-0.002,8.209-3.533,8.195-7.864c-0.012-4.325-3.52-7.822-7.844-7.822c-0.006,0-0.014,0-0.021,0
					c0.014-4.332-3.49-7.853-7.822-7.864C27.822,0,27.816,0,27.807,0L27.807,0z"/>
			</g>
		</g>
	</g>
</g>
</svg>
