<?xml version="1.0" encoding="utf-8"?>
<!-- Generator: Adobe Illustrator 16.0.0, SVG Export Plug-In . SVG Version: 6.00 Build 0)  -->
<!DOCTYPE svg PUBLIC "-//W3C//DTD SVG 1.0//EN" "http://www.w3.org/TR/2001/REC-SVG-20010904/DTD/svg10.dtd">
<svg version="1.0" id="Layer_1" xmlns="http://www.w3.org/2000/svg" xmlns:xlink="http://www.w3.org/1999/xlink" x="0px" y="0px"
	 width="99.5px" height="78px" viewBox="0 0 99.5 78" enable-background="new 0 0 99.5 78" xml:space="preserve">
<symbol  id="New_Symbol_3_1_" viewBox="-57.5 -30 115 60">
	<g>
		<path fill="#FFFFFF" d="M27.5,30C15.196,30,4.629,22.59,0,11.992C-4.629,22.59-15.196,30-27.5,30c-16.568,0-30-13.432-30-30
			s13.432-30,30-30h55c16.568,0,30,13.432,30,30S44.068,30,27.5,30z M-30.606,0c0,1.716,1.391,3.107,3.106,3.107
			S-24.394,1.716-24.394,0c0-1.717-1.391-3.107-3.106-3.107S-30.606-1.717-30.606,0z M-10.938-25.012
			C-6.146-21.833-2.324-17.315,0-11.992c2.324-5.323,6.146-9.841,10.938-13.02H-10.938z M27.5-25.012
			c-13.729,0-24.871,11.062-25.006,24.761C2.494-0.167,2.5-0.084,2.5,0S2.494,0.167,2.494,0.251
			C2.629,13.947,13.771,25.012,27.5,25.012c13.813,0,25.013-11.199,25.013-25.012C52.513-13.814,41.313-25.012,27.5-25.012z"/>
	</g>
</symbol>
<g id="New_Symbol_3">
</g>
<g id="New_Symbol_4">
</g>
<path fill="#FFFFFF" d="M62.5,20.724c3.456,0.01,6.805,1.479,9.244,3.927c2.436,2.449,3.773,5.707,3.758,9.161L75.539,38h4.185
	c7.119,0,12.921,5.73,12.938,12.844c0.014,3.436-1.293,6.737-3.668,9.116C86.459,62.503,82.894,64,78.956,64h-8.337H50.634H49.5
	v-4.047l0.031-25.521C49.531,26.616,55.5,20.724,62.5,20.724V16.55v-0.002c-5,0-9.756,2.254-12.896,5.993
	c-3.082-3.137-8.294-5.747-12.925-5.813c-9.449-0.133-17.211,7.422-17.341,16.87C9.895,33.412,2.09,40.925,1.908,50.375
	c-0.184,9.447,7.192,17.274,17.617,17.451C28.967,67.98,39.5,67.913,45.5,67.913c0,0.005,0,0.013,0,0.018
	c3,0,14.466,0.069,25.119,0.069c2.953,0,5.812,0,8.337,0c10.422,0,17.908-7.599,17.879-17.048C96.812,41.518,89.157,34,79.724,34
	c0,0-0.03,0-0.045,0c0.027-10-7.729-17.452-17.179-17.452"/>
</svg>
