<?xml version="1.0" encoding="utf-8"?>
<!-- Generator: Adobe Illustrator 16.0.0, SVG Export Plug-In . SVG Version: 6.00 Build 0)  -->
<!DOCTYPE svg PUBLIC "-//W3C//DTD SVG 1.0//EN" "http://www.w3.org/TR/2001/REC-SVG-20010904/DTD/svg10.dtd">
<svg version="1.0" id="Layer_1" xmlns="http://www.w3.org/2000/svg" xmlns:xlink="http://www.w3.org/1999/xlink" x="0px" y="0px"
	 width="95px" height="73px" viewBox="0 0 95 73" enable-background="new 0 0 95 73" xml:space="preserve">
<g>
	<path fill="#FFFFFF" d="M71.524,7.333L47.74,29.294L25.025,7.333L0,30.512V66h47h2h46V29.979L71.524,7.333z M91,62H51V31.743
		l20.465-18.941L91,31.692V62z"/>
	<g>
		<path d="M25.51,46.034c-0.496,0-0.916,0.407-0.916,0.916c0,0.483,0.42,0.891,0.916,0.891s0.903-0.42,0.903-0.891
			C26.413,46.441,26.006,46.034,25.51,46.034L25.51,46.034z M24.199,45.462c0.713-0.751,1.921-0.751,2.646,0l0.878-0.891
			c-1.233-1.209-3.206-1.209-4.414,0L24.199,45.462z M20.663,41.938c2.671-2.672,7.01-2.672,9.681,0l0.891-0.864
			c-3.18-3.168-8.28-3.168-11.449,0L20.663,41.938z M22.418,43.718c1.692-1.717,4.466-1.717,6.171,0l0.891-0.89
			c-2.201-2.2-5.764-2.2-7.951,0L22.418,43.718z"/>
	</g>
</g>
</svg>
