<?xml version="1.0" encoding="utf-8"?>
<!-- Generator: Adobe Illustrator 16.0.0, SVG Export Plug-In . SVG Version: 6.00 Build 0)  -->
<!DOCTYPE svg PUBLIC "-//W3C//DTD SVG 1.0//EN" "http://www.w3.org/TR/2001/REC-SVG-20010904/DTD/svg10.dtd">
<svg version="1.0" id="Layer_1" xmlns="http://www.w3.org/2000/svg" xmlns:xlink="http://www.w3.org/1999/xlink" x="0px" y="0px"
	 width="102.5px" height="78px" viewBox="0 0 102.5 78" enable-background="new 0 0 102.5 78" xml:space="preserve">
<path fill="#FFFFFF" d="M64.5,20.724c3.456,0.01,6.805,1.479,9.244,3.927c2.436,2.449,3.773,5.707,3.758,9.161L77.539,38h4.185
	c7.119,0,12.921,5.73,12.938,12.844c0.014,3.436-1.293,6.737-3.668,9.116C88.459,62.503,84.894,64,80.956,64h-8.337H52.634H51
	v-4.047l0.031-25.521C51.031,26.616,57,20.724,64,20.724V16.55v-0.002c-5,0-9.506,2.254-12.646,5.993
	c-3.082-3.137-8.169-5.747-12.8-5.813c-9.449-0.133-17.148,7.422-17.278,16.87c-9.444-0.186-17.218,7.327-17.399,16.777
	c-0.184,9.447,6.958,17.274,17.383,17.451C30.701,67.98,41,67.913,47,67.913c0,0.005,0,0.013,0,0.018c3,0,14.966,0.069,25.619,0.069
	c2.953,0,5.812,0,8.337,0c10.422,0,17.908-7.599,17.879-17.048C98.812,41.518,91.157,34,81.724,34c0,0-0.03,0-0.045,0
	c0.027-10-7.729-17.452-17.179-17.452"/>
</svg>
