<?xml version="1.0" encoding="utf-8"?>
<!-- Generator: Adobe Illustrator 16.0.0, SVG Export Plug-In . SVG Version: 6.00 Build 0)  -->
<!DOCTYPE svg PUBLIC "-//W3C//DTD SVG 1.1//EN" "http://www.w3.org/Graphics/SVG/1.1/DTD/svg11.dtd">
<svg version="1.1" id="Layer_1" xmlns="http://www.w3.org/2000/svg" xmlns:xlink="http://www.w3.org/1999/xlink" x="0px" y="0px"
	 width="24.079px" height="10.521px" viewBox="-3.954 9.104 24.079 10.521" enable-background="new -3.954 9.104 24.079 10.521"
	 xml:space="preserve">
<g>
	<path fill="#FFFFFF" d="M-3.392,15.354c-0.338-0.228-0.562-0.679-0.562-1.072c0-0.396,0.169-0.762,0.592-0.959H-3.39
		c2.002-1.184,4.796-2.764,6.658-3.864v2.625c-0.733,0.423-1.721,0.901-4.204,2.229l0.028,0.024
		c1.326,0.595,2.849,1.496,4.175,2.286v2.65L-3.392,15.354z"/>
	<path fill="#FFFFFF" d="M19.561,13.377c0.336,0.229,0.564,0.678,0.564,1.072s-0.171,0.762-0.596,0.959h0.029
		c-2.002,1.186-4.797,2.765-6.658,3.863v-2.623c0.733-0.424,1.724-0.901,4.203-2.229l-0.026-0.027
		c-1.325-0.594-2.851-1.494-4.176-2.285v-2.65L19.561,13.377z"/>
	<path fill="#FFFFFF" d="M7.217,19.625H5.529L8.923,9.104h1.716L7.217,19.625z"/>
</g>
</svg>
