<?xml version="1.0" encoding="utf-8"?>
<!-- Generator: Adobe Illustrator 16.0.0, SVG Export Plug-In . SVG Version: 6.00 Build 0)  -->
<!DOCTYPE svg PUBLIC "-//W3C//DTD SVG 1.1//EN" "http://www.w3.org/Graphics/SVG/1.1/DTD/svg11.dtd">
<svg version="1.1" id="Layer_1" xmlns="http://www.w3.org/2000/svg" xmlns:xlink="http://www.w3.org/1999/xlink" x="0px" y="0px"
	 width="10.5px" height="20px" viewBox="0 0 10.5 20" enable-background="new 0 0 10.5 20" xml:space="preserve">
<g id="Your_Icon_4_">
	<path fill="#FFFFFF" d="M5.237,13.165c1.704,0,3.087-1.381,3.087-3.085V3.085C8.324,1.381,6.941,0,5.237,0S2.151,1.381,2.151,3.085
		v6.995C2.151,11.784,3.533,13.165,5.237,13.165z"/>
	<path fill="#FFFFFF" d="M9.843,7.517c-0.35,0-0.633,0.283-0.633,0.632v1.931c0,2.189-1.783,3.972-3.973,3.972
		c-2.19,0-3.972-1.782-3.972-3.972V8.149c0-0.349-0.283-0.632-0.633-0.632C0.283,7.517,0,7.8,0,8.149v1.931
		c0,2.888,2.35,5.238,5.237,5.238c2.889,0,5.238-2.351,5.238-5.238V8.149C10.476,7.8,10.191,7.517,9.843,7.517z"/>
	<path fill="#FFFFFF" d="M7.848,18.609H5.871v-2.827c-0.209,0.025-0.419,0.042-0.634,0.042c-0.215,0-0.425-0.017-0.634-0.042v2.827
		H2.627c-0.35,0-0.633,0.283-0.633,0.633v0.633H8.48v-0.633C8.48,18.893,8.198,18.609,7.848,18.609z"/>
</g>
<g>
</g>
<g>
</g>
<g>
</g>
<g>
</g>
<g>
</g>
<g>
</g>
</svg>
