<?xml version="1.0" encoding="utf-8"?>
<!-- Generator: Adobe Illustrator 16.0.0, SVG Export Plug-In . SVG Version: 6.00 Build 0)  -->
<!DOCTYPE svg PUBLIC "-//W3C//DTD SVG 1.1//EN" "http://www.w3.org/Graphics/SVG/1.1/DTD/svg11.dtd">
<svg version="1.1" id="Layer_1" xmlns="http://www.w3.org/2000/svg" xmlns:xlink="http://www.w3.org/1999/xlink" x="0px" y="0px"
	 width="20px" height="19.5px" viewBox="0 0 20 19.5" enable-background="new 0 0 20 19.5" xml:space="preserve">
<g id="Your_Icon">
	<path fill="#FFFFFF" d="M4.2,0.127C3.913,0.16,3.92,0.381,3.93,0.791C3.942,1.2,3.861,1.568,3.516,1.771
		C3.45,1.804,3.385,1.837,3.321,1.875c-0.004,0.002-0.006,0.001-0.01,0.004C2.953,2.065,2.598,1.936,2.257,1.707
		C1.917,1.479,1.733,1.354,1.552,1.58C1.374,1.804,1.495,1.651,1.204,2.015C1.201,2.018,1.2,2.021,1.196,2.025
		C0.905,2.389,1.027,2.236,0.848,2.46C0.667,2.686,0.829,2.838,1.127,3.12C1.422,3.4,1.623,3.713,1.528,4.097
		C1.504,4.169,1.483,4.24,1.464,4.312C1.463,4.319,1.459,4.321,1.458,4.327C1.336,4.712,0.993,4.872,0.591,4.951
		c-0.403,0.079-0.62,0.12-0.588,0.407C0.034,5.644,0.012,5.45,0.064,5.913C0.065,5.917,0.065,5.92,0.066,5.926
		c0.051,0.463,0.03,0.268,0.061,0.554C0.159,6.767,0.38,6.76,0.791,6.75c0.407-0.012,0.774,0.069,0.978,0.413
		c0.034,0.066,0.068,0.132,0.105,0.195c0.001,0.006,0,0.009,0.003,0.012c0.186,0.357,0.057,0.713-0.172,1.053
		C1.478,8.763,1.353,8.946,1.578,9.126C1.803,9.305,1.65,9.185,2.014,9.475C2.016,9.478,2.018,9.479,2.02,9.48
		c0.001,0.001,0.002,0.001,0.003,0.003C2.387,9.775,2.235,9.652,2.46,9.831c0.226,0.182,0.377,0.021,0.659-0.278
		c0.279-0.296,0.596-0.5,0.981-0.4C4.169,9.174,4.239,9.195,4.31,9.214c0.007,0.003,0.01,0.006,0.018,0.009
		c0.384,0.12,0.543,0.463,0.623,0.866c0.081,0.403,0.121,0.62,0.409,0.589c0.285-0.032,0.091-0.01,0.554-0.062
		c0.003,0,0.004,0,0.008,0c0.002,0,0.003,0,0.005-0.001c0.463-0.051,0.268-0.031,0.554-0.062c0.287-0.034,0.281-0.255,0.27-0.664
		C6.737,9.478,6.817,9.108,7.166,8.906l0,0c0.064-0.032,0.128-0.064,0.19-0.101C7.36,8.802,7.363,8.804,7.368,8.801
		c0.358-0.186,0.713-0.056,1.053,0.173c0.342,0.227,0.524,0.352,0.705,0.127c0.179-0.226,0.059-0.073,0.349-0.437
		C9.477,8.663,9.478,8.662,9.48,8.659c0.001-0.001,0.001-0.003,0.003-0.003C9.774,8.292,9.651,8.444,9.832,8.22
		c0.18-0.226,0.019-0.378-0.279-0.659C9.256,7.28,9.051,6.963,9.153,6.575C9.174,6.508,9.194,6.44,9.212,6.37
		c0.002-0.007,0.007-0.009,0.01-0.018c0.121-0.384,0.463-0.543,0.866-0.623c0.401-0.081,0.619-0.122,0.588-0.409
		c-0.032-0.286-0.011-0.091-0.062-0.554c0-0.003,0-0.006,0-0.009c0-0.001-0.001-0.003-0.001-0.004
		c-0.051-0.463-0.031-0.27-0.062-0.555c-0.032-0.287-0.253-0.28-0.664-0.268c-0.411,0.01-0.78-0.07-0.982-0.419l0,0
		C8.873,3.448,8.84,3.385,8.805,3.324C8.803,3.319,8.803,3.316,8.8,3.311C8.615,2.954,8.743,2.598,8.972,2.258
		C9.2,1.917,9.325,1.734,9.101,1.553C8.875,1.374,9.027,1.496,8.666,1.205C8.661,1.202,8.66,1.2,8.657,1.198
		c0,0-0.001-0.001-0.002-0.002C8.292,0.905,8.443,1.027,8.219,0.849C7.993,0.668,7.842,0.83,7.559,1.127
		c-0.28,0.297-0.597,0.5-0.983,0.399c-0.067-0.021-0.138-0.042-0.207-0.06C6.362,1.463,6.36,1.459,6.352,1.458
		C5.968,1.336,5.808,0.994,5.729,0.591s-0.121-0.62-0.408-0.588C5.033,0.035,5.236,0.012,4.754,0.066
		C4.292,0.117,4.485,0.097,4.2,0.127z M7.328,5.119c0.122,1.099-0.67,2.089-1.768,2.21C4.461,7.451,3.472,6.659,3.35,5.562
		c-0.122-1.1,0.67-2.088,1.769-2.21C6.217,3.229,7.205,4.02,7.328,5.119z"/>
	<path fill="#FFFFFF" d="M10.963,7.573c-0.321,0.122-0.246,0.375-0.112,0.842c0.135,0.467,0.153,0.914-0.184,1.25
		c-0.066,0.059-0.13,0.116-0.192,0.177c-0.005,0.004-0.007,0.004-0.011,0.007c-0.357,0.321-0.802,0.278-1.262,0.117
		s-0.708-0.25-0.848,0.063c-0.14,0.312-0.045,0.101-0.271,0.605c-0.001,0.004-0.003,0.009-0.006,0.015
		c-0.226,0.504-0.132,0.293-0.271,0.604c-0.141,0.313,0.091,0.439,0.518,0.675c0.422,0.233,0.748,0.535,0.752,1.005
		c-0.006,0.088-0.008,0.178-0.009,0.267c-0.001,0.008-0.004,0.011-0.004,0.018c-0.023,0.479-0.37,0.765-0.809,0.976
		c-0.439,0.211-0.678,0.323-0.555,0.645c0.122,0.317,0.038,0.101,0.236,0.618c0.001,0.006,0.003,0.01,0.006,0.015
		c0.196,0.519,0.114,0.3,0.235,0.618c0.122,0.322,0.375,0.247,0.843,0.112c0.466-0.135,0.912-0.152,1.249,0.184
		c0.058,0.065,0.115,0.132,0.178,0.193c0.004,0.004,0.004,0.009,0.008,0.013c0.318,0.354,0.277,0.803,0.116,1.261
		c-0.161,0.46-0.249,0.708,0.063,0.849c0.312,0.139,0.1,0.044,0.605,0.271c0.003,0.002,0.005,0.003,0.009,0.005
		c0.001,0.001,0.003,0.001,0.005,0.001c0.504,0.228,0.292,0.131,0.604,0.271c0.312,0.139,0.438-0.091,0.675-0.519
		c0.233-0.424,0.537-0.75,1.009-0.752c0.086,0.005,0.173,0.008,0.259,0.008c0.009,0.001,0.012,0.006,0.021,0.006
		c0.478,0.024,0.764,0.37,0.975,0.809c0.211,0.439,0.323,0.678,0.645,0.555c0.317-0.121,0.103-0.039,0.619-0.235
		c0.003-0.002,0.005-0.002,0.008-0.003c0.003-0.002,0.005-0.002,0.006-0.003c0.517-0.196,0.301-0.116,0.619-0.236
		c0.321-0.121,0.248-0.375,0.111-0.844c-0.136-0.467-0.153-0.915,0.188-1.252l0,0c0.064-0.057,0.128-0.114,0.188-0.173
		c0.005-0.006,0.009-0.004,0.015-0.01c0.355-0.319,0.801-0.277,1.261-0.116s0.708,0.249,0.849-0.062
		c0.139-0.312,0.044-0.1,0.272-0.605c0-0.003,0.001-0.006,0.003-0.009c0.001-0.001,0.001-0.004,0.002-0.004
		c0.226-0.506,0.13-0.295,0.271-0.605c0.139-0.313-0.091-0.439-0.519-0.675c-0.424-0.234-0.753-0.538-0.752-1.012
		c0.005-0.085,0.008-0.169,0.008-0.254c0.001-0.01,0.004-0.015,0.005-0.024c0.025-0.478,0.371-0.762,0.81-0.973
		c0.438-0.213,0.677-0.325,0.557-0.646c-0.123-0.317-0.041-0.101-0.237-0.619c-0.001-0.003-0.002-0.004-0.003-0.009
		c-0.001-0.001-0.002-0.003-0.003-0.004c-0.198-0.517-0.114-0.3-0.236-0.62c-0.123-0.321-0.375-0.246-0.844-0.111
		c-0.467,0.136-0.917,0.154-1.251-0.188c-0.001,0-0.002,0-0.002,0c-0.057-0.064-0.113-0.127-0.173-0.188
		c-0.003-0.004-0.003-0.009-0.008-0.013c-0.32-0.354-0.278-0.801-0.117-1.262c0.161-0.46,0.249-0.706-0.062-0.847
		c-0.312-0.14-0.102-0.045-0.604-0.272c-0.005-0.001-0.008-0.003-0.013-0.004c0-0.001-0.001-0.001-0.001-0.001
		c-0.506-0.227-0.295-0.13-0.605-0.27c-0.313-0.141-0.439,0.091-0.675,0.517c-0.233,0.424-0.538,0.752-1.013,0.752
		c-0.084-0.006-0.17-0.007-0.256-0.007c-0.009-0.001-0.012-0.006-0.021-0.006c-0.479-0.025-0.765-0.371-0.976-0.81
		c-0.212-0.439-0.324-0.675-0.645-0.555c-0.322,0.123-0.095,0.037-0.633,0.242C11.066,7.533,11.283,7.453,10.963,7.573z
		 M16.048,12.378c0.469,1.226-0.146,2.6-1.374,3.068c-1.226,0.467-2.6-0.148-3.066-1.374c-0.468-1.228,0.147-2.602,1.373-3.068
		C14.207,10.537,15.581,11.15,16.048,12.378z"/>
</g>
<g>
</g>
<g>
</g>
<g>
</g>
<g>
</g>
<g>
</g>
<g>
</g>
</svg>
