<?xml version="1.0" encoding="utf-8"?>
<!-- Generator: Adobe Illustrator 16.0.0, SVG Export Plug-In . SVG Version: 6.00 Build 0)  -->
<!DOCTYPE svg PUBLIC "-//W3C//DTD SVG 1.1//EN" "http://www.w3.org/Graphics/SVG/1.1/DTD/svg11.dtd">
<svg version="1.1" id="Layer_1" xmlns="http://www.w3.org/2000/svg" xmlns:xlink="http://www.w3.org/1999/xlink" x="0px" y="0px"
	 width="17.6px" height="20px" viewBox="0 0 17.6 20" enable-background="new 0 0 17.6 20" xml:space="preserve">
<path fill="#FFFFFF" d="M13.935,0.737C13.935,0.33,13.604,0,13.195,0c-0.405,0-0.736,0.331-0.736,0.737v2.905
	c0,0.409,0.331,0.739,0.736,0.739c0.409,0,0.739-0.33,0.739-0.739V0.737z"/>
<path fill="#FFFFFF" d="M15.539,2.406h-1v1.236c0,0.74-0.602,1.343-1.344,1.343c-0.738,0-1.34-0.603-1.34-1.343V2.406h-6.11v1.236
	c0,0.74-0.6,1.343-1.34,1.343c-0.739,0-1.341-0.603-1.341-1.343V2.406H2.061c-1.138,0-2.06,0.922-2.061,2.06v13.528
	c0.001,1.138,0.922,2.06,2.061,2.061h13.478c1.138-0.001,2.059-0.923,2.061-2.061V4.466C17.598,3.327,16.677,2.406,15.539,2.406z
	 M15.894,17.994c0,0.194-0.16,0.354-0.354,0.354H2.061c-0.195,0-0.355-0.16-0.355-0.354V7.171h14.188V17.994z"/>
<path fill="#FFFFFF" d="M5.143,0.737C5.143,0.33,4.812,0,4.405,0C3.997,0,3.668,0.331,3.668,0.737v2.905
	c0,0.409,0.329,0.739,0.737,0.739c0.407,0,0.738-0.33,0.738-0.739V0.737z"/>
<g>
	<g>
		<rect x="12.572" y="8.448" fill="#FFFFFF" width="1.556" height="1.615"/>
	</g>
	<g>
		<rect x="10.298" y="8.448" fill="#FFFFFF" width="1.555" height="1.615"/>
	</g>
	<g>
		<rect x="8.021" y="8.448" fill="#FFFFFF" width="1.554" height="1.615"/>
	</g>
	<g>
		<rect x="12.572" y="10.699" fill="#FFFFFF" width="1.556" height="1.614"/>
	</g>
	<g>
		<rect x="10.298" y="10.699" fill="#FFFFFF" width="1.555" height="1.614"/>
	</g>
	<g>
		<rect x="8.021" y="10.699" fill="#FFFFFF" width="1.554" height="1.614"/>
	</g>
	<g>
		<rect x="5.746" y="10.699" fill="#FFFFFF" width="1.556" height="1.614"/>
	</g>
	<g>
		<rect x="3.47" y="10.699" fill="#FFFFFF" width="1.557" height="1.614"/>
	</g>
	<g>
		<rect x="12.572" y="12.95" fill="#FFFFFF" width="1.556" height="1.614"/>
	</g>
	<g>
		<rect x="10.298" y="12.95" fill="#FFFFFF" width="1.555" height="1.614"/>
	</g>
	<g>
		<rect x="8.021" y="12.95" fill="#FFFFFF" width="1.554" height="1.614"/>
	</g>
	<g>
		<rect x="5.746" y="12.95" fill="#FFFFFF" width="1.556" height="1.614"/>
	</g>
	<g>
		<rect x="3.47" y="12.95" fill="#FFFFFF" width="1.557" height="1.614"/>
	</g>
	<g>
		<rect x="10.298" y="15.201" fill="#FFFFFF" width="1.555" height="1.614"/>
	</g>
	<g>
		<rect x="8.021" y="15.201" fill="#FFFFFF" width="1.554" height="1.614"/>
	</g>
	<g>
		<rect x="5.746" y="15.201" fill="#FFFFFF" width="1.556" height="1.614"/>
	</g>
	<g>
		<rect x="3.47" y="15.201" fill="#FFFFFF" width="1.557" height="1.614"/>
	</g>
</g>
<g>
</g>
<g>
</g>
<g>
</g>
<g>
</g>
<g>
</g>
<g>
</g>
</svg>
