<?xml version="1.0" encoding="utf-8"?>
<!-- Generator: Adobe Illustrator 16.0.0, SVG Export Plug-In . SVG Version: 6.00 Build 0)  -->
<!DOCTYPE svg PUBLIC "-//W3C//DTD SVG 1.1//EN" "http://www.w3.org/Graphics/SVG/1.1/DTD/svg11.dtd">
<svg version="1.1" id="Layer_1" xmlns="http://www.w3.org/2000/svg" xmlns:xlink="http://www.w3.org/1999/xlink" x="0px" y="0px"
	 width="19.821px" height="20px" viewBox="0 0 19.821 20" enable-background="new 0 0 19.821 20" xml:space="preserve">
<g>
	<path fill="#FFFFFF" d="M9.91,0C4.44-0.003,0.005,4.477,0,9.999c0.005,5.53,4.44,10.008,9.91,10.007
		c5.474,0.002,9.908-4.478,9.911-10.007C19.818,4.477,15.384-0.003,9.91,0z M9.91,18.271c-4.52,0-8.184-3.702-8.181-8.274
		C1.725,5.435,5.39,1.734,9.91,1.735c4.524-0.001,8.189,3.7,8.194,8.263C18.099,14.569,14.434,18.271,9.91,18.271z"/>
	<path fill="#FFFFFF" d="M9.076,12.873l1.815-0.008v-1.403c-0.005-0.381,0.172-0.741,0.648-1.052
		c0.476-0.313,1.804-0.945,1.806-2.613c-0.002-1.661-1.396-2.805-2.57-3.051c-1.17-0.239-2.441-0.08-3.339,0.913
		C6.627,6.538,6.457,7.236,6.455,8.779h1.814v-0.36C8.266,7.599,8.361,6.731,9.532,6.491c0.644-0.125,1.246,0.075,1.604,0.421
		c0.404,0.401,0.409,1.3-0.245,1.745L9.873,9.35c-0.592,0.384-0.796,0.808-0.797,1.429V12.873L9.076,12.873z"/>
	<polygon fill="#FFFFFF" points="9.067,15.443 9.067,13.584 10.899,13.584 10.899,15.443 	"/>
</g>
<g>
</g>
<g>
</g>
<g>
</g>
<g>
</g>
<g>
</g>
<g>
</g>
</svg>
