<?xml version="1.0" encoding="utf-8"?>
<!-- Generator: Adobe Illustrator 16.0.0, SVG Export Plug-In . SVG Version: 6.00 Build 0)  -->
<!DOCTYPE svg PUBLIC "-//W3C//DTD SVG 1.1//EN" "http://www.w3.org/Graphics/SVG/1.1/DTD/svg11.dtd">
<svg version="1.1" id="Layer_1" xmlns="http://www.w3.org/2000/svg" xmlns:xlink="http://www.w3.org/1999/xlink" x="0px" y="0px"
	 width="13.301px" height="20px" viewBox="0 0 13.301 20" enable-background="new 0 0 13.301 20" xml:space="preserve">
<g id="Your_Icon_3_">
	<path fill="#FFFFFF" d="M13.292,6.65c0-3.673-2.976-6.65-6.646-6.65S0,2.977,0,6.65c0,1.087,0.263,2.113,0.725,3.019H0.723
		l5.923,10.309l5.922-10.309h-0.002C13.028,8.763,13.292,7.738,13.292,6.65z M3.627,6.65c0-1.668,1.352-3.021,3.019-3.021
		c1.666,0,3.018,1.352,3.018,3.021c0,1.651-1.323,2.991-2.967,3.019H6.594C4.952,9.641,3.627,8.301,3.627,6.65z"/>
</g>
<g>
</g>
<g>
</g>
<g>
</g>
<g>
</g>
<g>
</g>
<g>
</g>
</svg>
