<?xml version="1.0" encoding="utf-8"?>
<!-- Generator: Adobe Illustrator 16.0.0, SVG Export Plug-In . SVG Version: 6.00 Build 0)  -->
<!DOCTYPE svg PUBLIC "-//W3C//DTD SVG 1.1//EN" "http://www.w3.org/Graphics/SVG/1.1/DTD/svg11.dtd">
<svg version="1.1" id="Layer_1" xmlns="http://www.w3.org/2000/svg" xmlns:xlink="http://www.w3.org/1999/xlink" x="0px" y="0px"
	 width="20px" height="15.411px" viewBox="0 0 20 15.411" enable-background="new 0 0 20 15.411" xml:space="preserve">
<g>
	<path fill="#FFFFFF" d="M18.764,3.032h-4.202v-1.77C14.562,0.565,13.996,0,13.298,0h-6.57C6.03,0,5.465,0.565,5.465,1.263v1.77
		H1.264C0.566,3.032,0,3.598,0,4.295v9.855c0,0.698,0.566,1.264,1.264,1.264h17.5c0.698,0,1.264-0.565,1.264-1.264V4.295
		C20.027,3.598,19.462,3.032,18.764,3.032z M6.879,2.235c0-0.52,0.168-0.94,0.688-0.94h4.893c0.519,0,0.688,0.421,0.688,0.94v0.797
		H6.879V2.235z"/>
</g>
<g>
</g>
<g>
</g>
<g>
</g>
<g>
</g>
<g>
</g>
<g>
</g>
</svg>
