<?xml version="1.0" encoding="utf-8"?>
<!-- Generator: Adobe Illustrator 16.0.0, SVG Export Plug-In . SVG Version: 6.00 Build 0)  -->
<!DOCTYPE svg PUBLIC "-//W3C//DTD SVG 1.1//EN" "http://www.w3.org/Graphics/SVG/1.1/DTD/svg11.dtd">
<svg version="1.1" id="Layer_1" xmlns="http://www.w3.org/2000/svg" xmlns:xlink="http://www.w3.org/1999/xlink" x="0px" y="0px"
	 width="10.292px" height="20px" viewBox="0 0 10.292 20" enable-background="new 0 0 10.292 20" xml:space="preserve">
<g id="g14">
	<path id="path20" fill="#FFFFFF" d="M2.827,3.392c0,0-0.377,0.871-0.743,1.714C1.708,4.424,1.332,3.74,1.332,3.74
		C1.143,3.396,0.711,3.271,0.367,3.46C0.024,3.649-0.101,4.081,0.088,4.424l1.45,2.634c0.131,0.237,0.385,0.379,0.655,0.367
		c0.271-0.012,0.51-0.178,0.618-0.427l1.442-3.349C4.125,3.337,4.12,3.179,3.76,3.023C3.4,2.867,2.982,3.032,2.827,3.392
		 M6.465,3.023C6.105,3.179,6.063,3.337,5.936,3.649l1.479,3.35c0.106,0.248,0.347,0.414,0.618,0.426
		c0.271,0.013,0.523-0.129,0.654-0.366l1.45-2.634c0.189-0.343,0.063-0.775-0.279-0.963C9.514,3.272,9.083,3.397,8.895,3.74
		c0,0-0.378,0.684-0.752,1.366C7.776,4.263,7.398,3.393,7.398,3.393C7.243,3.033,6.825,2.867,6.465,3.023 M3.108,6.232L3.074,18.869
		c0,0.516,0.418,0.935,0.935,0.935c0.516,0,0.934-0.419,0.934-0.935v-7.391c0-0.088,0.07-0.157,0.156-0.157
		c0.087,0,0.156,0.069,0.156,0.157v7.391c0,0.516,0.418,0.935,0.935,0.935c0.516,0,0.935-0.419,0.935-0.935V6.232L5.936,3.649H4.253
		 M5.104,0c0.9,0,1.63,0.729,1.63,1.629c0,0.9-0.729,1.629-1.63,1.629c-0.899,0-1.628-0.729-1.628-1.629
		C3.475,0.729,4.205,0,5.104,0"/>
</g>
</svg>
