<?xml version="1.0" encoding="utf-8"?>
<!-- Generator: Adobe Illustrator 16.0.0, SVG Export Plug-In . SVG Version: 6.00 Build 0)  -->
<!DOCTYPE svg PUBLIC "-//W3C//DTD SVG 1.1//EN" "http://www.w3.org/Graphics/SVG/1.1/DTD/svg11.dtd">
<svg version="1.1" id="Layer_1" xmlns="http://www.w3.org/2000/svg" xmlns:xlink="http://www.w3.org/1999/xlink" x="0px" y="0px"
	 width="200px" height="200px" viewBox="0 0 200 200" enable-background="new 0 0 200 200" xml:space="preserve">
<image overflow="visible" width="865" height="721" xlink:href="../../../Desktop/Screen Shot 2013-12-21 at 20.45.17.png"  transform="matrix(0.2254 0 0 0.2254 278.334 19.5645)">
</image>
<g>
	<path d="M320.886-110.146v-1.606h1.64v5.398h-1.64v-1.606h-5.253v1.606h-1.641v-5.398h1.641v1.606H320.886z"/>
	<path d="M313.992-113.171v-2.432l2.979-1.082c0.992-0.356,2.131-0.535,2.131-0.535v-0.134h-5.109v-1.862h8.533v2.432l-2.979,1.082
		c-0.992,0.356-2.13,0.535-2.13,0.535v0.134h5.108v1.862H313.992z"/>
	<path d="M322.525-124.806v2.956l-8.533,1.997v-2.265l5.209-1.049c0.67-0.145,1.305-0.145,1.305-0.145v-0.146
		c0,0-0.646,0-1.305-0.134l-5.209-1.06v-2.164L322.525-124.806z"/>
	<path d="M320.886-131.565v-1.606h1.64v5.398h-1.64v-1.605h-5.253v1.605h-1.641v-5.398h1.641v1.606H320.886z"/>
	<path d="M315.699-140.646v1.93h6.826v2.197h-6.826v1.941h-1.707v-6.068H315.699z"/>
	<path d="M313.992-142.119v-5.365h1.695v3.18h1.763v-3.146h1.685v3.146h1.707v-3.291h1.684v5.477H313.992z"/>
	<path d="M313.992-148.868v-2.432c0-2.532,1.339-3.703,4.361-3.703c2.633,0,4.172,1.171,4.172,3.715v2.42H313.992z M320.875-151.222
		c0-0.87-0.603-1.45-2.543-1.45c-2.109,0-2.711,0.603-2.711,1.45v0.167h5.254V-151.222z"/>
</g>
<g>
	<path d="M335.136-110.646v-1.606h1.64v5.398h-1.64v-1.606h-5.253v1.606h-1.641v-5.398h1.641v1.606H335.136z"/>
	<path d="M328.242-113.67v-2.432l2.979-1.082c0.992-0.356,2.131-0.535,2.131-0.535v-0.134h-5.109v-1.862h8.533v2.432l-2.979,1.082
		c-0.992,0.356-2.13,0.535-2.13,0.535v0.134h5.108v1.862H328.242z"/>
	<path d="M336.775-125.305v2.955l-8.533,1.998v-2.266l5.209-1.048c0.67-0.146,1.305-0.146,1.305-0.146v-0.145
		c0,0-0.646,0-1.305-0.134l-5.209-1.061v-2.163L336.775-125.305z"/>
	<path d="M335.136-132.066v-1.605h1.64v5.398h-1.64v-1.606h-5.253v1.606h-1.641v-5.398h1.641v1.605H335.136z"/>
	<path d="M329.949-141.146v1.93h6.826v2.198h-6.826v1.94h-1.707v-6.068H329.949z"/>
	<path d="M328.242-142.619v-5.365h1.695v3.179h1.763v-3.146h1.685v3.146h1.707v-3.29h1.684v5.477H328.242z"/>
	<path d="M328.242-149.368v-2.432c0-2.532,1.339-3.703,4.361-3.703c2.633,0,4.172,1.171,4.172,3.714v2.421H328.242z
		 M335.125-151.721c0-0.87-0.603-1.45-2.543-1.45c-2.109,0-2.711,0.602-2.711,1.45v0.167h5.254V-151.721z"/>
</g>
<g opacity="0.2">
	<path d="M159.331,44.285c-5.565-5.566-8.662-5.488-10.902-3.248l-1.004,1.001l13.709,13.709l1.002-1.002
		C164.433,52.449,164.456,49.407,159.331,44.285z"/>
	<path d="M155.042,3.959L4.249,154.753l42.649,42.648L197.69,46.609L155.042,3.959z M48.42,177.601l-4.57-4.569l4.57-4.571
		l-13.709-13.707l-4.569,4.569l-4.57-4.569l13.709-13.709l4.569,4.569l-4.569,4.57l13.708,13.707l4.57-4.568l4.569,4.568
		L48.42,177.601z M75.795,150.224l-10.829-5.115c-3.563-1.681-7.148-4.323-7.148-4.323l-0.259,0.259l13.708,13.709l-4.569,4.569
		l-22.848-22.848l5.979-5.979l10.828,5.116c3.562,1.681,7.149,4.323,7.149,4.323l0.416-0.415l-13.709-13.709l4.57-4.568
		L81.93,144.09L75.795,150.224z M89.17,136.852l-28.123-17.573l5.98-5.98l17.059,11.525c2.151,1.382,4.37,3.602,4.37,3.602
		l0.382-0.383c0,0-2.251-2.251-3.633-4.338l-11.493-17.092l5.71-5.711l17.547,28.147L89.17,136.852z M104.777,121.243l-4.569-4.569
		l4.569-4.569L91.068,98.396l-4.569,4.569l-4.57-4.569l13.708-13.709l4.57,4.571l-3.046,3.046l13.709,13.707l3.046-3.046
		l4.569,4.569L104.777,121.243z M127.624,98.396l-18.278-18.278l-4.568,4.569l-4.569-4.569l15.231-15.231l4.569,4.568l-4.569,4.569
		l18.278,18.28L127.624,98.396z M142.855,83.164l-22.847-22.848l13.709-13.707l4.569,4.569l-7.615,7.615l4.569,4.568l7.614-7.614
		l4.569,4.568l-7.615,7.615l4.569,4.569l7.617-7.615l4.569,4.568L142.855,83.164z M161.134,64.886l-22.847-22.847l5.776-5.779
		c6.686-6.683,13.472-6.079,21.448,1.897c6.95,6.95,8.084,14.267,1.371,20.979L161.134,64.886z"/>
</g>
<g>
</g>
<g>
</g>
<g>
</g>
<g>
</g>
<g>
</g>
<g>
</g>
<g>
</g>
<g>
</g>
<g>
</g>
<g>
</g>
<g>
</g>
<g>
</g>
<g>
</g>
<g>
</g>
<g>
</g>
</svg>
