<?xml version="1.0" encoding="utf-8"?>
<!-- Generator: Adobe Illustrator 16.0.0, SVG Export Plug-In . SVG Version: 6.00 Build 0)  -->
<!DOCTYPE svg PUBLIC "-//W3C//DTD SVG 1.1//EN" "http://www.w3.org/Graphics/SVG/1.1/DTD/svg11.dtd">
<svg version="1.1" id="Layer_1" xmlns="http://www.w3.org/2000/svg" xmlns:xlink="http://www.w3.org/1999/xlink" x="0px" y="0px"
	 width="101.164px" height="67.5px" viewBox="0 0 101.164 67.5" enable-background="new 0 0 101.164 67.5" xml:space="preserve">
<g id="Layer_1_1_">
	<g>
		<g>
			<path fill="none" stroke="#FFFFFF" stroke-width="0.8115" stroke-linecap="round" stroke-miterlimit="10" d="M49.848,64.604
				c1.585-6.189-0.1-19.02,2.234-36.354"/>
			<g>
				<path fill="#FFFFFF" d="M55.595,60.613c-0.199-0.126-0.508-0.115-0.689,0.021l-5.033,3.813l-2.868-4.767
					c-0.104-0.171-0.39-0.252-0.64-0.182c-0.248,0.073-0.364,0.271-0.263,0.441l3.163,5.255c0.064,0.106,0.203,0.183,0.367,0.202
					c0.164,0.021,0.332-0.021,0.443-0.104l5.55-4.204c0.064-0.049,0.104-0.107,0.119-0.169
					C55.775,60.811,55.722,60.694,55.595,60.613z"/>
			</g>
		</g>
	</g>
	<g>
		<path fill="#FFFFFF" d="M1.094,19.399c0.183,0.021,0.374,0.054,0.573,0.097s0.342,0.064,0.428,0.064
			c0.183,0,0.387-0.054,0.613-0.161c0.774-0.377,1.388-1.055,1.839-2.034c0.398-0.861,0.597-1.759,0.597-2.695
			c0-0.7,0.081-1.543,0.242-2.534c0.086-0.505,0.172-1.011,0.258-1.517c0.01-0.118,0.04-0.301,0.088-0.548
			c0.049-0.248,0.073-0.446,0.073-0.597V8.651h0.162L6.129,8.49L5.968,8.329H5.806c0-0.215,0.062-0.395,0.186-0.541
			C6.115,7.643,6.258,7.57,6.419,7.57c0.14,0,0.261,0.064,0.363,0.194c0.102,0.129,0.153,0.317,0.153,0.564c0,0.065,0,0.172,0,0.323
			c0,0.366-0.037,0.775-0.111,1.227c-0.126,0.732-0.253,1.463-0.38,2.195c-0.105,0.872-0.211,1.737-0.316,2.598
			c0,0.248-0.038,0.457-0.113,0.629c-0.129,0.28-0.253,0.559-0.371,0.839C5.473,17,5.209,17.774,4.854,18.463
			c-0.462,0.904-1.017,1.49-1.662,1.759c-0.463,0.205-0.898,0.307-1.307,0.307c-0.387,0-0.688-0.102-0.904-0.307
			c-0.258-0.248-0.387-0.629-0.387-1.146c0.064,0.054,0.159,0.121,0.282,0.202C1,19.359,1.073,19.399,1.094,19.399z M7.436,4.419
			c-0.075,0-0.167-0.081-0.274-0.242C7.054,4.016,6.976,3.868,6.928,3.733c-0.049-0.134-0.092-0.29-0.129-0.467
			C6.761,3.088,6.742,2.902,6.742,2.709c0-0.215,0.024-0.379,0.073-0.492c0.048-0.113,0.134-0.191,0.258-0.234
			C7.197,1.94,7.291,1.918,7.355,1.918c0.172,0,0.293,0.083,0.363,0.25c0.07,0.167,0.104,0.39,0.104,0.67
			c0,0.248-0.035,0.551-0.104,0.912c-0.07,0.361-0.111,0.584-0.121,0.67L7.436,4.419L7.436,4.419z"/>
		<path fill="#FFFFFF" d="M15.585,5.23c0.291,0.118,0.495,0.325,0.613,0.621c0.118,0.296,0.178,0.648,0.178,1.057
			c0,0.248-0.011,0.441-0.032,0.581c-0.022,0.14-0.06,0.312-0.113,0.516c-0.355,1.237-1.119,2.464-2.292,3.68
			c-1.312,1.355-2.561,2.033-3.744,2.033c-0.151,0-0.258-0.005-0.323-0.016c-0.592-0.064-1.014-0.266-1.267-0.605
			c-0.253-0.339-0.379-0.777-0.379-1.315c0-0.505,0.103-1.097,0.307-1.775c0.021-0.054,0.199-0.56,0.533-1.517
			C9.27,7.909,9.518,7.428,9.808,7.046c0.29-0.382,0.694-0.767,1.21-1.154c0.28-0.215,0.629-0.36,1.049-0.436
			c0.42-0.075,0.785-0.142,1.098-0.202c0.312-0.059,0.573-0.105,0.783-0.137c0.209-0.032,0.433-0.048,0.669-0.048
			C14.983,5.069,15.306,5.123,15.585,5.23z M10.857,7.845c-0.409,0.527-0.786,1.103-1.13,1.727
			c-0.495,0.904-0.742,1.636-0.742,2.195c0,0.355,0.105,0.632,0.314,0.831c0.21,0.199,0.562,0.298,1.057,0.298
			c0.85,0,1.71-0.409,2.582-1.226c0.646-0.603,1.253-1.388,1.824-2.356c0.279-0.462,0.489-0.86,0.629-1.194
			c0.193-0.452,0.291-0.845,0.291-1.178S15.575,6.35,15.36,6.167c-0.215-0.183-0.576-0.274-1.082-0.274h-0.209
			c-0.581,0-1.173,0.193-1.775,0.581C11.755,6.817,11.277,7.274,10.857,7.845z"/>
		<path fill="#FFFFFF" d="M18.668,6.538V6.86c0.032,0.097,0.054,0.221,0.064,0.371c0.01,0.151,0.016,0.237,0.016,0.258
			c0,0.28-0.046,0.6-0.137,0.96c-0.092,0.361-0.18,0.702-0.266,1.025c-0.043,0.183-0.081,0.444-0.113,0.783
			c-0.032,0.339-0.048,0.788-0.048,1.347v0.307c0,0.108,0.016,0.242,0.048,0.404c0.075,0.387,0.113,0.635,0.113,0.742
			c0,0.161-0.035,0.296-0.105,0.403c-0.07,0.108-0.197,0.188-0.379,0.242c-0.107,0.021-0.177,0.032-0.21,0.032
			c-0.204,0-0.347-0.094-0.427-0.282c-0.081-0.188-0.121-0.46-0.121-0.815c0-0.269,0.026-0.576,0.081-0.92
			c0.054-0.344,0.113-0.71,0.178-1.098c0.086-0.828,0.193-1.646,0.323-2.453c0.032-0.473,0.07-0.947,0.113-1.42
			c0.097-0.204,0.333-0.328,0.71-0.371L18.668,6.538z M18.506,4.084V3.923c-0.14-0.194-0.21-0.5-0.21-0.92
			c0-0.333,0.057-0.6,0.169-0.799c0.113-0.199,0.288-0.277,0.525-0.234c0.161,0.032,0.271,0.102,0.331,0.209
			C19.38,2.288,19.41,2.428,19.41,2.6c0,0.107-0.014,0.231-0.041,0.371c-0.027,0.14-0.046,0.242-0.056,0.307
			c-0.043,0.301-0.1,0.503-0.169,0.605c-0.07,0.103-0.229,0.229-0.476,0.379L18.506,4.084z"/>
		<path fill="#FFFFFF" d="M21.589,10.958c0.269-0.227,0.543-0.561,0.823-1.004c0.15-0.237,0.366-0.615,0.646-1.133
			c0.538-0.972,0.931-1.636,1.178-1.992c0.591-0.853,1.124-1.333,1.598-1.441c0.215,0.615,0.331,1.367,0.347,2.257
			c0.016,0.89,0.03,1.74,0.041,2.549c0.064,0.928,0.258,1.727,0.581,2.396c0.14-0.067,0.277-0.145,0.411-0.233
			c0.135-0.088,0.272-0.183,0.412-0.283c0.032,0.163,0.048,0.315,0.048,0.457c0,0.337-0.094,0.609-0.282,0.815
			c-0.188,0.207-0.412,0.31-0.67,0.31c-0.236,0-0.457-0.105-0.662-0.316c-0.204-0.21-0.331-0.483-0.379-0.817
			c-0.048-0.335-0.121-0.982-0.218-1.943c-0.14-1.382-0.345-2.348-0.613-2.898c-0.474,0.603-0.936,1.26-1.388,1.97
			c-0.312,0.495-0.721,1.194-1.226,2.099c-0.291,0.571-0.576,1.142-0.855,1.712c-0.387,0.678-0.807,1.082-1.259,1.211
			c-0.075-0.172-0.129-0.353-0.161-0.541c-0.033-0.188-0.049-0.379-0.049-0.573c0-0.28,0.038-0.629,0.113-1.049
			c0.172-0.957,0.258-1.586,0.258-1.888c0-1.205,0.048-2.087,0.145-2.646c0.194-1.108,0.581-1.802,1.162-2.082
			c0.01,0.086,0.019,0.17,0.024,0.251c0.005,0.081,0.008,0.175,0.008,0.283c0,0.356-0.048,0.826-0.146,1.408
			c-0.215,1.295-0.323,2.115-0.323,2.46c0,0.356,0.038,0.686,0.113,0.987L21.589,10.958z"/>
		<path fill="#FFFFFF" d="M43.791,6.053l0.158,0.162l0.475,0.645c0.032,0.193-0.064,0.597-0.291,1.209
			c-0.129,0.344-0.193,0.592-0.193,0.742c-0.049,0.452-0.088,0.85-0.118,1.194c-0.03,0.344-0.044,0.645-0.044,0.903
			c0,0.226,0,0.398,0,0.516c0,0.291,0.048,0.736,0.146,1.338c0.054,0.333,0.081,0.576,0.081,0.726c0,0.344-0.075,0.683-0.226,1.016
			c-0.506-0.44-0.804-1.182-0.896-2.225c-0.091-1.042-0.175-2.032-0.25-2.967c-0.387,0.484-0.775,0.968-1.162,1.453
			c-0.474,0.57-0.909,1.014-1.307,1.332c-0.398,0.318-0.796,0.637-1.194,0.96c-0.527,0.377-0.995,0.565-1.404,0.565
			c-0.14,0-0.301-0.027-0.484-0.081c-0.291-0.097-0.495-0.258-0.613-0.484c-0.119-0.226-0.178-0.5-0.178-0.823
			c0-0.269,0.048-0.646,0.146-1.129c0.097-0.484,0.15-0.758,0.161-0.823c0.054-0.774,0.107-1.549,0.162-2.324
			c0.14-1.022,0.468-1.603,0.984-1.743c0.075,0.312,0.113,0.662,0.113,1.049c0,0.387-0.135,1.307-0.403,2.76
			c-0.129,0.699-0.194,1.275-0.194,1.727c0,0.301,0.041,0.514,0.121,0.637c0.081,0.124,0.203,0.186,0.364,0.186
			c0.216,0,0.518-0.124,0.906-0.371c0.291-0.204,0.587-0.409,0.89-0.613c0.917-0.581,1.736-1.393,2.459-2.437
			c0.572-0.829,1.111-1.861,1.618-3.099L43.791,6.053L43.791,6.053z"/>
		<path fill="#FFFFFF" d="M49.797,10.943h-0.162c-0.151-0.161-0.355-0.301-0.613-0.419c-0.172-0.075-0.403-0.156-0.694-0.242
			c-1.011-0.258-1.673-0.457-1.985-0.597c-0.818-0.376-1.227-0.85-1.227-1.42c0-0.193,0.038-0.387,0.113-0.581
			c0.236-0.57,0.801-1.027,1.694-1.372c0.731-0.28,1.468-0.419,2.211-0.419c0.452-0.054,0.903-0.107,1.355-0.162
			c0.291,0,0.519,0.06,0.687,0.178c0.166,0.119,0.25,0.328,0.25,0.629c0,0.226-0.038,0.385-0.112,0.476
			c-0.076,0.091-0.179,0.137-0.307,0.137c-0.076,0-0.216-0.024-0.42-0.073c-0.205-0.048-0.36-0.073-0.468-0.073l-0.162,0.146h-0.161
			c-0.183,0-0.398-0.024-0.646-0.073c-0.248-0.048-0.441-0.073-0.581-0.073c-0.108,0-0.266,0.014-0.476,0.041
			c-0.21,0.027-0.474,0.107-0.791,0.242c-0.317,0.134-0.573,0.32-0.766,0.557c-0.14,0.172-0.21,0.333-0.21,0.484
			c0,0.388,0.419,0.743,1.259,1.065c0.064,0.021,0.694,0.209,1.888,0.564c0.473,0.162,0.823,0.318,1.049,0.468
			c0.312,0.215,0.468,0.452,0.468,0.71c0,0.269-0.186,0.581-0.557,0.936s-0.89,0.699-1.557,1.033
			c-0.775,0.387-1.437,0.581-1.985,0.581c-0.301,0-0.554-0.062-0.759-0.186s-0.344-0.325-0.419-0.605
			c0.312-0.032,0.637-0.07,0.977-0.113c0.339-0.043,0.669-0.113,0.992-0.21c0.15-0.053,0.312-0.124,0.484-0.209
			c0.269-0.15,0.538-0.301,0.807-0.452c0.248-0.097,0.43-0.193,0.549-0.29c0.118-0.097,0.263-0.269,0.436-0.517L49.797,10.943z"/>
		<path fill="#FFFFFF" d="M63.384,0.998c0,0.484-0.163,0.936-0.491,1.356c-0.328,0.419-0.653,0.833-0.978,1.242
			c-0.709,1.033-1.414,2.066-2.113,3.099c-0.344,0.753-0.731,1.689-1.161,2.808c-0.237,0.624-0.593,1.6-1.065,2.929
			c-0.473,1.329-0.816,2.294-1.033,2.897c0-2.367,0.651-4.955,1.953-7.762c1.162-2.518,2.631-4.761,4.405-6.729
			c0.032,0.021,0.103,0.051,0.21,0.089C63.218,0.965,63.31,0.988,63.384,0.998z"/>
		<path fill="#FFFFFF" d="M73.438,6.374c-0.14,0.441-0.474,1.044-1,1.808c-0.688,1.012-1.114,1.646-1.274,1.905
			c-0.432,0.721-0.646,1.318-0.646,1.792v0.193c0,0.667,0.307,1.173,0.92,1.518c0.355,0.194,0.968,0.393,1.84,0.597
			c-0.291,0.323-0.619,0.484-0.984,0.484c-0.506,0-1.125-0.339-1.855-1.017c-0.43-0.441-0.73-0.748-0.902-0.92
			c-0.162,0.301-0.285,0.506-0.371,0.613c-0.185,0.237-0.367,0.355-0.55,0.355c-0.118,0-0.253-0.059-0.403-0.178
			c-0.149-0.118-0.226-0.258-0.226-0.419c0-0.119,0.06-0.258,0.177-0.42c0.172-0.193,0.303-0.339,0.389-0.436
			c0.344-0.387,0.574-0.817,0.693-1.291c0.086-0.344,0.129-0.812,0.129-1.404V8.989c0-1.754,0.248-3.304,0.742-4.649
			c0.604-1.646,1.549-2.874,2.84-3.681c0.432,0.183,0.748,0.484,0.953,0.904c0.172,0.366,0.258,0.823,0.258,1.372
			c0,0.527-0.086,1.141-0.258,1.84C73.81,5.174,73.653,5.707,73.438,6.374z M72.955,1.966L72.632,2.29
			c-0.26,0.15-0.51,0.387-0.752,0.71c-0.24,0.323-0.426,0.63-0.557,0.92c-0.494,1.141-0.847,2.102-1.057,2.882
			c-0.21,0.78-0.314,1.439-0.314,1.978c0,0.517,0.075,0.963,0.227,1.34c0.807-0.807,1.527-1.792,2.162-2.955
			c0.752-1.378,1.13-2.605,1.13-3.681c0-0.57-0.118-1.077-0.354-1.518H72.955z"/>
		<path fill="#FFFFFF" d="M81.265,5.23c0.291,0.118,0.494,0.325,0.613,0.621c0.117,0.296,0.178,0.648,0.178,1.057
			c0,0.248-0.012,0.441-0.032,0.581c-0.021,0.14-0.06,0.312-0.112,0.516c-0.354,1.237-1.119,2.464-2.291,3.68
			c-1.313,1.355-2.562,2.033-3.744,2.033c-0.151,0-0.26-0.005-0.323-0.016c-0.593-0.064-1.015-0.266-1.267-0.605
			c-0.254-0.339-0.379-0.777-0.379-1.315c0-0.505,0.102-1.097,0.307-1.775c0.021-0.054,0.197-0.56,0.531-1.517
			c0.205-0.581,0.453-1.062,0.742-1.444c0.291-0.382,0.694-0.767,1.211-1.154c0.279-0.215,0.629-0.36,1.049-0.436
			c0.42-0.075,0.785-0.142,1.098-0.202c0.312-0.059,0.572-0.105,0.783-0.137c0.209-0.032,0.433-0.048,0.67-0.048
			C80.662,5.069,80.985,5.123,81.265,5.23z M76.537,7.845c-0.41,0.527-0.785,1.103-1.129,1.727
			c-0.496,0.904-0.744,1.636-0.744,2.195c0,0.355,0.105,0.632,0.315,0.831c0.209,0.199,0.562,0.298,1.058,0.298
			c0.85,0,1.711-0.409,2.582-1.226c0.646-0.603,1.252-1.388,1.822-2.356c0.28-0.462,0.49-0.86,0.63-1.194
			c0.193-0.452,0.29-0.845,0.29-1.178s-0.107-0.591-0.322-0.774s-0.576-0.274-1.08-0.274h-0.211c-0.58,0-1.172,0.193-1.774,0.581
			C77.435,6.817,76.957,7.274,76.537,7.845z"/>
		<path fill="#FFFFFF" d="M87.285,11.427c-0.097,0.054-0.216,0.205-0.354,0.452c-0.173,0.323-0.274,0.5-0.308,0.533
			c-0.289,0.323-0.709,0.629-1.259,0.92c-0.548,0.291-1.06,0.436-1.532,0.436c-0.345,0-0.627-0.091-0.848-0.274
			c-0.221-0.183-0.363-0.489-0.428-0.92c-0.012-0.064-0.018-0.161-0.018-0.29c0-0.721,0.432-1.603,1.291-2.647
			c0.561-0.634,0.947-1.07,1.162-1.307c0.323-0.355,0.678-0.678,1.065-0.968c0.538-0.398,0.968-0.597,1.291-0.597
			c0.204,0,0.368,0.07,0.491,0.21s0.207,0.377,0.25,0.71c-0.871,0.194-1.713,0.64-2.524,1.339c-0.812,0.7-1.435,1.501-1.864,2.405
			c-0.031,0.064-0.129,0.221-0.289,0.468c-0.119,0.183-0.179,0.334-0.179,0.452c0,0.129,0.043,0.258,0.129,0.387
			c0.162,0.237,0.377,0.355,0.646,0.355c0.281,0,0.646-0.15,1.099-0.452c0.183-0.129,0.365-0.258,0.549-0.388
			c0.397-0.258,0.761-0.551,1.089-0.879s0.616-0.691,0.863-1.089c0.162-0.269,0.25-0.497,0.268-0.686
			c0.017-0.188,0.035-0.39,0.057-0.605c0.043-0.247,0.186-0.502,0.428-0.766s0.465-0.396,0.67-0.396
			c0.247,0,0.371,0.221,0.371,0.662c0,0.409-0.113,0.979-0.339,1.71c-0.271,0.872-0.427,1.442-0.47,1.71
			c-0.149,0.904-0.264,1.63-0.338,2.178c-0.107,0.817-0.162,1.554-0.162,2.21c0,0.269,0.012,0.712,0.033,1.331
			c0.021,0.619,0.031,0.943,0.031,0.976c0,0.526-0.023,0.965-0.072,1.314s-0.152,0.717-0.313,1.104
			c-0.312-0.107-0.533-0.28-0.662-0.516c-0.129-0.237-0.192-0.527-0.192-0.871c0-0.193,0.021-0.446,0.063-0.758
			c0.097-0.699,0.146-1.124,0.146-1.274c0-0.495,0.064-1.14,0.193-1.936c0.279-1.72,0.42-2.817,0.42-3.291
			c0-0.355-0.009-0.594-0.023-0.718c-0.018-0.124-0.053-0.309-0.105-0.557L87.285,11.427z"/>
		<path fill="#FFFFFF" d="M91.835,6.538V6.86c0.031,0.097,0.054,0.221,0.063,0.371c0.011,0.151,0.017,0.237,0.017,0.258
			c0,0.28-0.045,0.6-0.138,0.96c-0.091,0.361-0.18,0.702-0.266,1.025c-0.044,0.183-0.081,0.444-0.113,0.783
			c-0.032,0.339-0.048,0.788-0.048,1.347v0.307c0,0.108,0.016,0.242,0.048,0.404c0.075,0.387,0.113,0.635,0.113,0.742
			c0,0.161-0.035,0.296-0.104,0.403c-0.07,0.108-0.197,0.188-0.38,0.242c-0.106,0.021-0.178,0.032-0.21,0.032
			c-0.204,0-0.347-0.094-0.428-0.282c-0.08-0.188-0.121-0.46-0.121-0.815c0-0.269,0.027-0.576,0.081-0.92
			c0.054-0.344,0.112-0.71,0.178-1.098c0.086-0.828,0.193-1.646,0.322-2.453c0.032-0.473,0.069-0.947,0.112-1.42
			c0.098-0.204,0.334-0.328,0.711-0.371L91.835,6.538z M91.673,4.084V3.923c-0.139-0.194-0.209-0.5-0.209-0.92
			c0-0.333,0.057-0.6,0.17-0.799c0.111-0.199,0.287-0.277,0.523-0.234c0.161,0.032,0.271,0.102,0.332,0.209
			c0.059,0.108,0.088,0.248,0.088,0.42c0,0.107-0.015,0.231-0.041,0.371c-0.027,0.14-0.045,0.242-0.057,0.307
			c-0.043,0.301-0.1,0.503-0.169,0.605c-0.069,0.103-0.229,0.229-0.478,0.379L91.673,4.084z"/>
		<path fill="#FFFFFF" d="M94.755,10.958c0.271-0.227,0.543-0.561,0.824-1.004c0.149-0.237,0.364-0.615,0.646-1.133
			c0.538-0.972,0.931-1.636,1.178-1.992C97.994,5.976,98.526,5.496,99,5.388c0.217,0.615,0.332,1.367,0.349,2.257
			c0.016,0.89,0.028,1.74,0.04,2.549c0.064,0.928,0.258,1.727,0.58,2.396c0.141-0.067,0.277-0.145,0.412-0.233
			s0.271-0.183,0.412-0.283c0.031,0.163,0.047,0.315,0.047,0.457c0,0.337-0.094,0.609-0.281,0.815
			c-0.188,0.206-0.411,0.31-0.67,0.31c-0.236,0-0.457-0.105-0.661-0.316c-0.205-0.21-0.331-0.483-0.38-0.817
			c-0.049-0.335-0.121-0.982-0.219-1.943c-0.139-1.382-0.344-2.348-0.612-2.898c-0.474,0.603-0.937,1.26-1.388,1.97
			c-0.312,0.495-0.721,1.194-1.228,2.099c-0.29,0.571-0.575,1.142-0.854,1.712c-0.387,0.678-0.807,1.082-1.258,1.211
			c-0.076-0.172-0.131-0.353-0.162-0.541c-0.033-0.188-0.049-0.379-0.049-0.573c0-0.28,0.037-0.629,0.112-1.049
			c0.172-0.957,0.259-1.586,0.259-1.888c0-1.205,0.049-2.087,0.145-2.646c0.195-1.108,0.582-1.802,1.162-2.082
			c0.012,0.086,0.02,0.17,0.024,0.251s0.009,0.175,0.009,0.283c0,0.356-0.049,0.826-0.146,1.408
			c-0.216,1.295-0.323,2.115-0.323,2.46c0,0.356,0.038,0.686,0.113,0.987L94.755,10.958z"/>
	</g>
</g>
<g id="Layer_2">
</g>
</svg>
