<?xml version="1.0" encoding="utf-8"?>
<!-- Generator: Adobe Illustrator 16.0.0, SVG Export Plug-In . SVG Version: 6.00 Build 0)  -->
<!DOCTYPE svg PUBLIC "-//W3C//DTD SVG 1.1//EN" "http://www.w3.org/Graphics/SVG/1.1/DTD/svg11.dtd">
<svg version="1.1" id="Layer_1" xmlns="http://www.w3.org/2000/svg" xmlns:xlink="http://www.w3.org/1999/xlink" x="0px" y="0px"
	 width="190.333px" height="63px" viewBox="0 0 190.333 63" enable-background="new 0 0 190.333 63" xml:space="preserve">
<g id="Layer_2" display="none">
	<rect x="-116.333" y="-68.667" display="inline" fill="#2081B7" width="490" height="191"/>
</g>
<g id="New_Symbol">
	<g>
		<g enable-background="new    ">
			<path fill="#FFFFFF" d="M8.104,62.023v-0.684h2.363v-8.084H8.451v-0.684h2.842v8.768h2.399v0.684H8.104z"/>
			<path fill="#FFFFFF" d="M15.652,58.88c0-2.016,1.007-3.299,2.866-3.299c1.883,0,2.866,1.283,2.866,3.299
				s-1.007,3.299-2.866,3.299C16.635,62.179,15.652,60.882,15.652,58.88z M16.491,58.88c0,1.607,0.647,2.639,2.027,2.639
				s2.027-1.02,2.027-2.639s-0.671-2.639-2.027-2.639S16.491,57.261,16.491,58.88z"/>
			<path fill="#FFFFFF" d="M28.117,57.49c-0.097-0.6-0.648-1.236-1.691-1.236c-1.296,0-2.027,0.973-2.027,2.604
				c0,1.654,0.576,2.65,1.991,2.65c1.163,0,1.619-0.732,1.751-1.416h0.84c-0.216,1.355-1.248,2.088-2.603,2.088
				c-1.907,0-2.843-1.248-2.854-3.264c0-1.955,1.056-3.346,2.914-3.346c1.163,0,2.314,0.527,2.519,1.92H28.117z"/>
			<path fill="#FFFFFF" d="M33.17,62.119c-1.223,0-2.015-0.66-2.015-1.775c0-0.719,0.336-1.211,0.888-1.512
				c0.636-0.348,1.679-0.467,3.262-0.551v-0.264c0-1.115-0.312-1.764-1.547-1.764c-1.056,0-1.475,0.576-1.547,1.176h-0.804
				c0.096-0.984,0.863-1.836,2.339-1.848c1.787,0,2.351,0.996,2.351,2.387v2.807c0,0.432,0.132,0.576,0.527,0.576h0.229v0.672
				h-0.288c-0.924,0-1.199-0.385-1.224-1.211h-0.036C34.945,61.638,34.178,62.119,33.17,62.119z M33.314,61.447
				c0.947,0,1.979-0.707,1.979-2.254v-0.266c-1.619,0.098-2.446,0.205-2.842,0.48c-0.301,0.217-0.456,0.504-0.456,0.9
				C31.995,61.064,32.522,61.447,33.314,61.447z"/>
			<path fill="#FFFFFF" d="M38.823,62.023v-0.684h2.362v-8.084h-2.015v-0.684h2.843v8.768h2.398v0.684H38.823z"/>
			<path fill="#FFFFFF" d="M58.597,62.023v-4.018c0-0.504-0.048-0.947-0.275-1.248c-0.24-0.324-0.611-0.467-1.128-0.467
				c-1.318,0-1.895,0.947-1.895,2.025v3.707h-0.827v-9.451h0.827v4.27h0.024c0.312-0.695,0.923-1.26,2.051-1.26
				c1.367,0,2.062,0.744,2.062,2.23v4.211H58.597z"/>
			<path fill="#FFFFFF" d="M63.89,62.119c-1.223,0-2.015-0.66-2.015-1.775c0-0.719,0.336-1.211,0.888-1.512
				c0.636-0.348,1.679-0.467,3.262-0.551v-0.264c0-1.115-0.312-1.764-1.547-1.764c-1.056,0-1.475,0.576-1.547,1.176h-0.804
				c0.096-0.984,0.863-1.836,2.339-1.848c1.787,0,2.351,0.996,2.351,2.387v2.807c0,0.432,0.132,0.576,0.527,0.576h0.229v0.672
				h-0.288c-0.924,0-1.199-0.385-1.224-1.211h-0.036C65.665,61.638,64.897,62.119,63.89,62.119z M64.034,61.447
				c0.947,0,1.979-0.707,1.979-2.254v-0.266c-1.619,0.098-2.446,0.205-2.842,0.48c-0.3,0.217-0.456,0.504-0.456,0.9
				C62.715,61.064,63.242,61.447,64.034,61.447z"/>
			<path fill="#FFFFFF" d="M74.196,57.49c-0.096-0.6-0.647-1.236-1.691-1.236c-1.295,0-2.026,0.973-2.026,2.604
				c0,1.654,0.575,2.65,1.99,2.65c1.164,0,1.619-0.732,1.752-1.416h0.839c-0.216,1.355-1.247,2.088-2.603,2.088
				c-1.906,0-2.842-1.248-2.854-3.264c0-1.955,1.056-3.346,2.915-3.346c1.163,0,2.314,0.527,2.519,1.92H74.196z"/>
			<path fill="#FFFFFF" d="M78.591,62.023h-0.804v-9.451h0.804v6.439l3.082-3.273h0.996l-2.291,2.41l2.698,3.875h-0.983
				l-2.291-3.299l-1.211,1.283V62.023z"/>
			<path fill="#FFFFFF" d="M87.794,62.179c-1.991,0-2.902-1.283-2.902-3.252c0-1.906,1.007-3.346,2.878-3.346
				c1.943,0,2.627,1.488,2.627,2.975v0.516h-4.678c0.06,1.523,0.684,2.436,2.099,2.436c1.176,0,1.56-0.709,1.68-1.057h0.791
				C90.049,61.447,89.137,62.179,87.794,62.179z M89.557,58.365c0-0.984-0.372-2.123-1.799-2.123c-1.235,0-1.896,0.887-2.015,2.184
				h3.813V58.365z"/>
			<path fill="#FFFFFF" d="M94.25,58.953v3.07h-0.84v-6.285h0.78v1.523h0.023c0.336-1.02,1.14-1.643,2.458-1.643
				c0.527,0,0.984,0.084,1.355,0.275v0.791c-0.432-0.18-0.875-0.287-1.486-0.287C95.174,56.398,94.25,57.261,94.25,58.953z"/>
			<path fill="#FFFFFF" d="M104.618,57.25c-0.145-0.684-0.648-1.02-1.596-1.02c-0.936,0-1.512,0.395-1.512,1.115
				c0,0.684,0.432,0.947,1.141,1.043l1.078,0.145c1.355,0.18,1.836,0.744,1.836,1.703c0,1.162-0.863,1.943-2.615,1.943
				c-1.355,0-2.387-0.492-2.543-1.92h0.805c0.096,0.816,0.66,1.271,1.738,1.271c1.141,0,1.799-0.432,1.799-1.234
				c0-0.613-0.275-0.9-1.211-1.033l-1.092-0.154c-1.055-0.156-1.727-0.613-1.727-1.717c0-1.006,0.768-1.811,2.314-1.811
				c1.463,0,2.256,0.637,2.387,1.668H104.618z"/>
			<path fill="#FFFFFF" d="M117.565,56.421h-2.314v-0.684h1.631c0.588,0,0.721-0.168,0.721-0.756v-1.176h0.791v1.932h2.615v0.684
				h-2.615v3.91c0,0.828,0.469,1.115,1.225,1.115c0.516,0,0.947-0.084,1.391-0.229v0.709c-0.336,0.119-0.805,0.238-1.428,0.238
				c-1.498,0-2.016-0.695-2.016-1.822V56.421z"/>
			<path fill="#FFFFFF" d="M124.971,58.953v3.07h-0.84v-6.285h0.779v1.523h0.023c0.336-1.02,1.141-1.643,2.459-1.643
				c0.527,0,0.984,0.084,1.355,0.275v0.791c-0.432-0.18-0.875-0.287-1.486-0.287C125.895,56.398,124.971,57.261,124.971,58.953z"/>
			<path fill="#FFFFFF" d="M131.067,62.023v-0.684h2.352v-4.93h-2.016v-0.672h2.83v5.602h2.398v0.684H131.067z M133.083,53.052h1.33
				v1.367h-1.33V53.052z"/>
			<path fill="#FFFFFF" d="M138.723,52.572h0.84v4.246h0.012c0.396-0.768,1.176-1.236,2.182-1.236c1.369,0,2.652,0.84,2.652,3.262
				c0,2.279-1.271,3.336-2.783,3.336c-1.08,0-1.775-0.6-2.1-1.236h-0.023v1.08h-0.779V52.572z M143.557,58.843
				c0-1.426-0.492-2.59-1.967-2.59c-1.355,0-2.053,1.02-2.053,2.074v0.984c0,1.104,0.648,2.195,2.027,2.195
				C142.897,61.507,143.557,60.5,143.557,58.843z"/>
			<path fill="#FFFFFF" d="M149.235,62.179c-1.992,0-2.902-1.283-2.902-3.252c0-1.906,1.006-3.346,2.877-3.346
				c1.943,0,2.627,1.488,2.627,2.975v0.516h-4.678c0.061,1.523,0.684,2.436,2.1,2.436c1.176,0,1.559-0.709,1.68-1.057h0.791
				C151.489,61.447,150.577,62.179,149.235,62.179z M150.997,58.365c0-0.984-0.371-2.123-1.799-2.123
				c-1.234,0-1.895,0.887-2.014,2.184h3.812V58.365z"/>
		</g>
	</g>
	<g>
		<g enable-background="new    ">
			<path fill="#333333" d="M85.33,42.943v-8.904c0-1.062-0.028-2.016-0.448-2.631c-0.448-0.616-1.092-0.896-1.96-0.896
				c-2.212,0-3.22,1.428-3.22,3.695v8.736h-3.78V20.879h3.78v9.464h0.028c0.588-1.316,2.072-2.66,4.536-2.66
				c3.332,0,4.844,1.708,4.844,5.32v9.939H85.33z"/>
			<path fill="#333333" d="M103.643,33.087c-0.168-1.512-1.094-2.744-2.969-2.744c-2.52,0-3.416,2.24-3.416,5.068
				c0,2.771,0.672,5.18,3.389,5.18c2.184,0,3.023-1.568,3.135-2.939h3.752c-0.223,3.695-3.164,5.684-6.887,5.684
				c-4.873,0-7.281-2.939-7.281-7.84c0-4.957,2.773-7.84,7.335-7.84c3.668,0,6.525,1.764,6.777,5.432H103.643z"/>
			<path fill="#333333" d="M115.682,42.943h-3.668V20.879h3.668v13.972l5.965-6.832h4.172l-5.434,6.048l5.938,8.875h-4.256
				l-4.172-6.523l-2.213,2.492V42.943z"/>
		</g>
		<g enable-background="new    ">
			<path fill="#333333" d="M134.779,36.587v6.355h-3.752V28.02h3.612v3.5h0.056c1.063-2.744,2.968-3.78,5.656-3.78
				c0.979,0,2.101,0.196,2.744,0.532v3.248c-0.812-0.309-1.82-0.532-3.136-0.532C136.571,30.987,134.779,33.144,134.779,36.587z"/>
		</g>
		<g enable-background="new    ">
			<path fill="#333333" d="M155.807,32.107c-0.141-1.175-1.064-1.763-2.744-1.763c-1.708,0-2.688,0.644-2.688,1.651
				c0,1.036,0.588,1.456,2.184,1.708l2.548,0.42c3.304,0.533,4.536,1.904,4.536,4.172c0,3.305-2.549,5.041-6.637,5.041
				c-4.256,0-6.412-1.596-6.691-4.732h3.527c0.225,1.316,0.98,2.072,3.164,2.072c2.101,0,3.08-0.561,3.08-1.791
				c0-1.01-0.56-1.4-2.295-1.682l-2.633-0.42c-2.52-0.391-4.312-1.596-4.312-4.395c0-2.716,2.269-4.733,6.244-4.733
				c4.201,0,6.049,1.96,6.272,4.452H155.807z"/>
		</g>
	</g>
	<g>
		<rect x="156.372" y="1.03" fill="#1666A8" width="33" height="13"/>
		<g>
			<path fill="#FFFFFF" d="M160.262,3.906c0.479-0.096,1.451-0.168,2.361-0.168c1.115,0,1.799,0.108,2.387,0.456
				c0.564,0.3,0.973,0.852,0.973,1.583c0,0.719-0.42,1.391-1.332,1.727v0.024c0.924,0.252,1.607,0.947,1.607,1.991
				c0,0.732-0.336,1.307-0.84,1.715c-0.588,0.468-1.57,0.731-3.178,0.731c-0.9,0-1.572-0.06-1.98-0.12V3.906H160.262z M162.073,7
				h0.6c0.959,0,1.476-0.396,1.476-0.996c0-0.611-0.467-0.936-1.295-0.936c-0.396,0-0.623,0.024-0.778,0.048V7H162.073z
				 M162.073,10.586c0.18,0.024,0.396,0.024,0.707,0.024c0.828,0,1.561-0.312,1.561-1.163c0-0.815-0.731-1.14-1.645-1.14h-0.623
				V10.586z"/>
			<path fill="#FFFFFF" d="M172.319,8.463h-2.975v1.919h3.322v1.499h-5.156V3.798h4.988v1.499h-3.154v1.679h2.975V8.463z"/>
			<path fill="#FFFFFF" d="M175.538,5.333h-2.172V3.798h6.213v1.535h-2.207v6.548h-1.834V5.333L175.538,5.333z"/>
			<path fill="#FFFFFF" d="M181.573,9.807l-0.576,2.075h-1.895l2.471-8.083h2.398l2.507,8.083h-1.968l-0.623-2.075H181.573z
				 M183.624,8.439l-0.504-1.715c-0.145-0.479-0.287-1.079-0.408-1.559h-0.022c-0.12,0.48-0.239,1.091-0.372,1.559l-0.479,1.715
				H183.624z"/>
		</g>
	</g>
	<g>
		<path fill="#333333" d="M33.857,42.558c0.038-2.27,0.074-14.567,0.209-22.662c0.061-3.627,0.825-8.801,0.825-8.801
			c-2.126-2.242-5.85-4.13-9.138-4.177c-6.577-0.092-11.984,5.166-12.076,11.744c-6.575-0.128-12.01,5.1-12.137,11.678
			c-0.128,6.576,4.992,12.025,12.246,12.148C21.88,42.621,31.589,42.52,33.857,42.558z"/>
		<g>
			<g>
				<path fill="#333333" d="M43.765,6.795L43.788,9.7c2.405,0.007,4.665,0.95,6.361,2.655c1.696,1.706,2.627,3.969,2.62,6.374
					l0.024,2.914h2.914c4.952,0,8.991,4.029,9.004,8.981c0.007,2.394-0.899,4.625-2.552,6.282c-1.765,1.771-4.248,2.747-6.988,2.748
					l-5.805-0.001l-13.91,0.002h-0.7v-2.646l0.002-17.767c0-5.44,3.871-9.542,9.005-9.542V6.795 M43.765,6.795
					c-6.562,0-11.91,5.204-11.91,12.447c0,8.095-0.004,21.05-0.004,23.319c1.776,0,10.1-0.003,17.516-0.003
					c2.057,0,4.046,0,5.804,0.001c7.255-0.002,12.465-5.366,12.446-11.943c-0.018-6.568-5.347-11.878-11.91-11.878
					c-0.011,0-0.022,0-0.033,0c0.019-6.578-5.301-11.925-11.879-11.943C43.786,6.795,43.776,6.795,43.765,6.795L43.765,6.795z"/>
			</g>
		</g>
	</g>
</g>
</svg>
