<?xml version="1.0" encoding="utf-8"?>
<!-- Generator: Adobe Illustrator 16.0.0, SVG Export Plug-In . SVG Version: 6.00 Build 0)  -->
<!DOCTYPE svg PUBLIC "-//W3C//DTD SVG 1.1//EN" "http://www.w3.org/Graphics/SVG/1.1/DTD/svg11.dtd">
<svg version="1.1" id="Laag_1" xmlns="http://www.w3.org/2000/svg" xmlns:xlink="http://www.w3.org/1999/xlink" x="0px" y="0px"
	 width="32px" height="25px" viewBox="0 0 32 25" enable-background="new 0 0 32 25" xml:space="preserve">
<path fill="#FFFFFF" d="M1.408,1.682h29.185c0.278,0,0.503-0.225,0.503-0.503c0-0.277-0.225-0.503-0.503-0.503H1.408
	c-0.278,0-0.503,0.226-0.503,0.503C0.905,1.458,1.13,1.682,1.408,1.682z"/>
<path fill="#FFFFFF" d="M30.593,12.25H1.408c-0.278,0-0.503,0.225-0.503,0.503s0.225,0.503,0.503,0.503h29.185
	c0.278,0,0.503-0.226,0.503-0.503S30.871,12.25,30.593,12.25z"/>
<path fill="#FFFFFF" d="M30.593,23.319H1.408c-0.278,0-0.503,0.227-0.503,0.502c0,0.279,0.225,0.504,0.503,0.504h29.185
	c0.278,0,0.503-0.225,0.503-0.504C31.096,23.545,30.871,23.319,30.593,23.319z"/>
</svg>
