<?xml version="1.0" encoding="utf-8"?>
<!-- Generator: Adobe Illustrator 16.0.0, SVG Export Plug-In . SVG Version: 6.00 Build 0)  -->
<!DOCTYPE svg PUBLIC "-//W3C//DTD SVG 1.1//EN" "http://www.w3.org/Graphics/SVG/1.1/DTD/svg11.dtd">
<svg version="1.1" id="Layer_1" xmlns="http://www.w3.org/2000/svg" xmlns:xlink="http://www.w3.org/1999/xlink" x="0px" y="0px"
	 width="1227px" height="600px" viewBox="0 0 1227 600" enable-background="new 0 0 1227 600" xml:space="preserve">
<g id="Ebene_x0020_1_1_">
	<g id="_153574520_1_">
		<path id="_153577136_1_" fill="#FFFFFF" d="M786.41,380.353c1.209,0,2.605-0.302,4.192-0.905v3.891
			c-0.354,0.125-0.856,0.264-1.512,0.414c0.201,0.579,0.303,1.121,0.303,1.625c0,1.611-0.484,3.016-1.453,4.211
			c-0.97,1.196-2.224,1.907-3.76,2.134c-1.008,0.151-1.51,0.693-1.51,1.625c0,0.327,0.164,0.655,0.491,0.981
			c0.427,0.479,1.057,0.781,1.887,0.907c3.602,0.554,5.402,2.052,5.402,4.495c0,3.902-2.33,5.854-6.987,5.854
			c-1.914,0-3.488-0.34-4.722-1.02c-1.562-0.855-2.343-2.204-2.343-4.041c0-2.116,1.173-3.564,3.515-4.344v-0.076
			c-0.857-0.527-1.285-1.334-1.285-2.417c0-1.409,0.404-2.292,1.207-2.644v-0.076c-0.803-0.276-1.521-0.906-2.151-1.888
			c-0.705-1.058-1.057-2.192-1.057-3.399c0-1.813,0.641-3.324,1.926-4.533c1.232-1.133,2.706-1.699,4.419-1.699
			C784.206,379.447,785.352,379.749,786.41,380.353z M786.561,400.221L786.561,400.221c0-1.283-1.058-1.926-3.173-1.926
			c-2.04,0-3.06,0.667-3.06,2.001c0,1.31,1.107,1.964,3.324,1.964C785.592,402.26,786.561,401.58,786.561,400.221z M780.743,385.717
			L780.743,385.717c0,1.736,0.794,2.605,2.38,2.605c1.537,0,2.304-0.881,2.304-2.643c0-0.73-0.175-1.36-0.527-1.89
			c-0.43-0.579-1.021-0.868-1.776-0.868C781.537,382.922,780.743,383.854,780.743,385.717z"/>
		<path id="_153577064_1_" fill="#FFFFFF" d="M794.607,376.689c-0.73,0-1.354-0.277-1.869-0.83
			c-0.517-0.555-0.773-1.209-0.773-1.965c0-0.781,0.257-1.447,0.773-2.002c0.516-0.555,1.139-0.831,1.869-0.831
			c0.705,0,1.316,0.276,1.832,0.831s0.774,1.221,0.774,2.002c0,0.756-0.259,1.41-0.774,1.965
			C795.924,376.412,795.312,376.689,794.607,376.689z"/>
		<path id="_153576992_1_" fill="#FFFFFF" d="M792.454,396.406c0.051-0.504,0.075-1.359,0.075-2.568V382.09
			c0-1.183-0.024-2.001-0.075-2.454h4.269c-0.051,0.479-0.075,1.271-0.075,2.38v11.595c0,1.284,0.024,2.216,0.075,2.796H792.454z"/>
		<path id="_153576920_1_" fill="#FFFFFF" d="M804.539,379.636h3.285v3.663c-0.126,0-0.359-0.012-0.698-0.037
			c-0.341-0.025-0.663-0.039-0.963-0.039h-1.624v7.027c0,1.687,0.554,2.53,1.661,2.53c0.781,0,1.485-0.214,2.114-0.642v3.775
			c-0.931,0.505-2.051,0.756-3.36,0.756c-1.839,0-3.11-0.654-3.815-1.964c-0.528-0.981-0.793-2.53-0.793-4.646v-6.762h0.037v-0.076
			l-0.566-0.037c-0.327,0-0.756,0.037-1.283,0.113v-3.663h1.85v-1.474c0-0.705-0.037-1.271-0.113-1.699h4.381
			c-0.073,0.479-0.111,1.02-0.111,1.624V379.636L804.539,379.636z"/>
		<path id="_153576848_1_" fill="#FFFFFF" d="M817.806,379.522c-1.082,0-2.216,0.378-3.4,1.134v-6.611
			c0-1.434,0.026-2.379,0.075-2.832h-4.305c0.075,0.402,0.113,1.348,0.113,2.832v19.982c0,1.158-0.038,1.951-0.113,2.379h4.381
			c0-0.076-0.025-0.384-0.076-0.926c-0.049-0.541-0.075-1.026-0.075-1.453v-9.293c0.882-0.83,1.737-1.246,2.568-1.246
			c0.957,0,1.688,0.479,2.192,1.436c0.377,0.756,0.566,1.699,0.566,2.832l-0.038,5.1c0,0.855-0.063,2.039-0.19,3.551h4.571
			c-0.101-0.63-0.151-1.788-0.151-3.475v-5.176c0-2.191-0.49-4.054-1.473-5.59C821.344,380.403,819.795,379.522,817.806,379.522
			L817.806,379.522z"/>
		<path id="_153576776_1_" fill="#FFFFFF" d="M831.176,396.558c-1.988,0-3.461-0.883-4.418-2.645
			c-0.756-1.437-1.133-3.312-1.133-5.628v-5.174c0-1.713-0.049-2.871-0.15-3.476h4.532c-0.075,0.554-0.126,1.737-0.152,3.55
			l-0.037,5.1c0,1.436,0.164,2.468,0.492,3.098c0.377,0.78,1.069,1.171,2.077,1.171c0.705,0,1.498-0.415,2.379-1.245v-9.293
			c0-0.429-0.026-0.92-0.076-1.475c-0.051-0.553-0.075-0.855-0.075-0.905h4.382c-0.051,0.428-0.076,1.221-0.076,2.38v11.558
			c0,1.485,0.025,2.43,0.076,2.833h-4.118v-1.359C833.721,396.053,832.486,396.558,831.176,396.558L831.176,396.558z"/>
		<path id="_153576704_1_" fill="#FFFFFF" d="M848.176,396.52c-1.359,0-2.492-0.49-3.4-1.473v1.359h-4.003
			c0.077-0.428,0.113-1.221,0.113-2.379v-19.982c0-1.484-0.036-2.43-0.113-2.832h4.307c-0.05,0.453-0.077,1.398-0.077,2.832v6.573
			c1.158-0.731,2.293-1.096,3.399-1.096c1.989,0,3.551,0.881,4.685,2.644c0.957,1.536,1.436,3.398,1.436,5.59
			c0,2.241-0.504,4.193-1.512,5.854C851.802,395.55,850.19,396.52,848.176,396.52z M847.609,383.488L847.609,383.488
			c-0.832,0-1.7,0.416-2.607,1.246v6.535c0.807,0.779,1.6,1.17,2.381,1.17c0.982,0,1.725-0.541,2.229-1.623
			c0.402-0.857,0.604-1.876,0.604-3.061C850.215,384.91,849.348,383.488,847.609,383.488L847.609,383.488z"/>
	</g>
</g>
<path fill="#FFFFFF" d="M447.186,382.939c-1.099,0-1.89,0.36-2.69,0.726v8.285c0.769,0.074,1.207,0.074,1.938,0.074
	c2.636,0,2.996-1.206,2.996-2.888v-3.958C449.429,383.938,449.016,382.939,447.186,382.939 M429.69,382.487
	c-1.828,0-2.245,1.002-2.245,2.242v0.697h4.487v-0.697C431.933,383.489,431.517,382.487,429.69,382.487 M395.8,391.112
	c0,0.98,0.463,1.49,1.487,1.49c1.098,0,1.748-0.357,2.549-0.725v-1.965h-2.401C396.298,389.913,395.8,390.124,395.8,391.112
	 M464.204,382.939c-1.83,0-2.464,0.999-2.464,2.239v4.535c0,1.244,0.634,2.244,2.464,2.244c1.826,0,2.467-1,2.467-2.244v-4.535
	C466.671,383.938,466.03,382.939,464.204,382.939 M386.826,396.194h-5.381v-13.008h-2.689v-4.484h2.689v-2.691
	c0-3.656,1.519-5.832,5.831-5.832h3.592v4.483h-2.244c-1.68,0-1.79,0.627-1.79,1.796l-0.008,2.244h4.068l-0.477,4.484h-3.592
	V396.194z M405.22,396.228h-4.484l-0.194-1.133c-2.048,1.133-3.876,1.317-5.081,1.317c-3.291,0-5.042-2.194-5.042-5.23
	c0-3.579,2.043-4.857,5.697-4.857h3.721v-0.773c0-1.829-0.21-2.364-3.023-2.364h-4.603l0.45-4.484h5.03
	c6.176,0,7.529,1.949,7.529,6.885V396.228z M420.473,383.515c-2.792-0.479-3.593-0.584-4.937-0.584
	c-2.412,0-3.141,0.533-3.141,2.578v3.87c0,2.046,0.729,2.579,3.141,2.579c1.344,0,2.145-0.105,4.937-0.586v4.371
	c-2.446,0.549-4.038,0.693-5.384,0.693c-5.778,0-8.074-3.035-8.074-7.42v-3.139c0-4.389,2.296-7.428,8.074-7.428
	c1.346,0,2.938,0.145,5.384,0.693V383.515z M437.314,389.017h-9.869v0.362c0,2.046,0.729,2.579,3.142,2.579
	c2.168,0,3.491-0.105,6.277-0.586v4.371c-2.687,0.549-4.086,0.693-6.724,0.693c-5.778,0-8.077-3.035-8.077-7.42v-3.59
	c0-3.835,1.707-6.977,7.627-6.977c5.921,0,7.624,3.104,7.624,6.977V389.017z M454.81,389.101c0,4.236-1.212,7.327-8.559,7.327
	c-2.65,0-4.209-0.233-7.137-0.685v-24.219l5.381-0.896v8.472c1.162-0.432,2.667-0.65,4.037-0.65c5.382,0,6.277,2.41,6.277,6.279
	V389.101z M472.057,389.193c0,3.655-1.512,7.199-7.835,7.199c-6.326,0-7.864-3.544-7.864-7.199v-3.529
	c0-3.657,1.538-7.202,7.864-7.202c6.323,0,7.835,3.545,7.835,7.202V389.193z M489.289,389.193c0,3.655-1.514,7.199-7.833,7.199
	c-6.325,0-7.865-3.544-7.865-7.199v-3.529c0-3.657,1.54-7.202,7.865-7.202c6.319,0,7.833,3.545,7.833,7.202V389.193z
	 M506.977,396.194h-5.833l-4.932-8.221v8.221h-5.381v-24.67l5.381-0.896v15.882l4.932-7.809h5.833l-5.385,8.521L506.977,396.194z
	 M481.438,382.939c-1.828,0-2.463,0.999-2.463,2.239v4.535c0,1.244,0.635,2.244,2.463,2.244c1.824,0,2.471-1,2.471-2.244v-4.535
	C483.909,383.938,483.263,382.939,481.438,382.939"/>
<g>
	<path fill="#FFFFFF" d="M583.968,395.523c-4.756,0-8.61-3.854-8.61-8.61l0.029-9.876c0-1.361,1.103-2.465,2.464-2.465
		s2.466,1.104,2.466,2.465v3.697h6.162c1.362,0,2.465,1.104,2.465,2.465s-1.103,2.465-2.465,2.465h-6.162v1.242
		c0,2.037,1.65,3.687,3.687,3.687h3.708c1.361,0,2.465,1.104,2.465,2.466s-1.104,2.465-2.465,2.465H583.968z"/>
	<path fill="#FFFFFF" d="M632.648,395.523c-4.754,0-8.58-3.854-8.58-8.61v-9.876c0-1.361,1.104-2.465,2.463-2.465
		c1.363,0,2.466,1.104,2.466,2.465v3.697h3.696c1.36,0,2.466,1.104,2.466,2.465s-1.105,2.465-2.466,2.465h-3.696v1.242
		c0,2.037,1.65,3.687,3.687,3.687h1.243c1.36,0,2.465,1.104,2.465,2.466s-1.104,2.465-2.465,2.465H632.648z"/>
	<path fill="#FFFFFF" d="M645.589,395.523c-4.755,0-8.581-3.854-8.581-8.61v-9.876c0-1.361,1.104-2.465,2.464-2.465
		c1.362,0,2.466,1.104,2.466,2.465v3.697h3.696c1.361,0,2.466,1.104,2.466,2.465s-1.104,2.465-2.466,2.465h-3.696v1.242
		c0,2.037,1.649,3.687,3.687,3.687h1.244c1.36,0,2.464,1.104,2.464,2.466s-1.104,2.465-2.464,2.465H645.589z"/>
	<path fill="#FFFFFF" d="M666.6,388.129c0-4.084,3.272-7.395,7.355-7.395h3.698c1.359,0,2.464,1.104,2.464,2.465
		s-1.104,2.465-2.464,2.465h-3.698c-1.361,0-2.465,1.104-2.465,2.465l0.04,4.93c0,1.361-1.104,2.465-2.467,2.465
		c-1.361,0-2.464-1.104-2.464-2.465V388.129z"/>
	<path fill="#FFFFFF" d="M612.976,380.734c-1.361,0-2.465,1.104-2.465,2.465v4.93c0,1.361-1.104,2.464-2.465,2.464
		s-2.465-1.103-2.465-2.464v-4.93c0-1.361-1.104-2.465-2.465-2.465s-2.465,1.104-2.465,2.465v4.93c0,1.361-1.104,2.464-2.465,2.464
		s-2.465-1.103-2.465-2.464v-4.93c0-1.361-1.104-2.465-2.465-2.465c-1.362,0-2.465,1.104-2.465,2.465v4.93
		c0,4.084,3.31,7.395,7.395,7.395c1.897,0,3.621-0.721,4.93-1.895c1.309,1.174,3.033,1.895,4.93,1.895
		c4.084,0,7.395-3.311,7.395-7.395v-4.93C615.44,381.838,614.336,380.734,612.976,380.734z"/>
	<g>
		<path fill="#FFFFFF" d="M619.755,380.734c-1.363,0-2.466,1.104-2.466,2.465v9.859c0,1.361,1.103,2.465,2.466,2.465
			c1.359,0,2.464-1.104,2.464-2.465v-9.859C622.219,381.838,621.114,380.734,619.755,380.734z"/>
		<circle fill="#FFFFFF" cx="619.755" cy="377.037" r="2.465"/>
	</g>
	<path fill="#FFFFFF" d="M664.736,386.896c0,0.861-0.361,2.457-1.648,2.457c-0.946,0-8.136,0-8.136,0
		c0.271,1.066,1.238,1.855,2.39,1.855h5.251c1.193,0,2.158,0.967,2.158,2.157c0,1.191-0.965,2.157-2.158,2.157h-5.251
		c-4.084,0-7.395-3.336-7.395-8.012c0-4.102,3.312-6.777,7.397-6.777c4.084,0,7.395,2.758,7.395,6.162H664.736z M659.809,386.279
		c0-1.134-1.103-2.053-2.464-2.053c-1.362,0-2.466,0.919-2.466,2.053H659.809z"/>
</g>
</svg>
