<?xml version="1.0" encoding="utf-8"?>
<!-- Generator: Adobe Illustrator 16.0.0, SVG Export Plug-In . SVG Version: 6.00 Build 0)  -->
<!DOCTYPE svg PUBLIC "-//W3C//DTD SVG 1.1//EN" "http://www.w3.org/Graphics/SVG/1.1/DTD/svg11.dtd">
<svg version="1.1" id="Layer_1" xmlns="http://www.w3.org/2000/svg" xmlns:xlink="http://www.w3.org/1999/xlink" x="0px" y="0px"
	 width="181.351px" height="78.256px" viewBox="0 0 181.351 78.256" enable-background="new 0 0 181.351 78.256"
	 xml:space="preserve">
<g>
	<path fill="#FFFFFF" d="M46.468,49.523c-4.756,0-8.61-3.854-8.61-8.61l0.029-9.876c0-1.361,1.103-2.465,2.464-2.465
		s2.466,1.104,2.466,2.465v3.697h6.162c1.362,0,2.465,1.104,2.465,2.465s-1.103,2.465-2.465,2.465h-6.162v1.242
		c0,2.037,1.65,3.687,3.687,3.687h3.708c1.361,0,2.465,1.104,2.465,2.466s-1.104,2.465-2.465,2.465H46.468z"/>
	<path fill="#FFFFFF" d="M95.148,49.523c-4.754,0-8.58-3.854-8.58-8.61v-9.876c0-1.361,1.104-2.465,2.463-2.465
		c1.363,0,2.466,1.104,2.466,2.465v3.697h3.696c1.36,0,2.466,1.104,2.466,2.465s-1.105,2.465-2.466,2.465h-3.696v1.242
		c0,2.037,1.65,3.687,3.687,3.687h1.243c1.36,0,2.465,1.104,2.465,2.466s-1.104,2.465-2.465,2.465H95.148z"/>
	<path fill="#FFFFFF" d="M108.089,49.523c-4.755,0-8.581-3.854-8.581-8.61v-9.876c0-1.361,1.104-2.465,2.464-2.465
		c1.362,0,2.466,1.104,2.466,2.465v3.697h3.696c1.361,0,2.466,1.104,2.466,2.465s-1.104,2.465-2.466,2.465h-3.696v1.242
		c0,2.037,1.649,3.687,3.687,3.687h1.244c1.36,0,2.464,1.104,2.464,2.466s-1.104,2.465-2.464,2.465H108.089z"/>
	<path fill="#FFFFFF" d="M129.1,42.129c0-4.084,3.272-7.395,7.355-7.395h3.698c1.359,0,2.464,1.104,2.464,2.465
		s-1.104,2.465-2.464,2.465h-3.698c-1.361,0-2.465,1.104-2.465,2.465l0.04,4.93c0,1.361-1.104,2.465-2.467,2.465
		c-1.361,0-2.464-1.104-2.464-2.465V42.129z"/>
	<path fill="#FFFFFF" d="M75.476,34.734c-1.361,0-2.465,1.104-2.465,2.465v4.93c0,1.361-1.104,2.464-2.465,2.464
		s-2.465-1.103-2.465-2.464v-4.93c0-1.361-1.104-2.465-2.465-2.465s-2.465,1.104-2.465,2.465v4.93c0,1.361-1.104,2.464-2.465,2.464
		s-2.465-1.103-2.465-2.464v-4.93c0-1.361-1.104-2.465-2.465-2.465c-1.362,0-2.465,1.104-2.465,2.465v4.93
		c0,4.084,3.31,7.395,7.395,7.395c1.897,0,3.621-0.721,4.93-1.895c1.309,1.174,3.033,1.895,4.93,1.895
		c4.084,0,7.395-3.311,7.395-7.395v-4.93C77.94,35.838,76.836,34.734,75.476,34.734z"/>
	<g>
		<path fill="#FFFFFF" d="M82.255,34.734c-1.363,0-2.466,1.104-2.466,2.465v9.859c0,1.361,1.103,2.465,2.466,2.465
			c1.359,0,2.464-1.104,2.464-2.465v-9.859C84.719,35.838,83.614,34.734,82.255,34.734z"/>
		<circle fill="#FFFFFF" cx="82.255" cy="31.037" r="2.465"/>
	</g>
	<path fill="#FFFFFF" d="M127.236,40.896c0,0.861-0.361,2.457-1.648,2.457c-0.946,0-8.136,0-8.136,0
		c0.271,1.066,1.238,1.855,2.39,1.855h5.251c1.193,0,2.158,0.967,2.158,2.157c0,1.191-0.965,2.157-2.158,2.157h-5.251
		c-4.084,0-7.395-3.336-7.395-8.012c0-4.102,3.312-6.777,7.397-6.777c4.084,0,7.395,2.758,7.395,6.162H127.236z M122.309,40.279
		c0-1.134-1.103-2.053-2.464-2.053c-1.362,0-2.466,0.919-2.466,2.053H122.309z"/>
</g>
</svg>
