<?xml version="1.0" encoding="utf-8"?>
<!-- Generator: Adobe Illustrator 16.0.0, SVG Export Plug-In . SVG Version: 6.00 Build 0)  -->
<!DOCTYPE svg PUBLIC "-//W3C//DTD SVG 1.1//EN" "http://www.w3.org/Graphics/SVG/1.1/DTD/svg11.dtd">
<svg version="1.1" id="Layer_1" xmlns="http://www.w3.org/2000/svg" xmlns:xlink="http://www.w3.org/1999/xlink" x="0px" y="0px"
	 width="1227px" height="600px" viewBox="0 0 1227 600" enable-background="new 0 0 1227 600" xml:space="preserve">
<g id="Ebene_x0020_1">
	<g id="_153574520">
		<path id="_153577136" d="M882.887,269.94c2.17,0,4.678-0.541,7.525-1.625v6.984c-0.633,0.225-1.537,0.474-2.713,0.745
			c0.361,1.039,0.543,2.012,0.543,2.917c0,2.892-0.869,5.413-2.609,7.559c-1.74,2.147-3.99,3.424-6.748,3.831
			c-1.809,0.271-2.711,1.244-2.711,2.917c0,0.587,0.295,1.175,0.881,1.763c0.768,0.859,1.898,1.402,3.389,1.627
			c6.465,0.994,9.697,3.684,9.697,8.068c0,7.006-4.182,10.51-12.543,10.51c-3.436,0-6.262-0.609-8.477-1.832
			c-2.803-1.535-4.205-3.955-4.205-7.254c0-3.799,2.105-6.397,6.309-7.797v-0.136c-1.539-0.948-2.307-2.395-2.307-4.338
			c0-2.531,0.725-4.115,2.168-4.747v-0.135c-1.443-0.497-2.732-1.628-3.863-3.39c-1.266-1.899-1.896-3.934-1.896-6.104
			c0-3.254,1.15-5.966,3.457-8.136c2.213-2.035,4.857-3.051,7.934-3.051C878.93,268.314,880.986,268.856,882.887,269.94z
			 M883.156,305.605L883.156,305.605c0-2.305-1.898-3.457-5.695-3.457c-3.662,0-5.492,1.197-5.492,3.593
			c0,2.351,1.988,3.524,5.967,3.524C881.416,309.266,883.156,308.047,883.156,305.605z M872.715,279.569L872.715,279.569
			c0,3.119,1.424,4.679,4.271,4.679c2.758,0,4.135-1.582,4.135-4.747c0-1.311-0.314-2.44-0.947-3.391
			c-0.77-1.039-1.832-1.559-3.188-1.559C874.139,274.551,872.715,276.225,872.715,279.569z"/>
		<path id="_153577064" d="M897.602,263.363c-1.311,0-2.43-0.497-3.355-1.491c-0.928-0.994-1.389-2.169-1.389-3.525
			c0-1.403,0.461-2.599,1.389-3.595c0.926-0.994,2.045-1.491,3.355-1.491c1.266,0,2.363,0.497,3.289,1.491
			c0.926,0.996,1.391,2.192,1.391,3.595c0,1.356-0.465,2.531-1.391,3.525S898.867,263.363,897.602,263.363z"/>
		<path id="_153576992" d="M893.736,298.758c0.092-0.903,0.135-2.44,0.135-4.609v-21.089c0-2.124-0.043-3.593-0.135-4.407h7.662
			c-0.092,0.859-0.135,2.283-0.135,4.272v20.815c0,2.306,0.043,3.979,0.135,5.019H893.736z"/>
		<path id="_153576920" d="M915.43,268.652h5.898v6.577c-0.227,0-0.645-0.021-1.254-0.067c-0.611-0.045-1.189-0.069-1.729-0.069
			h-2.916v12.613c0,3.028,0.994,4.543,2.982,4.543c1.402,0,2.666-0.384,3.797-1.152v6.779c-1.672,0.905-3.684,1.356-6.033,1.356
			c-3.301,0-5.584-1.175-6.85-3.525c-0.949-1.762-1.424-4.542-1.424-8.339v-12.138h0.068v-0.136l-1.018-0.067
			c-0.588,0-1.357,0.067-2.305,0.203v-6.577h3.322v-2.644c0-1.266-0.068-2.283-0.205-3.052h7.865
			c-0.133,0.859-0.201,1.831-0.201,2.916V268.652L915.43,268.652z"/>
		<path id="_153576848" d="M939.246,268.45c-1.943,0-3.979,0.677-6.104,2.034v-11.866c0-2.576,0.045-4.272,0.135-5.085h-7.729
			c0.135,0.723,0.203,2.418,0.203,5.085v35.87c0,2.079-0.068,3.502-0.203,4.271h7.865c0-0.136-0.047-0.688-0.137-1.661
			c-0.09-0.971-0.135-1.843-0.135-2.609v-16.682c1.582-1.49,3.119-2.235,4.609-2.235c1.719,0,3.029,0.858,3.936,2.575
			c0.678,1.356,1.018,3.052,1.018,5.085l-0.068,9.153c0,1.537-0.113,3.662-0.342,6.375h8.205c-0.182-1.131-0.271-3.209-0.271-6.238
			v-9.29c0-3.934-0.881-7.278-2.643-10.034C945.596,270.031,942.816,268.45,939.246,268.45L939.246,268.45z"/>
		<path id="_153576776" d="M963.248,299.03c-3.57,0-6.215-1.584-7.932-4.748c-1.355-2.578-2.035-5.944-2.035-10.103v-9.288
			c0-3.075-0.088-5.153-0.27-6.239h8.137c-0.135,0.995-0.227,3.119-0.273,6.374l-0.066,9.154c0,2.576,0.295,4.43,0.883,5.561
			c0.678,1.4,1.92,2.102,3.729,2.102c1.266,0,2.689-0.746,4.271-2.236v-16.682c0-0.769-0.047-1.65-0.137-2.645
			c-0.092-0.994-0.135-1.537-0.135-1.627h7.865c-0.09,0.769-0.137,2.192-0.137,4.272v20.748c0,2.666,0.047,4.361,0.137,5.085h-7.393
			v-2.44C967.814,298.124,965.6,299.03,963.248,299.03L963.248,299.03z"/>
		<path id="_153576704" d="M993.764,298.96c-2.439,0-4.475-0.88-6.104-2.643v2.44h-7.186c0.137-0.769,0.203-2.192,0.203-4.271
			v-35.87c0-2.667-0.066-4.362-0.203-5.085h7.73c-0.09,0.813-0.137,2.509-0.137,5.085v11.799c2.078-1.312,4.115-1.967,6.102-1.967
			c3.57,0,6.373,1.581,8.408,4.747c1.719,2.756,2.578,6.101,2.578,10.034c0,4.022-0.904,7.527-2.713,10.509
			C1000.273,297.221,997.381,298.96,993.764,298.96z M992.748,275.57L992.748,275.57c-1.494,0-3.053,0.745-4.68,2.235v11.731
			c1.447,1.4,2.869,2.102,4.271,2.102c1.764,0,3.096-0.971,4-2.915c0.725-1.538,1.086-3.368,1.086-5.493
			C997.426,278.122,995.867,275.57,992.748,275.57L992.748,275.57z"/>
	</g>
</g>
<path d="M335.782,273.657c-1.845,0-3.172,0.604-4.519,1.218v13.912c1.292,0.126,2.028,0.126,3.254,0.126
	c4.426,0,5.031-2.026,5.031-4.85v-6.647C339.548,275.333,338.856,273.657,335.782,273.657 M306.403,272.898
	c-3.07,0-3.77,1.682-3.77,3.766v1.169h7.535v-1.169C310.168,274.58,309.468,272.898,306.403,272.898 M249.49,287.381
	c0,1.647,0.779,2.502,2.498,2.502c1.845,0,2.936-0.6,4.282-1.217v-3.298h-4.033C250.328,285.369,249.49,285.722,249.49,287.381
	 M364.362,273.657c-3.074,0-4.14,1.676-4.14,3.76v7.615c0,2.091,1.065,3.77,4.14,3.77c3.065,0,4.14-1.679,4.14-3.77v-7.615
	C368.501,275.333,367.427,273.657,364.362,273.657 M234.422,295.916h-9.036v-21.845h-4.517v-7.529h4.517v-4.519
	c0-6.142,2.55-9.794,9.792-9.794h6.031v7.529h-3.768c-2.82,0-3.007,1.053-3.007,3.017l-0.012,3.768h6.831l-0.799,7.529h-6.032
	V295.916z M265.311,295.972h-7.532l-0.325-1.903c-3.44,1.903-6.511,2.211-8.534,2.211c-5.525,0-8.465-3.685-8.465-8.783
	c0-6.012,3.431-8.157,9.568-8.157h6.248v-1.299c0-3.071-0.353-3.971-5.078-3.971h-7.728l0.756-7.529h8.446
	c10.371,0,12.645,3.273,12.645,11.561V295.972z M290.923,274.624c-4.688-0.803-6.033-0.98-8.288-0.98
	c-4.051,0-5.275,0.894-5.275,4.328v6.499c0,3.437,1.225,4.332,5.275,4.332c2.255,0,3.6-0.178,8.288-0.984v7.341
	c-4.106,0.922-6.78,1.163-9.041,1.163c-9.704,0-13.558-5.096-13.558-12.458v-5.273c0-7.369,3.854-12.473,13.558-12.473
	c2.261,0,4.935,0.244,9.041,1.166V274.624z M319.206,283.863h-16.572v0.607c0,3.437,1.225,4.332,5.274,4.332
	c3.642,0,5.864-0.178,10.541-0.984v7.341c-4.511,0.922-6.86,1.163-11.29,1.163c-9.704,0-13.562-5.096-13.562-12.458v-6.03
	c0-6.439,2.865-11.716,12.807-11.716c9.943,0,12.803,5.214,12.803,11.716V283.863z M348.583,284.002
	c0,7.115-2.035,12.305-14.37,12.305c-4.452,0-7.069-0.392-11.985-1.149v-40.67l9.035-1.504v14.226
	c1.952-0.726,4.479-1.093,6.78-1.093c9.037,0,10.54,4.047,10.54,10.547V284.002z M377.546,284.159c0,6.137-2.539,12.09-13.155,12.09
	c-10.623,0-13.207-5.953-13.207-12.09v-5.927c0-6.14,2.584-12.094,13.207-12.094c10.616,0,13.155,5.954,13.155,12.094V284.159z
	 M406.484,284.159c0,6.137-2.541,12.09-13.152,12.09c-10.623,0-13.209-5.953-13.209-12.09v-5.927c0-6.14,2.587-12.094,13.209-12.094
	c10.611,0,13.152,5.954,13.152,12.094V284.159z M436.188,295.916h-9.795l-8.283-13.806v13.806h-9.035v-41.427l9.035-1.504v26.669
	l8.283-13.112h9.795l-9.043,14.308L436.188,295.916z M393.301,273.657c-3.068,0-4.135,1.676-4.135,3.76v7.615
	c0,2.091,1.066,3.77,4.135,3.77c3.064,0,4.15-1.679,4.15-3.77v-7.615C397.451,275.333,396.365,273.657,393.301,273.657"/>
<g>
	<linearGradient id="SVGID_1_" gradientUnits="userSpaceOnUse" x1="557.0029" y1="257.8306" x2="557.0029" y2="296.5951">
		<stop  offset="0" style="stop-color:#343333"/>
		<stop  offset="1" style="stop-color:#121111"/>
	</linearGradient>
	<path fill="url(#SVGID_1_)" d="M559.211,296.66c-8.742,0-15.828-7.085-15.828-15.828l0.053-18.157c0-2.503,2.027-4.531,4.529-4.531
		c2.504,0,4.533,2.028,4.533,4.531v6.797h11.328c2.504,0,4.531,2.029,4.531,4.532c0,2.502-2.027,4.531-4.531,4.531h-11.328v2.284
		c0,3.745,3.033,6.778,6.777,6.778h6.816c2.502,0,4.531,2.029,4.531,4.532c0,2.503-2.029,4.532-4.531,4.532H559.211z"/>
	<linearGradient id="SVGID_2_" gradientUnits="userSpaceOnUse" x1="644.2568" y1="257.8306" x2="644.2568" y2="296.5951">
		<stop  offset="0" style="stop-color:#343333"/>
		<stop  offset="1" style="stop-color:#121111"/>
	</linearGradient>
	<path fill="url(#SVGID_2_)" d="M648.703,296.66c-8.74,0-15.773-7.085-15.773-15.828v-18.157c0-2.503,2.027-4.531,4.527-4.531
		c2.506,0,4.533,2.028,4.533,4.531v6.797h6.795c2.502,0,4.533,2.029,4.533,4.532c0,2.502-2.031,4.531-4.533,4.531h-6.795v2.284
		c0,3.745,3.035,6.778,6.777,6.778h2.285c2.5,0,4.531,2.029,4.531,4.532c0,2.503-2.031,4.532-4.531,4.532H648.703z"/>
	<linearGradient id="SVGID_3_" gradientUnits="userSpaceOnUse" x1="668.0449" y1="257.8306" x2="668.0449" y2="296.5951">
		<stop  offset="0" style="stop-color:#343333"/>
		<stop  offset="1" style="stop-color:#121111"/>
	</linearGradient>
	<path fill="url(#SVGID_3_)" d="M672.492,296.66c-8.742,0-15.775-7.085-15.775-15.828v-18.157c0-2.503,2.029-4.531,4.529-4.531
		c2.504,0,4.533,2.028,4.533,4.531v6.797h6.795c2.504,0,4.533,2.029,4.533,4.532c0,2.502-2.029,4.531-4.533,4.531h-6.795v2.284
		c0,3.745,3.033,6.778,6.777,6.778h2.287c2.5,0,4.529,2.029,4.529,4.532c0,2.503-2.029,4.532-4.529,4.532H672.492z"/>
	<linearGradient id="SVGID_4_" gradientUnits="userSpaceOnUse" x1="723.542" y1="257.8306" x2="723.542" y2="296.5952">
		<stop  offset="0" style="stop-color:#343333"/>
		<stop  offset="1" style="stop-color:#121111"/>
	</linearGradient>
	<path fill="url(#SVGID_4_)" d="M711.117,283.066c0-7.509,6.016-13.594,13.523-13.594h6.797c2.5,0,4.529,2.029,4.529,4.532
		c0,2.502-2.029,4.531-4.529,4.531h-6.797c-2.504,0-4.533,2.029-4.533,4.532l0.074,9.062c0,2.503-2.031,4.532-4.535,4.532
		c-2.502,0-4.529-2.028-4.529-4.532V283.066z"/>
	<linearGradient id="SVGID_5_" gradientUnits="userSpaceOnUse" x1="594.4121" y1="257.8306" x2="594.4121" y2="296.5952">
		<stop  offset="0" style="stop-color:#343333"/>
		<stop  offset="1" style="stop-color:#121111"/>
	</linearGradient>
	<path fill="url(#SVGID_5_)" d="M612.537,269.472c-2.502,0-4.531,2.029-4.531,4.532v9.062c0,2.502-2.027,4.53-4.531,4.53
		c-2.502,0-4.531-2.028-4.531-4.53v-9.062c0-2.503-2.027-4.532-4.531-4.532c-2.502,0-4.531,2.029-4.531,4.532v9.062
		c0,2.502-2.029,4.53-4.531,4.53s-4.531-2.028-4.531-4.53v-9.062c0-2.503-2.029-4.532-4.531-4.532c-2.504,0-4.531,2.029-4.531,4.532
		v9.062c0,7.507,6.086,13.594,13.594,13.594c3.488,0,6.656-1.324,9.062-3.482c2.406,2.158,5.576,3.482,9.062,3.482
		c7.508,0,13.594-6.086,13.594-13.594v-9.062C617.068,271.5,615.039,269.472,612.537,269.472z"/>
	<g>
		<linearGradient id="SVGID_6_" gradientUnits="userSpaceOnUse" x1="624.998" y1="257.8306" x2="624.998" y2="296.5952">
			<stop  offset="0" style="stop-color:#343333"/>
			<stop  offset="1" style="stop-color:#121111"/>
		</linearGradient>
		<path fill="url(#SVGID_6_)" d="M625,269.472c-2.506,0-4.533,2.029-4.533,4.532v18.125c0,2.503,2.027,4.532,4.533,4.532
			c2.5,0,4.529-2.028,4.529-4.532v-18.125C629.529,271.5,627.5,269.472,625,269.472z"/>
		<linearGradient id="SVGID_7_" gradientUnits="userSpaceOnUse" x1="624.998" y1="257.8306" x2="624.998" y2="296.5925">
			<stop  offset="0" style="stop-color:#343333"/>
			<stop  offset="1" style="stop-color:#121111"/>
		</linearGradient>
		<path fill="url(#SVGID_7_)" d="M625,267.206c2.5,0,4.529-2.028,4.529-4.531c0-2.503-2.029-4.531-4.529-4.531
			c-2.506,0-4.533,2.028-4.533,4.531C620.467,265.177,622.494,267.206,625,267.206z"/>
	</g>
	<linearGradient id="SVGID_8_" gradientUnits="userSpaceOnUse" x1="694.1113" y1="257.8306" x2="694.1113" y2="296.5952">
		<stop  offset="0" style="stop-color:#343333"/>
		<stop  offset="1" style="stop-color:#121111"/>
	</linearGradient>
	<path fill="url(#SVGID_8_)" d="M707.691,280.799c0,1.584-0.664,4.518-3.029,4.518c-1.74,0-14.957-0.001-14.957-0.001
		c0.498,1.961,2.277,3.413,4.393,3.413h9.654c2.193,0,3.967,1.776,3.967,3.965c0,2.19-1.773,3.966-3.967,3.966h-9.654
		c-7.508,0-13.594-6.132-13.594-14.728c0-7.541,6.088-12.46,13.6-12.46c7.508,0,13.594,5.071,13.594,11.328H707.691z
		 M698.633,279.667c0-2.085-2.027-3.776-4.529-3.776c-2.504,0-4.533,1.69-4.533,3.776H698.633z"/>
</g>
<g>
	<path d="M248.164,340.152v-1.486h3.803v-12.695h-3.427v-1.426h5.189v14.121h3.882v1.486H248.164z"/>
	<path d="M260.488,334.924c0-3.428,1.743-5.467,4.872-5.467c3.189,0,4.872,2.039,4.872,5.467c0,3.465-1.743,5.486-4.872,5.486
		C262.171,340.41,260.488,338.35,260.488,334.924z M262.33,334.924c0,2.535,0.931,4.1,3.03,4.1c2.159,0,3.03-1.545,3.03-4.1
		c0-2.535-0.951-4.08-3.03-4.08S262.33,332.389,262.33,334.924z"/>
	<path d="M273.227,341.201h1.723c0.218,0.893,0.931,1.467,2.753,1.467c2.1,0,3.148-0.734,3.148-3.031v-1.545h-0.02
		c-0.555,1.029-1.861,1.98-3.506,1.98c-2.238,0-4.357-1.426-4.357-5.287c0-3.447,1.901-5.328,4.595-5.328
		c1.782,0,2.832,0.93,3.287,1.9h0.06v-1.643h1.703v10.18c0,2.932-2.039,4.199-4.951,4.199
		C275.664,344.094,273.485,343.361,273.227,341.201z M280.892,334.369c0-2.08-1.228-3.506-3.149-3.506
		c-2.02,0-2.951,1.564-2.951,3.922c0,2.297,0.673,3.881,3.03,3.881c1.783,0,3.07-1.465,3.07-3.248V334.369z"/>
	<path d="M286.205,340.152v-1.486h3.842v-7.525h-3.268v-1.426h4.972v8.951h3.901v1.486H286.205z M289.433,325.1h2.653v2.654h-2.653
		V325.1z"/>
	<path d="M305.856,333.715c0-0.752,0.02-1.584-0.356-2.08c-0.356-0.494-0.951-0.693-1.645-0.693c-1.94,0-2.812,1.248-2.812,2.951
		v6.26h-1.803v-10.438h1.684v1.762h0.039c0.495-1.068,1.704-2.02,3.367-2.02c2.001,0,3.327,0.951,3.327,3.426v7.27h-1.802V333.715z"
		/>
	<path d="M326.423,334.051c0-1.385,1.05-2.375,2.337-2.375c1.387,0,2.337,0.99,2.337,2.375c0,1.447-1.05,2.377-2.356,2.377
		C327.394,336.428,326.423,335.498,326.423,334.051z"/>
	<path d="M352.893,340.33c-2.1,0-3.388-1.168-3.388-3.029c0-1.15,0.496-2.041,1.565-2.576c1.089-0.574,2.812-0.791,5.149-0.871
		v-0.535c0-1.762-0.792-2.475-2.278-2.475c-1.703,0-2.178,0.971-2.258,1.781h-1.723c0.119-1.742,1.426-3.168,3.98-3.168
		c2.417,0,3.981,1.129,3.981,3.822v4.635c0,0.633,0.179,0.791,0.812,0.791h0.356v1.447h-0.555c-1.565,0-2.1-0.574-2.179-1.883
		h-0.119C355.625,339.578,354.477,340.33,352.893,340.33z M353.209,338.885c1.327,0,3.011-0.893,3.011-3.467v-0.238
		c-2.258,0.1-3.684,0.277-4.357,0.773c-0.396,0.297-0.574,0.693-0.574,1.248C351.289,338.311,352.041,338.885,353.209,338.885z"/>
	<path d="M362.324,329.715h1.724v1.742h0.039c0.654-1.109,1.843-2,3.506-2c2.317,0,4.397,1.367,4.397,5.328
		c0,3.803-2.061,5.625-4.516,5.625c-1.604,0-2.912-0.852-3.328-1.783h-0.039v5.248h-1.783V329.715z M367.236,339.004
		c1.98,0,2.951-1.486,2.951-4.219c0-2.219-0.693-3.902-2.971-3.902c-1.961,0-3.169,1.564-3.169,3.328v1.107
		C364.047,337.379,365.136,339.004,367.236,339.004z"/>
	<path d="M375.004,329.715h1.724v1.742h0.039c0.654-1.109,1.843-2,3.506-2c2.317,0,4.397,1.367,4.397,5.328
		c0,3.803-2.061,5.625-4.516,5.625c-1.604,0-2.912-0.852-3.328-1.783h-0.039v5.248h-1.783V329.715z M379.917,339.004
		c1.98,0,2.951-1.486,2.951-4.219c0-2.219-0.693-3.902-2.971-3.902c-1.961,0-3.169,1.564-3.169,3.328v1.107
		C376.728,337.379,377.817,339.004,379.917,339.004z"/>
	<path d="M387.645,340.152v-1.486h3.803v-12.695h-3.427v-1.426h5.189v14.121h3.882v1.486H387.645z"/>
	<path d="M399.968,329.715h1.901l2.615,6.732c0.375,0.99,0.555,1.625,0.555,1.625h0.078c0,0,0.199-0.654,0.574-1.664l2.457-6.693
		h1.803l-4.299,11.09c-0.951,2.477-1.9,3.289-3.842,3.289c-0.793,0-1.308-0.119-1.644-0.219v-1.484
		c0.416,0.098,0.951,0.197,1.544,0.197c1.188,0,1.604-0.355,2.199-1.881l0.217-0.555L399.968,329.715z"/>
</g>
<g>
	<path d="M554.435,340.152v-1.486h3.803v-12.695h-3.427v-1.426H560v14.121h3.882v1.486H554.435z"/>
	<path d="M566.758,334.924c0-3.428,1.743-5.467,4.872-5.467c3.188,0,4.872,2.039,4.872,5.467c0,3.465-1.743,5.486-4.872,5.486
		C568.441,340.41,566.758,338.35,566.758,334.924z M568.6,334.924c0,2.535,0.931,4.1,3.03,4.1c2.159,0,3.03-1.545,3.03-4.1
		c0-2.535-0.95-4.08-3.03-4.08S568.6,332.389,568.6,334.924z"/>
	<path d="M579.498,341.201h1.723c0.218,0.893,0.931,1.467,2.753,1.467c2.1,0,3.149-0.734,3.149-3.031v-1.545h-0.02
		c-0.555,1.029-1.862,1.98-3.506,1.98c-2.238,0-4.357-1.426-4.357-5.287c0-3.447,1.901-5.328,4.595-5.328
		c1.783,0,2.832,0.93,3.288,1.9h0.06v-1.643h1.703v10.18c0,2.932-2.04,4.199-4.951,4.199
		C581.934,344.094,579.755,343.361,579.498,341.201z M587.163,334.369c0-2.08-1.229-3.506-3.149-3.506
		c-2.021,0-2.951,1.564-2.951,3.922c0,2.297,0.673,3.881,3.03,3.881c1.782,0,3.07-1.465,3.07-3.248V334.369z"/>
	<path d="M592.475,340.152v-1.486h3.842v-7.525h-3.268v-1.426h4.972v8.951h3.901v1.486H592.475z M595.703,325.1h2.653v2.654h-2.653
		V325.1z"/>
	<path d="M612.127,333.715c0-0.752,0.02-1.584-0.356-2.08c-0.356-0.494-0.951-0.693-1.645-0.693c-1.94,0-2.812,1.248-2.812,2.951
		v6.26h-1.803v-10.438h1.684v1.762h0.039c0.495-1.068,1.704-2.02,3.367-2.02c2.001,0,3.327,0.951,3.327,3.426v7.27h-1.802V333.715z"
		/>
	<path d="M632.693,334.051c0-1.385,1.05-2.375,2.337-2.375c1.387,0,2.337,0.99,2.337,2.375c0,1.447-1.05,2.377-2.356,2.377
		C633.664,336.428,632.693,335.498,632.693,334.051z"/>
	<path d="M659.163,340.33c-2.1,0-3.388-1.168-3.388-3.029c0-1.15,0.495-2.041,1.565-2.576c1.089-0.574,2.812-0.791,5.149-0.871
		v-0.535c0-1.762-0.792-2.475-2.278-2.475c-1.703,0-2.178,0.971-2.258,1.781h-1.723c0.119-1.742,1.426-3.168,3.98-3.168
		c2.417,0,3.981,1.129,3.981,3.822v4.635c0,0.633,0.179,0.791,0.812,0.791h0.356v1.447h-0.555c-1.564,0-2.1-0.574-2.179-1.883
		h-0.119C661.896,339.578,660.747,340.33,659.163,340.33z M659.479,338.885c1.327,0,3.011-0.893,3.011-3.467v-0.238
		c-2.258,0.1-3.685,0.277-4.357,0.773c-0.396,0.297-0.574,0.693-0.574,1.248C657.559,338.311,658.311,338.885,659.479,338.885z"/>
	<path d="M668.595,329.715h1.724v1.742h0.039c0.654-1.109,1.843-2,3.506-2c2.317,0,4.397,1.367,4.397,5.328
		c0,3.803-2.061,5.625-4.516,5.625c-1.604,0-2.912-0.852-3.328-1.783h-0.039v5.248h-1.783V329.715z M673.507,339.004
		c1.98,0,2.951-1.486,2.951-4.219c0-2.219-0.693-3.902-2.971-3.902c-1.961,0-3.169,1.564-3.169,3.328v1.107
		C670.318,337.379,671.407,339.004,673.507,339.004z"/>
	<path d="M681.274,329.715h1.724v1.742h0.039c0.654-1.109,1.843-2,3.506-2c2.317,0,4.397,1.367,4.397,5.328
		c0,3.803-2.061,5.625-4.516,5.625c-1.604,0-2.912-0.852-3.328-1.783h-0.039v5.248h-1.783V329.715z M686.187,339.004
		c1.98,0,2.951-1.486,2.951-4.219c0-2.219-0.693-3.902-2.971-3.902c-1.961,0-3.169,1.564-3.169,3.328v1.107
		C682.998,337.379,684.087,339.004,686.187,339.004z"/>
	<path d="M693.915,340.152v-1.486h3.803v-12.695h-3.427v-1.426h5.189v14.121h3.882v1.486H693.915z"/>
	<path d="M706.239,329.715h1.901l2.614,6.732c0.376,0.99,0.555,1.625,0.555,1.625h0.079c0,0,0.198-0.654,0.574-1.664l2.456-6.693
		h1.803l-4.298,11.09c-0.951,2.477-1.901,3.289-3.843,3.289c-0.792,0-1.308-0.119-1.644-0.219v-1.484
		c0.416,0.098,0.95,0.197,1.545,0.197c1.188,0,1.604-0.355,2.198-1.881l0.218-0.555L706.239,329.715z"/>
</g>
<g>
	<path d="M854.928,340.152v-1.486h3.803v-12.695h-3.428v-1.426h5.189v14.121h3.883v1.486H854.928z"/>
	<path d="M867.25,334.924c0-3.428,1.744-5.467,4.873-5.467c3.188,0,4.871,2.039,4.871,5.467c0,3.465-1.742,5.486-4.871,5.486
		C868.934,340.41,867.25,338.35,867.25,334.924z M869.092,334.924c0,2.535,0.932,4.1,3.031,4.1c2.158,0,3.029-1.545,3.029-4.1
		c0-2.535-0.949-4.08-3.029-4.08S869.092,332.389,869.092,334.924z"/>
	<path d="M879.99,341.201h1.723c0.219,0.893,0.932,1.467,2.754,1.467c2.1,0,3.148-0.734,3.148-3.031v-1.545h-0.02
		c-0.555,1.029-1.861,1.98-3.506,1.98c-2.238,0-4.357-1.426-4.357-5.287c0-3.447,1.902-5.328,4.596-5.328
		c1.783,0,2.832,0.93,3.287,1.9h0.061v-1.643h1.703v10.18c0,2.932-2.041,4.199-4.951,4.199
		C882.426,344.094,880.248,343.361,879.99,341.201z M887.656,334.369c0-2.08-1.229-3.506-3.15-3.506
		c-2.02,0-2.951,1.564-2.951,3.922c0,2.297,0.674,3.881,3.031,3.881c1.781,0,3.07-1.465,3.07-3.248V334.369z"/>
	<path d="M892.967,340.152v-1.486h3.842v-7.525h-3.268v-1.426h4.973v8.951h3.9v1.486H892.967z M896.195,325.1h2.654v2.654h-2.654
		V325.1z"/>
	<path d="M912.619,333.715c0-0.752,0.02-1.584-0.355-2.08c-0.357-0.494-0.951-0.693-1.645-0.693c-1.941,0-2.812,1.248-2.812,2.951
		v6.26h-1.803v-10.438h1.684v1.762h0.039c0.496-1.068,1.705-2.02,3.367-2.02c2.002,0,3.328,0.951,3.328,3.426v7.27h-1.803V333.715z"
		/>
	<path d="M933.186,334.051c0-1.385,1.051-2.375,2.338-2.375c1.387,0,2.336,0.99,2.336,2.375c0,1.447-1.049,2.377-2.355,2.377
		C934.156,336.428,933.186,335.498,933.186,334.051z"/>
	<path d="M959.656,340.33c-2.1,0-3.389-1.168-3.389-3.029c0-1.15,0.496-2.041,1.566-2.576c1.088-0.574,2.812-0.791,5.148-0.871
		v-0.535c0-1.762-0.791-2.475-2.277-2.475c-1.703,0-2.178,0.971-2.258,1.781h-1.723c0.119-1.742,1.426-3.168,3.98-3.168
		c2.416,0,3.98,1.129,3.98,3.822v4.635c0,0.633,0.18,0.791,0.812,0.791h0.357v1.447h-0.555c-1.564,0-2.1-0.574-2.18-1.883h-0.119
		C962.389,339.578,961.24,340.33,959.656,340.33z M959.973,338.885c1.326,0,3.01-0.893,3.01-3.467v-0.238
		c-2.258,0.1-3.684,0.277-4.357,0.773c-0.396,0.297-0.574,0.693-0.574,1.248C958.051,338.311,958.803,338.885,959.973,338.885z"/>
	<path d="M969.088,329.715h1.723v1.742h0.039c0.654-1.109,1.844-2,3.506-2c2.318,0,4.398,1.367,4.398,5.328
		c0,3.803-2.061,5.625-4.516,5.625c-1.605,0-2.912-0.852-3.328-1.783h-0.039v5.248h-1.783V329.715z M974,339.004
		c1.98,0,2.951-1.486,2.951-4.219c0-2.219-0.693-3.902-2.971-3.902c-1.961,0-3.17,1.564-3.17,3.328v1.107
		C970.811,337.379,971.9,339.004,974,339.004z"/>
	<path d="M981.768,329.715h1.723v1.742h0.039c0.654-1.109,1.844-2,3.506-2c2.318,0,4.398,1.367,4.398,5.328
		c0,3.803-2.061,5.625-4.516,5.625c-1.605,0-2.912-0.852-3.328-1.783h-0.039v5.248h-1.783V329.715z M986.68,339.004
		c1.98,0,2.951-1.486,2.951-4.219c0-2.219-0.693-3.902-2.971-3.902c-1.961,0-3.17,1.564-3.17,3.328v1.107
		C983.49,337.379,984.58,339.004,986.68,339.004z"/>
	<path d="M994.408,340.152v-1.486h3.803v-12.695h-3.428v-1.426h5.189v14.121h3.883v1.486H994.408z"/>
	<path d="M1006.732,329.715h1.9l2.615,6.732c0.375,0.99,0.555,1.625,0.555,1.625h0.078c0,0,0.199-0.654,0.574-1.664l2.457-6.693
		h1.803l-4.299,11.09c-0.951,2.477-1.9,3.289-3.842,3.289c-0.793,0-1.309-0.119-1.645-0.219v-1.484
		c0.416,0.098,0.951,0.197,1.545,0.197c1.188,0,1.604-0.355,2.199-1.881l0.217-0.555L1006.732,329.715z"/>
</g>
</svg>
