<?xml version="1.0" encoding="utf-8"?>
<!-- Generator: Adobe Illustrator 16.0.0, SVG Export Plug-In . SVG Version: 6.00 Build 0)  -->
<!DOCTYPE svg PUBLIC "-//W3C//DTD SVG 1.1//EN" "http://www.w3.org/Graphics/SVG/1.1/DTD/svg11.dtd">
<svg version="1.1" id="Layer_1" xmlns="http://www.w3.org/2000/svg" xmlns:xlink="http://www.w3.org/1999/xlink" x="0px" y="0px"
	 width="181.351px" height="78.256px" viewBox="0 0 181.351 78.256" enable-background="new 0 0 181.351 78.256"
	 xml:space="preserve">
<path fill="#FFFFFF" d="M94.352,36.939c-1.099,0-1.89,0.36-2.69,0.726v8.285c0.769,0.074,1.207,0.074,1.938,0.074
	c2.636,0,2.996-1.206,2.996-2.888v-3.958C96.595,37.938,96.182,36.939,94.352,36.939 M76.856,36.487
	c-1.828,0-2.245,1.002-2.245,2.242v0.697h4.487v-0.697C79.099,37.489,78.683,36.487,76.856,36.487 M42.966,45.112
	c0,0.98,0.463,1.49,1.487,1.49c1.098,0,1.748-0.357,2.549-0.725v-1.965h-2.401C43.464,43.913,42.966,44.124,42.966,45.112
	 M111.37,36.939c-1.83,0-2.464,0.999-2.464,2.239v4.535c0,1.244,0.634,2.244,2.464,2.244c1.826,0,2.467-1,2.467-2.244v-4.535
	C113.837,37.938,113.196,36.939,111.37,36.939 M33.992,50.194h-5.381V37.187h-2.689v-4.484h2.689v-2.691
	c0-3.656,1.519-5.832,5.831-5.832h3.592v4.483H35.79c-1.68,0-1.79,0.627-1.79,1.796l-0.008,2.244h4.068l-0.477,4.484h-3.592V50.194z
	 M52.386,50.228h-4.484l-0.194-1.133c-2.048,1.133-3.876,1.317-5.081,1.317c-3.291,0-5.042-2.194-5.042-5.23
	c0-3.579,2.043-4.857,5.697-4.857h3.721v-0.773c0-1.829-0.21-2.364-3.023-2.364h-4.603l0.45-4.484h5.03
	c6.176,0,7.529,1.949,7.529,6.885V50.228z M67.639,37.515c-2.792-0.479-3.593-0.584-4.937-0.584c-2.412,0-3.141,0.533-3.141,2.578
	v3.87c0,2.046,0.729,2.579,3.141,2.579c1.344,0,2.145-0.105,4.937-0.586v4.371c-2.446,0.549-4.038,0.693-5.384,0.693
	c-5.778,0-8.074-3.035-8.074-7.42v-3.139c0-4.389,2.296-7.428,8.074-7.428c1.346,0,2.938,0.145,5.384,0.693V37.515z M84.48,43.017
	h-9.869v0.362c0,2.046,0.729,2.579,3.142,2.579c2.168,0,3.491-0.105,6.277-0.586v4.371c-2.687,0.549-4.086,0.693-6.724,0.693
	c-5.778,0-8.077-3.035-8.077-7.42v-3.59c0-3.835,1.707-6.977,7.627-6.977c5.921,0,7.624,3.104,7.624,6.977V43.017z M101.976,43.101
	c0,4.236-1.212,7.327-8.559,7.327c-2.65,0-4.209-0.233-7.137-0.685V25.524l5.381-0.896v8.472c1.162-0.432,2.667-0.65,4.037-0.65
	c5.382,0,6.277,2.41,6.277,6.279V43.101z M119.223,43.193c0,3.655-1.512,7.199-7.835,7.199c-6.326,0-7.864-3.544-7.864-7.199v-3.529
	c0-3.657,1.538-7.202,7.864-7.202c6.323,0,7.835,3.545,7.835,7.202V43.193z M136.455,43.193c0,3.655-1.514,7.199-7.833,7.199
	c-6.325,0-7.865-3.544-7.865-7.199v-3.529c0-3.657,1.54-7.202,7.865-7.202c6.319,0,7.833,3.545,7.833,7.202V43.193z M154.143,50.194
	h-5.833l-4.932-8.221v8.221h-5.381v-24.67l5.381-0.896v15.882l4.932-7.809h5.833l-5.385,8.521L154.143,50.194z M128.604,36.939
	c-1.828,0-2.463,0.999-2.463,2.239v4.535c0,1.244,0.635,2.244,2.463,2.244c1.824,0,2.471-1,2.471-2.244v-4.535
	C131.075,37.938,130.429,36.939,128.604,36.939"/>
</svg>
