<?xml version="1.0" encoding="utf-8"?>
<!-- Generator: Adobe Illustrator 16.0.0, SVG Export Plug-In . SVG Version: 6.00 Build 0)  -->
<!DOCTYPE svg PUBLIC "-//W3C//DTD SVG 1.1//EN" "http://www.w3.org/Graphics/SVG/1.1/DTD/svg11.dtd">
<svg version="1.1" id="Layer_1" xmlns="http://www.w3.org/2000/svg" xmlns:xlink="http://www.w3.org/1999/xlink" x="0px" y="0px"
	 width="181.351px" height="78.256px" viewBox="0 0 181.351 78.256" enable-background="new 0 0 181.351 78.256"
	 xml:space="preserve">
<g id="Ebene_x0020_1_1_">
	<g id="_153574520_1_">
		<path id="_153577136_1_" fill="#FFFFFF" d="M61.576,34.353c1.209,0,2.605-0.302,4.192-0.905v3.891
			c-0.354,0.125-0.856,0.264-1.512,0.414c0.201,0.579,0.303,1.121,0.303,1.625c0,1.611-0.484,3.016-1.453,4.211
			c-0.97,1.196-2.224,1.907-3.76,2.134c-1.008,0.151-1.51,0.693-1.51,1.625c0,0.327,0.164,0.655,0.491,0.981
			c0.427,0.479,1.057,0.781,1.887,0.907c3.602,0.554,5.402,2.052,5.402,4.495c0,3.902-2.33,5.854-6.987,5.854
			c-1.914,0-3.488-0.34-4.722-1.02c-1.562-0.855-2.343-2.204-2.343-4.041c0-2.116,1.173-3.564,3.515-4.344v-0.076
			c-0.857-0.527-1.285-1.334-1.285-2.417c0-1.409,0.404-2.292,1.207-2.644v-0.076c-0.803-0.276-1.521-0.906-2.151-1.888
			c-0.705-1.058-1.057-2.192-1.057-3.399c0-1.813,0.641-3.324,1.926-4.533c1.232-1.133,2.706-1.699,4.419-1.699
			C59.372,33.447,60.518,33.749,61.576,34.353z M61.727,54.221L61.727,54.221c0-1.283-1.058-1.926-3.173-1.926
			c-2.04,0-3.06,0.667-3.06,2.001c0,1.31,1.107,1.964,3.324,1.964C60.758,56.26,61.727,55.58,61.727,54.221z M55.909,39.717
			L55.909,39.717c0,1.736,0.794,2.605,2.38,2.605c1.537,0,2.304-0.881,2.304-2.643c0-0.73-0.175-1.36-0.527-1.89
			c-0.43-0.579-1.021-0.868-1.776-0.868C56.703,36.922,55.909,37.854,55.909,39.717z"/>
		<path id="_153577064_1_" fill="#FFFFFF" d="M69.773,30.689c-0.73,0-1.354-0.277-1.869-0.83c-0.517-0.555-0.773-1.209-0.773-1.965
			c0-0.781,0.257-1.447,0.773-2.002c0.516-0.555,1.139-0.831,1.869-0.831c0.705,0,1.316,0.276,1.832,0.831s0.774,1.221,0.774,2.002
			c0,0.756-0.259,1.41-0.774,1.965C71.09,30.412,70.479,30.689,69.773,30.689z"/>
		<path id="_153576992_1_" fill="#FFFFFF" d="M67.62,50.406c0.051-0.504,0.075-1.359,0.075-2.568V36.09
			c0-1.183-0.024-2.001-0.075-2.454h4.269c-0.051,0.479-0.075,1.271-0.075,2.38V47.61c0,1.284,0.024,2.216,0.075,2.796H67.62z"/>
		<path id="_153576920_1_" fill="#FFFFFF" d="M79.705,33.636h3.285v3.663c-0.126,0-0.359-0.012-0.698-0.037
			c-0.341-0.025-0.663-0.039-0.963-0.039h-1.624v7.027c0,1.687,0.554,2.53,1.661,2.53c0.781,0,1.485-0.214,2.114-0.642v3.775
			c-0.931,0.505-2.051,0.756-3.36,0.756c-1.839,0-3.11-0.654-3.815-1.964c-0.528-0.981-0.793-2.53-0.793-4.646v-6.762h0.037v-0.076
			l-0.566-0.037c-0.327,0-0.756,0.037-1.283,0.113v-3.663h1.85v-1.474c0-0.705-0.037-1.271-0.113-1.699h4.381
			c-0.073,0.479-0.111,1.02-0.111,1.624V33.636L79.705,33.636z"/>
		<path id="_153576848_1_" fill="#FFFFFF" d="M92.972,33.522c-1.082,0-2.216,0.378-3.4,1.134v-6.611
			c0-1.434,0.026-2.379,0.075-2.832h-4.305c0.075,0.402,0.113,1.348,0.113,2.832v19.982c0,1.158-0.038,1.951-0.113,2.379h4.381
			c0-0.076-0.025-0.384-0.076-0.926c-0.049-0.541-0.075-1.026-0.075-1.453v-9.293c0.882-0.83,1.737-1.246,2.568-1.246
			c0.957,0,1.688,0.479,2.192,1.436c0.377,0.756,0.566,1.699,0.566,2.832l-0.038,5.1c0,0.855-0.063,2.039-0.19,3.551h4.571
			c-0.101-0.63-0.151-1.788-0.151-3.475v-5.176c0-2.191-0.49-4.054-1.473-5.59C96.51,34.403,94.961,33.522,92.972,33.522
			L92.972,33.522z"/>
		<path id="_153576776_1_" fill="#FFFFFF" d="M106.342,50.558c-1.988,0-3.461-0.883-4.418-2.645
			c-0.756-1.437-1.133-3.312-1.133-5.628v-5.174c0-1.713-0.049-2.871-0.15-3.476h4.532c-0.075,0.554-0.126,1.737-0.152,3.55
			l-0.037,5.1c0,1.436,0.164,2.468,0.492,3.098c0.377,0.78,1.069,1.171,2.077,1.171c0.705,0,1.498-0.415,2.379-1.245v-9.293
			c0-0.429-0.026-0.92-0.076-1.475c-0.051-0.553-0.075-0.855-0.075-0.905h4.382c-0.051,0.428-0.076,1.221-0.076,2.38v11.558
			c0,1.485,0.025,2.43,0.076,2.833h-4.118v-1.359C108.887,50.053,107.652,50.558,106.342,50.558L106.342,50.558z"/>
		<path id="_153576704_1_" fill="#FFFFFF" d="M123.342,50.52c-1.359,0-2.492-0.49-3.4-1.473v1.359h-4.003
			c0.077-0.428,0.113-1.221,0.113-2.379V28.045c0-1.484-0.036-2.43-0.113-2.832h4.307c-0.05,0.453-0.077,1.398-0.077,2.832v6.573
			c1.158-0.731,2.293-1.096,3.399-1.096c1.989,0,3.551,0.881,4.685,2.644c0.957,1.536,1.436,3.398,1.436,5.59
			c0,2.241-0.504,4.193-1.512,5.854C126.968,49.55,125.356,50.52,123.342,50.52z M122.775,37.488L122.775,37.488
			c-0.832,0-1.7,0.416-2.607,1.246v6.535c0.807,0.779,1.6,1.17,2.381,1.17c0.982,0,1.725-0.541,2.229-1.623
			c0.402-0.857,0.604-1.876,0.604-3.061C125.381,38.91,124.514,37.488,122.775,37.488L122.775,37.488z"/>
	</g>
</g>
</svg>
