<?xml version="1.0" encoding="utf-8"?>
<!-- Generator: Adobe Illustrator 16.0.0, SVG Export Plug-In . SVG Version: 6.00 Build 0)  -->
<!DOCTYPE svg PUBLIC "-//W3C//DTD SVG 1.0//EN" "http://www.w3.org/TR/2001/REC-SVG-20010904/DTD/svg10.dtd">
<svg version="1.0" id="Layer_1" xmlns="http://www.w3.org/2000/svg" xmlns:xlink="http://www.w3.org/1999/xlink" x="0px" y="0px"
	 width="65.935px" height="66px" viewBox="0 0 65.935 66" enable-background="new 0 0 65.935 66" xml:space="preserve">
<symbol  id="New_Symbol_3" viewBox="-57.5 -30 115 60">
	<g>
		<path fill="#FFFFFF" d="M27.5,30C15.196,30,4.629,22.59,0,11.992C-4.629,22.59-15.196,30-27.5,30c-16.568,0-30-13.432-30-30
			s13.432-30,30-30h55c16.568,0,30,13.432,30,30S44.068,30,27.5,30z M-30.606,0c0,1.716,1.391,3.107,3.106,3.107
			S-24.394,1.716-24.394,0c0-1.717-1.391-3.107-3.106-3.107S-30.606-1.717-30.606,0z M-10.938-25.012
			C-6.146-21.833-2.324-17.315,0-11.992c2.324-5.323,6.146-9.841,10.938-13.02H-10.938z M27.5-25.012
			c-13.729,0-24.871,11.062-25.006,24.761C2.494-0.167,2.5-0.084,2.5,0S2.494,0.167,2.494,0.251
			C2.629,13.947,13.771,25.012,27.5,25.012c13.813,0,25.013-11.199,25.013-25.012C52.513-13.814,41.313-25.012,27.5-25.012z"/>
	</g>
</symbol>
<g>
	<polygon fill="#FFFFFF" points="21.543,0 65.935,44.708 65.935,66 0,0 	"/>
	<g>
		<path d="M17.154,7.646c1.214-1.217,2.812-1.219,3.774-0.258c1.047,1.044,0.936,2.5-0.152,3.59
			c-1.215,1.217-2.812,1.218-3.773,0.258C15.956,10.19,16.067,8.734,17.154,7.646z M19.97,10.427
			c0.883-0.885,1.221-2.043,0.506-2.757c-0.664-0.663-1.604-0.388-2.515,0.525c-0.883,0.884-1.222,2.044-0.507,2.757
			C18.12,11.616,19.06,11.339,19.97,10.427z"/>
		<path d="M19.751,15.319c-0.326,0.325-0.127,0.594,0.149,0.954l-0.247,0.247l-1.754-1.75l0.246-0.248
			c0.361,0.275,0.629,0.473,0.955,0.147l3.805-3.812l-0.27-0.764l0.148-0.148l1.352,0.642l0.168,0.17l-0.614,0.615
			c0.672-0.078,1.302,0.069,1.825,0.592c0.961,0.96,0.673,2.254-0.301,3.23c-1.307,1.309-2.932,1.31-3.865,0.378
			c-0.439-0.438-0.609-0.933-0.539-1.314L19.751,15.319z M24.266,14.841c0.798-0.799,1.278-1.902,0.485-2.692
			c-0.347-0.347-0.828-0.586-1.266-0.571l-1.758,1.762c-0.65,0.65-0.621,1.344-0.068,1.895
			C22.317,15.89,23.354,15.753,24.266,14.841z"/>
		<path d="M29.163,18.754l-0.219,0.22l-2.533-2.527c-0.924,0.926-1.059,2.05-0.258,2.848c0.529,0.529,1.123,0.6,1.73,0.514
			l0.058,0.185c-0.798,0.46-1.773,0.39-2.565-0.4c-1.033-1.03-0.83-2.452,0.18-3.464c1.236-1.237,2.783-1.345,3.76-0.37
			C30.249,16.69,30.088,17.827,29.163,18.754z M26.778,16.135l1.854,1.849c0.678-0.679,0.811-1.406,0.231-1.985
			C28.305,15.44,27.421,15.604,26.778,16.135z"/>
		<path d="M32.999,21.849c0.508-0.51,0.479-0.892,0.026-1.344c-0.368-0.367-0.933-0.606-1.413-0.662l-2.268,2.271
			c-0.324,0.325-0.134,0.587,0.143,0.946l-0.246,0.248L27.5,21.571l0.247-0.248c0.354,0.269,0.623,0.466,0.947,0.141l2.414-2.42
			l-0.262-0.756l0.148-0.148l1.336,0.628l0.178,0.177l-0.693,0.693c0.687,0.006,1.465,0.076,2.051,0.662
			c0.615,0.613,0.659,1.321-0.167,2.148l-2.005,2.01c-0.324,0.325-0.127,0.594,0.148,0.953l-0.246,0.248l-1.748-1.744l0.247-0.248
			c0.354,0.268,0.622,0.467,0.947,0.141L32.999,21.849z"/>
		<path d="M33.968,27.476l0.897-0.983l0.262,0.261c-0.458,0.744-0.479,1.457,0.101,2.035c0.452,0.453,0.934,0.509,1.301,0.141
			c0.459-0.459,0.289-0.939-0.15-1.773c-0.432-0.826-0.58-1.512,0.062-2.154c0.622-0.623,1.54-0.597,2.283,0.145
			c0.474,0.474,0.735,0.975,0.87,1.463l-0.875,0.877l-0.27-0.268c0.467-0.665,0.431-1.267-0.072-1.768
			c-0.381-0.381-0.855-0.373-1.172-0.056c-0.389,0.39-0.303,0.884,0.072,1.598c0.487,0.925,0.75,1.61,0.037,2.325
			c-0.621,0.622-1.598,0.595-2.41-0.217C34.443,28.642,34.054,28.083,33.968,27.476z"/>
		<path d="M38.714,29.161c1.214-1.217,2.812-1.218,3.773-0.258c1.047,1.045,0.936,2.501-0.152,3.59
			c-1.214,1.217-2.811,1.219-3.773,0.258C37.515,31.707,37.626,30.251,38.714,29.161z M41.528,31.943
			c0.883-0.884,1.222-2.044,0.508-2.757c-0.666-0.664-1.605-0.387-2.516,0.525c-0.883,0.885-1.222,2.043-0.507,2.757
			C39.679,33.132,40.618,32.856,41.528,31.943z"/>
		<path d="M44.308,37.103c-0.693-0.014-1.428-0.041-2.008-0.62c-0.623-0.622-0.666-1.328,0.16-2.155l1.941-1.945
			c0.254-0.256,0.24-0.411-0.057-0.792l-0.1-0.127l0.24-0.241l1.244,0.918l0.107,0.106l-2.627,2.632
			c-0.516,0.516-0.529,0.939-0.076,1.391c0.375,0.375,0.891,0.565,1.379,0.629l2.203-2.207c0.254-0.255,0.239-0.41-0.059-0.791
			l-0.099-0.128l0.24-0.241l1.237,0.91l0.113,0.113l-3.051,3.057c-0.239,0.24-0.211,0.368,0.072,0.721l0.162,0.204l-0.24,0.241
			l-1.379-0.882l-0.098-0.099L44.308,37.103z"/>
		<path d="M49.308,37.94c1.277-0.361,1.745-0.488,2.184-0.051c0.12,0.119,0.17,0.254,0.163,0.359l-0.629,0.63l-0.149-0.148
			c-0.438-0.437-0.785-0.657-1.795-0.563l-1.793,1.797c-0.354,0.354-0.197,0.552,0.256,1.117l-0.247,0.247l-1.882-1.878l0.246-0.248
			c0.354,0.269,0.623,0.466,0.947,0.141l2.415-2.42l-0.262-0.756l0.148-0.148l1.329,0.621l0.184,0.184L49.308,37.94z"/>
		<path d="M50.607,43.7c0.488,0.487,1.024,0.586,1.675,0.472l0.057,0.198c-0.918,0.51-1.787,0.348-2.502-0.365
			c-0.969-0.967-0.85-2.374,0.209-3.436c1.115-1.117,2.783-1.345,3.873-0.258c0.75,0.748,0.863,1.526,0.326,2.064
			c-0.246,0.247-0.48,0.227-0.706,0.142l-0.36-0.36l0.24-0.24c0.395-0.396,0.5-0.898,0.055-1.344c-0.672-0.67-1.746-0.5-2.565,0.321
			C49.983,41.821,49.808,42.902,50.607,43.7z"/>
		<path d="M57.235,46.771l-0.219,0.22l-2.533-2.528c-0.925,0.927-1.059,2.051-0.259,2.849c0.53,0.529,1.124,0.599,1.731,0.515
			l0.057,0.184c-0.798,0.459-1.773,0.391-2.564-0.4c-1.033-1.031-0.83-2.452,0.18-3.464c1.235-1.237,2.783-1.345,3.76-0.37
			C58.321,44.706,58.159,45.845,57.235,46.771z M54.851,44.151l1.854,1.85c0.678-0.68,0.811-1.408,0.23-1.986
			C56.376,43.457,55.493,43.62,54.851,44.151z"/>
	</g>
</g>
</svg>
