<?xml version="1.0" encoding="utf-8"?>
<!-- Generator: Adobe Illustrator 16.0.0, SVG Export Plug-In . SVG Version: 6.00 Build 0)  -->
<!DOCTYPE svg PUBLIC "-//W3C//DTD SVG 1.1//EN" "http://www.w3.org/Graphics/SVG/1.1/DTD/svg11.dtd">
<svg version="1.1" id="Layer_1" xmlns="http://www.w3.org/2000/svg" xmlns:xlink="http://www.w3.org/1999/xlink" x="0px" y="0px"
	 width="92.166px" height="36.667px" viewBox="0 0 92.166 36.667" enable-background="new 0 0 92.166 36.667" xml:space="preserve">
<g>
	<path fill="#FFFFFF" d="M49.215,18.976c-0.786,0-1.35,0.258-1.922,0.519v5.914c0.549,0.056,0.862,0.056,1.384,0.056
		c1.882,0,2.139-0.863,2.139-2.062v-2.827C50.815,19.69,50.52,18.976,49.215,18.976 M36.724,18.654
		c-1.306,0-1.604,0.714-1.604,1.601v0.497h3.204v-0.497C38.324,19.368,38.027,18.654,36.724,18.654 M12.527,24.81
		c0,0.7,0.331,1.064,1.062,1.064c0.784,0,1.248-0.255,1.821-0.518v-1.402h-1.716C12.883,23.955,12.527,24.105,12.527,24.81
		 M61.362,18.976c-1.305,0-1.757,0.714-1.757,1.599v3.238c0,0.888,0.452,1.603,1.757,1.603c1.306,0,1.762-0.715,1.762-1.603v-3.238
		C63.124,19.69,62.668,18.976,61.362,18.976 M6.121,28.438H2.279v-9.286h-1.92v-3.201h1.919v-1.922c0-2.61,1.084-4.164,4.164-4.164
		h2.564v3.201H7.404c-1.199,0-1.279,0.447-1.279,1.283L6.12,15.952h2.905l-0.34,3.201H6.121V28.438z M19.252,28.461h-3.201
		l-0.139-0.809c-1.462,0.809-2.768,0.941-3.628,0.941c-2.35,0-3.601-1.567-3.601-3.734c0-2.555,1.458-3.468,4.068-3.468h2.657
		v-0.553c0-1.306-0.151-1.688-2.16-1.688H9.963l0.32-3.201h3.592c4.408,0,5.375,1.391,5.375,4.915v7.596H19.252z M30.141,19.387
		c-1.993-0.343-2.565-0.417-3.523-0.417c-1.722,0-2.244,0.38-2.244,1.84v2.762c0,1.462,0.522,1.843,2.244,1.843
		c0.958,0,1.531-0.076,3.523-0.419v3.121c-1.747,0.393-2.883,0.495-3.843,0.495c-4.126,0-5.765-2.168-5.765-5.297v-2.241
		c0-3.135,1.639-5.304,5.765-5.304c0.959,0,2.096,0.104,3.843,0.494V19.387z M42.167,23.316H35.12v0.257
		c0,1.462,0.521,1.843,2.243,1.843c1.547,0,2.492-0.076,4.482-0.419v3.121c-1.917,0.394-2.918,0.495-4.8,0.495
		c-4.125,0-5.766-2.167-5.766-5.297v-2.563c0-2.738,1.218-4.981,5.446-4.981c4.227,0,5.443,2.216,5.443,4.981L42.167,23.316
		L42.167,23.316z M54.656,23.375c0,3.023-0.864,5.231-6.111,5.231c-1.892,0-3.004-0.168-5.094-0.488V10.826l3.842-0.639v6.047
		c0.829-0.308,1.903-0.464,2.882-0.464c3.842,0,4.481,1.721,4.481,4.484V23.375L54.656,23.375z M66.971,23.441
		c0,2.61-1.08,5.141-5.594,5.141c-4.517,0-5.616-2.53-5.616-5.141v-2.52c0-2.611,1.1-5.141,5.616-5.141
		c4.514,0,5.594,2.53,5.594,5.141V23.441z M79.273,23.441c0,2.61-1.081,5.141-5.593,5.141c-4.516,0-5.616-2.53-5.616-5.141v-2.52
		c0-2.611,1.101-5.141,5.616-5.141c4.512,0,5.593,2.53,5.593,5.141V23.441z M91.899,28.438h-4.165l-3.519-5.869v5.869h-3.842V10.826
		l3.842-0.639v11.34l3.519-5.576h4.165l-3.843,6.083L91.899,28.438z M73.668,18.976c-1.306,0-1.758,0.714-1.758,1.599v3.238
		c0,0.888,0.452,1.603,1.758,1.603c1.303,0,1.763-0.715,1.763-1.603v-3.238C75.431,19.69,74.971,18.976,73.668,18.976"/>
</g>
</svg>
