<?xml version="1.0" encoding="utf-8"?>
<!-- Generator: Adobe Illustrator 16.0.0, SVG Export Plug-In . SVG Version: 6.00 Build 0)  -->
<!DOCTYPE svg PUBLIC "-//W3C//DTD SVG 1.0//EN" "http://www.w3.org/TR/2001/REC-SVG-20010904/DTD/svg10.dtd">
<svg version="1.0" id="Layer_1" xmlns="http://www.w3.org/2000/svg" xmlns:xlink="http://www.w3.org/1999/xlink" x="0px" y="0px"
	 width="78.5px" height="36px" viewBox="0 0 78.5 36" enable-background="new 0 0 78.5 36" xml:space="preserve">
<symbol  id="New_Symbol_3" viewBox="-57.5 -30 115 60">
	<g>
		<path fill="#FFFFFF" d="M27.5,30C15.196,30,4.629,22.59,0,11.992C-4.629,22.59-15.196,30-27.5,30c-16.568,0-30-13.432-30-30
			s13.432-30,30-30h55c16.568,0,30,13.432,30,30S44.068,30,27.5,30z M-30.606,0c0,1.716,1.391,3.107,3.106,3.107
			S-24.394,1.716-24.394,0c0-1.717-1.391-3.107-3.106-3.107S-30.606-1.717-30.606,0z M-10.938-25.012
			C-6.146-21.833-2.324-17.315,0-11.992c2.324-5.323,6.146-9.841,10.938-13.02H-10.938z M27.5-25.012
			c-13.729,0-24.871,11.062-25.006,24.761C2.494-0.167,2.5-0.084,2.5,0S2.494,0.167,2.494,0.251
			C2.629,13.947,13.771,25.012,27.5,25.012c13.813,0,25.013-11.199,25.013-25.012C52.513-13.814,41.313-25.012,27.5-25.012z"/>
	</g>
</symbol>
<g>
	<g>
		<polygon fill="#FFFFFF" points="1.055,26.679 9.451,26.679 9.451,23.922 4.093,23.922 4.093,13.675 1.055,13.675 1.055,26.679 		
			"/>
		<path fill-rule="evenodd" clip-rule="evenodd" fill="#FFFFFF" d="M13.703,26.679v-9.143h-3.039v9.143H13.703L13.703,26.679z
			 M12.184,16.288c1.06,0,1.719-0.702,1.719-1.581c-0.02-0.897-0.659-1.579-1.699-1.579c-1.039,0-1.719,0.682-1.719,1.579
			c0,0.879,0.659,1.581,1.678,1.581H12.184L12.184,16.288z"/>
		<path fill-rule="evenodd" clip-rule="evenodd" fill="#FFFFFF" d="M15.113,26.679h3.039v-5.105c0-0.273,0.021-0.547,0.102-0.742
			c0.22-0.545,0.72-1.11,1.559-1.11c1.1,0,1.539,0.839,1.539,2.066v4.892h3.039v-5.242c0-2.809-1.5-4.116-3.5-4.116
			c-1.639,0-2.358,0.917-2.758,1.541h0.02v-1.325h-3.039C15.154,18.395,15.113,26.679,15.113,26.679L15.113,26.679z"/>
		<path fill="#FFFFFF" d="M28.678,13.675H25.64v13.004h3.038v-2.964l0.76-0.956l2.379,3.92h3.74l-4-5.676l3.5-3.861h-3.66
			c0,0-2.498,3.456-2.719,3.864V13.675L28.678,13.675z"/>
		<path fill-rule="evenodd" clip-rule="evenodd" fill="#FFFFFF" d="M43.683,22.865c0.04-0.235,0.1-0.685,0.1-1.194
			c0-2.364-1.199-4.763-4.357-4.763c-3.38,0-4.939,2.672-4.939,5.097c0,2.996,1.899,4.869,5.218,4.869
			c1.32,0,2.539-0.195,3.539-0.604l-0.4-2.007c-0.818,0.271-1.658,0.408-2.699,0.408c-1.418,0-2.657-0.583-2.758-1.825
			L43.683,22.865L43.683,22.865z M37.365,20.81c0.079-0.78,0.6-1.932,1.898-1.932c1.379,0,1.699,1.229,1.699,1.932H37.365
			L37.365,20.81z"/>
		<path fill-rule="evenodd" clip-rule="evenodd" fill="#FFFFFF" d="M51.284,13.675v4.324h-0.041
			c-0.44-0.643-1.358-1.072-2.579-1.072c-2.338,0-4.398,1.873-4.378,5.071c0,2.965,1.859,4.896,4.179,4.896
			c1.26,0,2.459-0.547,3.06-1.599h0.06l0.119,1.384h2.699c-0.039-0.644-0.08-1.755-0.08-2.847V13.675H51.284L51.284,13.675z
			 M51.284,22.447c0,0.233-0.021,0.469-0.06,0.662c-0.181,0.839-0.9,1.425-1.779,1.425c-1.261,0-2.08-1.015-2.08-2.614
			c0-1.501,0.701-2.71,2.1-2.71c0.939,0,1.6,0.644,1.778,1.442c0.041,0.176,0.041,0.371,0.041,0.546V22.447L51.284,22.447z"/>
		<g>
			<path fill-rule="evenodd" clip-rule="evenodd" fill="#FFFFFF" d="M68.199,18.851v-0.03c-0.007,0.01-0.014,0.021-0.021,0.03
				H68.199z"/>
			<path fill-rule="evenodd" clip-rule="evenodd" fill="#FFFFFF" d="M76.014,9.718H58.867c-0.821,0-1.488,0.65-1.488,1.45v17.348
				c0,0.801,0.667,1.451,1.488,1.451h17.146c0.82,0,1.486-0.65,1.486-1.451V11.168C77.5,10.368,76.834,9.718,76.014,9.718z
				 M63.479,26.668h-3.039v-9.143h3.039V26.668z M61.959,16.277h-0.02c-1.02,0-1.68-0.704-1.68-1.581
				c0-0.896,0.68-1.579,1.721-1.579c1.037,0,1.678,0.684,1.699,1.579C63.68,15.573,63.018,16.277,61.959,16.277z M74.438,26.668
				h-3.039v-4.892c0-1.228-0.439-2.066-1.539-2.066c-0.841,0-1.341,0.565-1.561,1.11c-0.079,0.195-0.1,0.469-0.1,0.741v5.106H65.16
				c0,0,0.041-8.285,0-9.143h3.039v1.295c0.404-0.623,1.127-1.511,2.738-1.511c2,0,3.5,1.308,3.5,4.116V26.668z"/>
		</g>
	</g>
</g>
</svg>
