<?xml version="1.0" encoding="utf-8"?>
<!-- Generator: Adobe Illustrator 16.0.0, SVG Export Plug-In . SVG Version: 6.00 Build 0)  -->
<!DOCTYPE svg PUBLIC "-//W3C//DTD SVG 1.1//EN" "http://www.w3.org/Graphics/SVG/1.1/DTD/svg11.dtd">
<svg version="1.1" id="Layer_1" xmlns="http://www.w3.org/2000/svg" xmlns:xlink="http://www.w3.org/1999/xlink" x="0px" y="0px"
	 width="63.334px" height="36px" viewBox="0 0 63.334 36" enable-background="new 0 0 63.334 36" xml:space="preserve">
<g>
	<g id="Ebene_x0020_1_8_">
		<g id="_153574520_8_">
			<path id="_153577136_8_" fill="#FFFFFF" d="M10.729,15.397c0.875,0,1.885-0.217,3.033-0.655v2.815
				c-0.255,0.091-0.62,0.192-1.093,0.299c0.146,0.419,0.22,0.812,0.22,1.176c0,1.166-0.352,2.182-1.052,3.047
				c-0.702,0.865-1.609,1.38-2.721,1.543c-0.729,0.109-1.091,0.502-1.091,1.175c0,0.237,0.119,0.476,0.356,0.711
				c0.309,0.347,0.764,0.565,1.365,0.656c2.605,0.4,3.908,1.484,3.908,3.254c0,2.822-1.687,4.234-5.056,4.234
				c-1.385,0-2.524-0.246-3.416-0.737c-1.129-0.62-1.695-1.596-1.695-2.925c0-1.531,0.849-2.578,2.543-3.143v-0.057
				c-0.621-0.382-0.929-0.964-0.929-1.747c0-1.02,0.292-1.659,0.873-1.914v-0.056c-0.581-0.2-1.1-0.655-1.557-1.365
				c-0.51-0.766-0.764-1.586-0.764-2.459c0-1.313,0.463-2.405,1.393-3.28c0.893-0.82,1.958-1.23,3.197-1.23
				C9.135,14.743,9.964,14.961,10.729,15.397z M10.838,29.772L10.838,29.772c0-0.928-0.765-1.393-2.295-1.393
				c-1.476,0-2.214,0.482-2.214,1.448c0,0.946,0.801,1.421,2.405,1.421C10.137,31.247,10.838,30.757,10.838,29.772z M6.63,19.278
				L6.63,19.278c0,1.257,0.575,1.886,1.722,1.886c1.113,0,1.667-0.638,1.667-1.912c0-0.528-0.126-0.984-0.381-1.368
				c-0.311-0.418-0.74-0.628-1.286-0.628C7.204,17.257,6.63,17.931,6.63,19.278z"/>
			<path id="_153577064_8_" fill="#FFFFFF" d="M16.661,12.747c-0.529,0-0.979-0.201-1.352-0.601c-0.374-0.4-0.56-0.875-0.56-1.421
				c0-0.565,0.186-1.047,0.56-1.449c0.373-0.4,0.822-0.601,1.352-0.601c0.51,0,0.953,0.2,1.325,0.601
				c0.373,0.401,0.56,0.884,0.56,1.449c0,0.546-0.188,1.02-0.56,1.421C17.614,12.546,17.171,12.747,16.661,12.747z"/>
			<path id="_153576992_8_" fill="#FFFFFF" d="M15.103,27.013c0.037-0.364,0.055-0.983,0.055-1.858v-8.5
				c0-0.855-0.019-1.447-0.055-1.775h3.089c-0.037,0.346-0.055,0.92-0.055,1.722v8.39c0,0.93,0.019,1.603,0.055,2.022H15.103
				L15.103,27.013z"/>
			<path id="_153576920_8_" fill="#FFFFFF" d="M23.847,14.879h2.378v2.65c-0.092,0-0.26-0.008-0.506-0.026
				c-0.247-0.019-0.479-0.028-0.696-0.028h-1.176v5.084c0,1.221,0.4,1.831,1.202,1.831c0.565,0,1.075-0.155,1.529-0.464v2.73
				c-0.673,0.365-1.483,0.548-2.431,0.548c-1.331,0-2.25-0.474-2.761-1.422c-0.382-0.708-0.573-1.83-0.573-3.36v-4.893h0.026v-0.055
				l-0.409-0.027c-0.238,0-0.548,0.027-0.93,0.082v-2.65h1.339v-1.066c0-0.511-0.026-0.921-0.082-1.23h3.17
				c-0.054,0.346-0.082,0.739-0.082,1.176L23.847,14.879L23.847,14.879z"/>
			<path id="_153576848_8_" fill="#FFFFFF" d="M33.445,14.796c-0.783,0-1.604,0.274-2.46,0.82v-4.783
				c0-1.038,0.019-1.722,0.055-2.049h-3.115c0.055,0.291,0.082,0.975,0.082,2.049v14.458c0,0.839-0.027,1.412-0.082,1.721h3.17
				c0-0.056-0.02-0.277-0.056-0.669c-0.035-0.392-0.055-0.741-0.055-1.05V18.57c0.638-0.601,1.257-0.902,1.859-0.902
				c0.692,0,1.221,0.347,1.585,1.039c0.273,0.548,0.41,1.23,0.41,2.049l-0.028,3.689c0,0.62-0.045,1.476-0.137,2.569h3.308
				c-0.073-0.455-0.11-1.293-0.11-2.514v-3.745c0-1.584-0.354-2.933-1.064-4.044C36.005,15.435,34.886,14.796,33.445,14.796
				L33.445,14.796z"/>
			<path id="_153576776_8_" fill="#FFFFFF" d="M43.12,27.123c-1.438,0-2.504-0.639-3.198-1.914
				c-0.546-1.039-0.818-2.396-0.818-4.071v-3.744c0-1.239-0.035-2.077-0.108-2.515h3.28c-0.056,0.4-0.092,1.257-0.11,2.568
				l-0.027,3.69c0,1.039,0.119,1.785,0.356,2.241c0.273,0.564,0.773,0.847,1.504,0.847c0.51,0,1.084-0.3,1.721-0.901v-6.723
				c0-0.31-0.02-0.666-0.055-1.066c-0.038-0.4-0.056-0.619-0.056-0.655h3.171c-0.037,0.31-0.056,0.884-0.056,1.722v8.361
				c0,1.076,0.019,1.759,0.056,2.05H45.8v-0.983C44.96,26.758,44.067,27.123,43.12,27.123L43.12,27.123z"/>
			<path id="_153576704_8_" fill="#FFFFFF" d="M55.419,27.095c-0.984,0-1.804-0.355-2.459-1.065v0.983h-2.896
				c0.057-0.311,0.081-0.884,0.081-1.721V10.834c0-1.074-0.024-1.759-0.081-2.049h3.114c-0.035,0.327-0.055,1.012-0.055,2.049v4.755
				c0.838-0.528,1.658-0.792,2.458-0.792c1.439,0,2.57,0.637,3.391,1.913c0.692,1.112,1.039,2.458,1.039,4.044
				c0,1.62-0.364,3.034-1.095,4.236C58.043,26.394,56.876,27.095,55.419,27.095z M55.008,17.667L55.008,17.667
				c-0.601,0-1.229,0.301-1.885,0.902v4.729c0.584,0.563,1.156,0.846,1.723,0.846c0.711,0,1.247-0.391,1.612-1.174
				c0.291-0.62,0.438-1.356,0.438-2.215C56.895,18.695,56.267,17.667,55.008,17.667L55.008,17.667z"/>
		</g>
	</g>
</g>
</svg>
