<?xml version="1.0" encoding="utf-8"?>
<!-- Generator: Adobe Illustrator 16.0.0, SVG Export Plug-In . SVG Version: 6.00 Build 0)  -->
<!DOCTYPE svg PUBLIC "-//W3C//DTD SVG 1.0//EN" "http://www.w3.org/TR/2001/REC-SVG-20010904/DTD/svg10.dtd">
<svg version="1.0" id="Layer_1" xmlns="http://www.w3.org/2000/svg" xmlns:xlink="http://www.w3.org/1999/xlink" x="0px" y="0px"
	 width="108.5px" height="36px" viewBox="0 0 108.5 36" enable-background="new 0 0 108.5 36" xml:space="preserve">
<symbol  id="New_Symbol_3" viewBox="-57.5 -30 115 60">
	<g>
		<path fill="#FFFFFF" d="M27.5,30C15.196,30,4.629,22.59,0,11.992C-4.629,22.59-15.196,30-27.5,30c-16.568,0-30-13.432-30-30
			s13.432-30,30-30h55c16.568,0,30,13.432,30,30S44.068,30,27.5,30z M-30.606,0c0,1.716,1.391,3.107,3.106,3.107
			S-24.394,1.716-24.394,0c0-1.717-1.391-3.107-3.106-3.107S-30.606-1.717-30.606,0z M-10.938-25.012
			C-6.146-21.833-2.324-17.315,0-11.992c2.324-5.323,6.146-9.841,10.938-13.02H-10.938z M27.5-25.012
			c-13.729,0-24.871,11.062-25.006,24.761C2.494-0.167,2.5-0.084,2.5,0S2.494,0.167,2.494,0.251
			C2.629,13.947,13.771,25.012,27.5,25.012c13.813,0,25.013-11.199,25.013-25.012C52.513-13.814,41.313-25.012,27.5-25.012z"/>
	</g>
</symbol>
<g>
	<g>
		<g>
			<path fill="#FFFFFF" d="M24.272,28.265c-1.229,0-2.19-0.281-2.989-1.05l0.71-0.711c0.578,0.607,1.361,0.844,2.265,0.844
				c1.199,0,1.938-0.43,1.938-1.289c0-0.635-0.37-0.989-1.215-1.063l-1.197-0.103c-1.421-0.12-2.175-0.757-2.175-1.955
				c0-1.333,1.123-2.131,2.678-2.131c1.036,0,1.969,0.251,2.62,0.785l-0.696,0.695c-0.52-0.399-1.186-0.577-1.938-0.577
				c-1.065,0-1.627,0.459-1.627,1.199c0,0.62,0.354,0.989,1.271,1.064l1.168,0.103c1.272,0.118,2.146,0.606,2.146,1.969
				C27.231,27.45,26.033,28.265,24.272,28.265z"/>
			<path fill="#FFFFFF" d="M30.472,28.175c-1.244,0-1.865-0.872-1.865-1.952v-4.468H27.69v-0.816h0.916v-2.277h1.065v2.277h1.556
				v0.816h-1.556v4.439c0,0.664,0.312,1.063,0.993,1.063h0.562v0.917H30.472z"/>
			<path fill="#FFFFFF" d="M36.612,28.175V27.48c-0.593,0.593-1.125,0.784-2.102,0.784c-1.007,0-1.599-0.191-2.057-0.666
				c-0.354-0.354-0.549-0.902-0.549-1.479c0-1.272,0.889-2.102,2.517-2.102h2.19v-0.695c0-1.064-0.533-1.598-1.865-1.598
				c-0.933,0-1.404,0.222-1.835,0.829l-0.726-0.666c0.653-0.844,1.392-1.081,2.576-1.081c1.952,0,2.913,0.844,2.913,2.427v4.941
				H36.612z M36.612,24.816h-2.043c-1.094,0-1.627,0.444-1.627,1.288c0,0.843,0.518,1.243,1.671,1.243
				c0.623,0,1.171-0.045,1.63-0.489c0.251-0.236,0.369-0.651,0.369-1.257V24.816z"/>
			<path fill="#FFFFFF" d="M42.353,28.265c-1.835,0-3.225-1.243-3.225-3.728c0-2.487,1.39-3.73,3.225-3.73
				c1.005,0,1.645,0.267,2.397,1.081l-0.726,0.68c-0.548-0.607-0.977-0.812-1.672-0.812c-0.711,0-1.302,0.28-1.688,0.828
				c-0.34,0.474-0.473,1.035-0.473,1.954c0,0.916,0.133,1.479,0.473,1.952c0.386,0.547,0.977,0.828,1.688,0.828
				c0.695,0,1.124-0.221,1.672-0.828l0.726,0.696C43.997,27.997,43.357,28.265,42.353,28.265z"/>
			<path fill="#FFFFFF" d="M50.83,28.175l-2.309-3.728l-1.42,1.627v2.101h-1.065V17.64h1.065v7.043l3.284-3.787h1.333l-2.473,2.782
				l2.901,4.497H50.83z"/>
			<path fill="#FFFFFF" d="M58.303,27.317c-0.475,0.504-1.259,0.947-2.397,0.947s-1.909-0.443-2.382-0.947
				c-0.696-0.726-0.874-1.598-0.874-3.003c0-1.393,0.178-2.265,0.874-2.989c0.473-0.504,1.243-0.948,2.382-0.948
				s1.923,0.444,2.397,0.948c0.695,0.725,0.872,1.597,0.872,2.989C59.175,25.72,58.998,26.592,58.303,27.317z M56.808,22.449
				c-0.223-0.222-0.518-0.339-0.902-0.339c-0.384,0-0.666,0.117-0.889,0.339c-0.399,0.398-0.443,1.065-0.443,1.865
				s0.044,1.479,0.443,1.88c0.223,0.22,0.505,0.339,0.889,0.339c0.385,0,0.68-0.119,0.902-0.339c0.399-0.4,0.443-1.08,0.443-1.88
				S57.207,22.848,56.808,22.449z"/>
			<path fill="#FFFFFF" d="M63.747,28.175h-1.509l-2.841-7.708h2.026l1.567,4.765l1.555-4.765h2.027L63.747,28.175z"/>
			<path fill="#FFFFFF" d="M68.63,24.92c0,0.993,0.605,1.717,1.686,1.717c0.844,0,1.258-0.237,1.747-0.724l1.17,1.139
				c-0.784,0.784-1.541,1.213-2.931,1.213c-1.82,0-3.567-0.829-3.567-3.95c0-2.516,1.362-3.938,3.358-3.938
				c2.146,0,3.36,1.569,3.36,3.685v0.858H68.63z M71.382,22.776c-0.208-0.46-0.637-0.8-1.289-0.8c-0.65,0-1.079,0.34-1.285,0.8
				c-0.119,0.28-0.164,0.486-0.178,0.827h2.929C71.546,23.263,71.5,23.057,71.382,22.776z"/>
			<path fill="#FFFFFF" d="M78.971,22.567c-0.295-0.297-0.546-0.457-1.019-0.457c-0.593,0-1.245,0.443-1.245,1.419v4.646h-1.923
				v-7.708h1.88v0.74c0.368-0.445,1.108-0.83,1.938-0.83c0.754,0,1.286,0.193,1.82,0.726L78.971,22.567z"/>
			<path fill="#FFFFFF" d="M83.173,22.153v6.021h-1.924v-6.021H80.45v-1.465h0.799v-0.962c0-1.095,0.682-2.204,2.25-2.204h1.095
				v1.627h-0.739c-0.459,0-0.682,0.251-0.682,0.694v0.845h1.421v1.465H83.173z M88.131,28.175c-1.583,0-2.251-1.109-2.251-2.203
				V17.64h1.924v8.213c0,0.46,0.193,0.695,0.682,0.695h0.74v1.627H88.131z"/>
			<path fill="#FFFFFF" d="M95.543,27.317c-0.474,0.504-1.258,0.947-2.397,0.947s-1.909-0.443-2.382-0.947
				c-0.696-0.726-0.873-1.598-0.873-3.003c0-1.393,0.177-2.265,0.873-2.989c0.473-0.504,1.242-0.948,2.382-0.948
				s1.924,0.444,2.397,0.948c0.695,0.725,0.873,1.597,0.873,2.989C96.416,25.72,96.238,26.592,95.543,27.317z M94.048,22.449
				c-0.221-0.222-0.517-0.339-0.902-0.339c-0.385,0-0.666,0.117-0.888,0.339c-0.399,0.398-0.443,1.065-0.443,1.865
				s0.044,1.479,0.443,1.88c0.222,0.22,0.503,0.339,0.888,0.339c0.386,0,0.682-0.119,0.902-0.339c0.4-0.4,0.444-1.08,0.444-1.88
				S94.448,22.848,94.048,22.449z"/>
			<path fill="#FFFFFF" d="M105.427,28.175h-1.585l-1.61-4.838l-1.614,4.838h-1.584l-2.367-7.708h2.042l1.244,4.765l1.568-4.765
				h1.405l1.583,4.765l1.243-4.765h2.027L105.427,28.175z"/>
		</g>
		<rect x="4.359" y="22.415" fill="#FFFFFF" width="10.584" height="2.26"/>
		
			<rect x="14.784" y="5.721" transform="matrix(0.1712 0.9852 -0.9852 0.1712 23.39 -14.1006)" fill="#FFFFFF" width="10.584" height="2.262"/>
		
			<rect x="4.534" y="19.023" transform="matrix(0.9958 0.0916 -0.0916 0.9958 1.8881 -0.8155)" fill="#FFFFFF" width="10.583" height="2.26"/>
		
			<rect x="5.198" y="15.152" transform="matrix(0.9657 0.2596 -0.2596 0.9657 4.5862 -2.1647)" fill="#FFFFFF" width="10.582" height="2.26"/>
		
			<rect x="6.803" y="11.134" transform="matrix(0.8613 0.5081 -0.5081 0.8613 7.9085 -4.4442)" fill="#FFFFFF" width="10.583" height="2.26"/>
		
			<rect x="10.256" y="7.53" transform="matrix(0.5634 0.8262 -0.8262 0.5634 13.9422 -9.0635)" fill="#FFFFFF" width="10.582" height="2.261"/>
		<path fill="#FFFFFF" d="M16.741,17.237v9.24H2.86v-9.24H1.052v11.014h0.018c0,0.008,0.528,0.008,0.528,0.008H18.53v-0.008
			c0.019,0,0.019-0.528,0.019-0.528V17.237H16.741z"/>
	</g>
</g>
</svg>
