<?xml version="1.0" encoding="utf-8"?>
<!-- Generator: Adobe Illustrator 16.0.0, SVG Export Plug-In . SVG Version: 6.00 Build 0)  -->
<!DOCTYPE svg PUBLIC "-//W3C//DTD SVG 1.0//EN" "http://www.w3.org/TR/2001/REC-SVG-20010904/DTD/svg10.dtd">
<svg version="1.0" id="Layer_1" xmlns="http://www.w3.org/2000/svg" xmlns:xlink="http://www.w3.org/1999/xlink" x="0px" y="0px"
	 width="84.833px" height="36px" viewBox="0 0 84.833 36" enable-background="new 0 0 84.833 36" xml:space="preserve">
<symbol  id="New_Symbol_3" viewBox="-57.5 -30 115 60">
	<g>
		<path fill="#FFFFFF" d="M27.5,30C15.196,30,4.629,22.59,0,11.992C-4.629,22.59-15.196,30-27.5,30c-16.568,0-30-13.432-30-30
			s13.432-30,30-30h55c16.568,0,30,13.432,30,30S44.068,30,27.5,30z M-30.606,0c0,1.716,1.391,3.107,3.106,3.107
			S-24.394,1.716-24.394,0c0-1.717-1.391-3.107-3.106-3.107S-30.606-1.717-30.606,0z M-10.938-25.012
			C-6.146-21.833-2.324-17.315,0-11.992c2.324-5.323,6.146-9.841,10.938-13.02H-10.938z M27.5-25.012
			c-13.729,0-24.871,11.062-25.006,24.761C2.494-0.167,2.5-0.084,2.5,0S2.494,0.167,2.494,0.251
			C2.629,13.947,13.771,25.012,27.5,25.012c13.813,0,25.013-11.199,25.013-25.012C52.513-13.814,41.313-25.012,27.5-25.012z"/>
	</g>
</symbol>
<g>
	<g>
		<path fill="#FFFFFF" d="M7.845,26.864c-3.765,0-6.815-3.051-6.815-6.815l0.023-7.817c0-1.078,0.872-1.951,1.95-1.951
			c1.077,0,1.951,0.873,1.951,1.951v2.927h4.878c1.078,0,1.951,0.873,1.951,1.95c0,1.078-0.873,1.951-1.951,1.951H4.954v0.983
			c0,1.612,1.307,2.918,2.918,2.918h2.936c1.077,0,1.951,0.874,1.951,1.952c0,1.077-0.874,1.951-1.951,1.951H7.845z"/>
		<path fill="#FFFFFF" d="M46.377,26.864c-3.763,0-6.792-3.051-6.792-6.815v-7.817c0-1.078,0.874-1.951,1.95-1.951
			c1.079,0,1.951,0.873,1.951,1.951v2.927h2.926c1.077,0,1.952,0.873,1.952,1.95c0,1.078-0.875,1.951-1.952,1.951h-2.926v0.983
			c0,1.612,1.307,2.918,2.918,2.918h0.984c1.077,0,1.951,0.874,1.951,1.952c0,1.077-0.874,1.951-1.951,1.951H46.377z"/>
		<path fill="#FFFFFF" d="M56.619,26.864c-3.764,0-6.792-3.051-6.792-6.815v-7.817c0-1.078,0.874-1.951,1.95-1.951
			c1.078,0,1.952,0.873,1.952,1.951v2.927h2.926c1.077,0,1.951,0.873,1.951,1.95c0,1.078-0.874,1.951-1.951,1.951h-2.926v0.983
			c0,1.612,1.306,2.918,2.918,2.918h0.984c1.077,0,1.95,0.874,1.95,1.952c0,1.077-0.873,1.951-1.95,1.951H56.619z"/>
		<path fill="#FFFFFF" d="M73.25,21.011c0-3.232,2.591-5.853,5.822-5.853H82c1.075,0,1.95,0.873,1.95,1.95
			c0,1.078-0.875,1.951-1.95,1.951h-2.928c-1.077,0-1.951,0.874-1.951,1.951l0.032,3.902c0,1.077-0.875,1.951-1.953,1.951
			c-1.077,0-1.95-0.874-1.95-1.951V21.011z"/>
		<path fill="#FFFFFF" d="M30.805,15.158c-1.077,0-1.95,0.873-1.95,1.95v3.902c0,1.078-0.874,1.95-1.951,1.95
			c-1.078,0-1.951-0.872-1.951-1.95v-3.902c0-1.077-0.873-1.95-1.951-1.95c-1.077,0-1.951,0.873-1.951,1.95v3.902
			c0,1.078-0.873,1.95-1.951,1.95c-1.077,0-1.95-0.872-1.95-1.95v-3.902c0-1.077-0.874-1.95-1.951-1.95
			c-1.078,0-1.951,0.873-1.951,1.95v3.902c0,3.232,2.62,5.854,5.853,5.854c1.502,0,2.866-0.57,3.902-1.5
			c1.036,0.93,2.401,1.5,3.902,1.5c3.232,0,5.853-2.621,5.853-5.854v-3.902C32.756,16.031,31.882,15.158,30.805,15.158z"/>
		<g>
			<path fill="#FFFFFF" d="M36.171,15.158c-1.079,0-1.951,0.873-1.951,1.95v7.805c0,1.077,0.872,1.951,1.951,1.951
				c1.076,0,1.95-0.874,1.95-1.951v-7.805C38.121,16.031,37.247,15.158,36.171,15.158z"/>
			<circle fill="#FFFFFF" cx="36.171" cy="12.231" r="1.951"/>
		</g>
		<path fill="#FFFFFF" d="M71.775,20.035c0,0.682-0.286,1.945-1.305,1.945c-0.749,0-6.439,0-6.439,0
			c0.214,0.844,0.979,1.469,1.892,1.469h4.156c0.944,0,1.708,0.765,1.708,1.707c0,0.943-0.764,1.708-1.708,1.708h-4.156
			c-3.233,0-5.854-2.641-5.854-6.342c0-3.246,2.621-5.364,5.855-5.364c3.232,0,5.853,2.183,5.853,4.877H71.775z M67.875,19.547
			c0-0.897-0.873-1.625-1.95-1.625c-1.078,0-1.952,0.728-1.952,1.625H67.875z"/>
	</g>
</g>
</svg>
