<?xml version="1.0" encoding="utf-8"?>
<!-- Generator: Adobe Illustrator 16.0.0, SVG Export Plug-In . SVG Version: 6.00 Build 0)  -->
<!DOCTYPE svg PUBLIC "-//W3C//DTD SVG 1.0//EN" "http://www.w3.org/TR/2001/REC-SVG-20010904/DTD/svg10.dtd">
<svg version="1.0" id="Layer_1" xmlns="http://www.w3.org/2000/svg" xmlns:xlink="http://www.w3.org/1999/xlink" x="0px" y="0px"
	 width="137.504px" height="24.242px" viewBox="0 0 137.504 24.242" enable-background="new 0 0 137.504 24.242"
	 xml:space="preserve">
<g id="New_Symbol_9_">
	<g>
		<path d="M35.669,8.554c-0.006,0-0.014,0-0.021,0c0.014-4.332-3.49-7.853-7.822-7.864c-0.004,0-0.01,0-0.018,0c0,0,0,0-0.001,0
			c-2.368,0-4.49,1.034-5.93,2.749c-1.412-1.438-3.808-2.638-5.93-2.667C11.615,0.71,8.054,4.173,7.994,8.505
			c-4.328-0.084-7.908,3.358-7.992,7.69c-0.084,4.33,3.287,7.918,8.064,7.999c4.33,0.07,9.36,0.041,11.897,0.04
			c0,0.002,0,0.006,0,0.008c1.168,0,6.65-0.002,11.533-0.002c1.355,0,2.664,0,3.822,0c4.777-0.002,8.209-3.532,8.195-7.864
			C43.501,12.051,39.993,8.554,35.669,8.554z M39.921,20.52c-1.162,1.165-2.797,1.81-4.602,1.81h-3.822h-9.16h-0.461v-1.742v-11.7
			c0-3.583,2.551-6.283,5.932-6.283V0.807v1.798c1.584,0.004,3.087,0.625,4.204,1.748c1.117,1.123,1.73,2.614,1.725,4.197
			l0.016,1.918h1.918c3.264,0,5.922,2.655,5.93,5.915C41.607,17.958,41.009,19.429,39.921,20.52z"/>
	</g>
	<g>
		<g enable-background="new    ">
			<path d="M62.482,23.846v-8.988c0-1.073-0.027-2.037-0.451-2.656c-0.451-0.622-1.102-0.905-1.979-0.905
				c-2.232,0-3.25,1.442-3.25,3.731v8.818h-3.816V1.571h3.816v9.554h0.027c0.594-1.328,2.092-2.684,4.58-2.684
				c3.363,0,4.889,1.723,4.889,5.37v10.032h-3.816V23.846L62.482,23.846z"/>
			<path d="M80.971,13.896c-0.17-1.526-1.104-2.771-2.996-2.771c-2.545,0-3.449,2.262-3.449,5.117c0,2.797,0.679,5.229,3.42,5.229
				c2.205,0,3.054-1.582,3.166-2.966h3.787c-0.225,3.731-3.192,5.737-6.953,5.737c-4.918,0-7.35-2.967-7.35-7.914
				c0-5.004,2.801-7.914,7.406-7.914c3.703,0,6.586,1.78,6.842,5.482H80.971L80.971,13.896z"/>
			<path d="M93.125,23.846h-3.703V1.571h3.703v14.106l6.021-6.898h4.211l-5.484,6.105l5.994,8.959H99.57l-4.211-6.586l-2.234,2.519
				V23.846L93.125,23.846z"/>
		</g>
		<g enable-background="new    ">
			<path d="M112.402,17.43v6.413h-3.787V8.78h3.648v3.535h0.055c1.074-2.771,2.996-3.815,5.711-3.815
				c0.988,0,2.119,0.196,2.77,0.537v3.279c-0.82-0.312-1.838-0.537-3.166-0.537C114.211,11.774,112.402,13.954,112.402,17.43z"/>
		</g>
		<g enable-background="new    ">
			<path d="M133.631,12.906c-0.143-1.188-1.074-1.78-2.77-1.78c-1.726,0-2.713,0.651-2.713,1.667c0,1.046,0.592,1.471,2.203,1.723
				l2.571,0.426c3.336,0.537,4.58,1.922,4.58,4.211c0,3.337-2.573,5.09-6.698,5.09c-4.298,0-6.476-1.611-6.757-4.778h3.562
				c0.227,1.33,0.99,2.093,3.195,2.093c2.118,0,3.108-0.565,3.108-1.81c0-1.019-0.565-1.412-2.315-1.696l-2.658-0.426
				c-2.545-0.395-4.354-1.609-4.354-4.436c0-2.743,2.291-4.778,6.304-4.778c4.239,0,6.106,1.979,6.332,4.495H133.631L133.631,12.906
				z"/>
		</g>
	</g>
</g>
</svg>
