<?xml version="1.0" encoding="utf-8"?>
<!-- Generator: Adobe Illustrator 16.0.0, SVG Export Plug-In . SVG Version: 6.00 Build 0)  -->
<!DOCTYPE svg PUBLIC "-//W3C//DTD SVG 1.0//EN" "http://www.w3.org/TR/2001/REC-SVG-20010904/DTD/svg10.dtd">
<svg version="1.0" id="Layer_1" xmlns="http://www.w3.org/2000/svg" xmlns:xlink="http://www.w3.org/1999/xlink" x="0px" y="0px"
	 width="102.5px" height="78px" viewBox="0 0 102.5 78" enable-background="new 0 0 102.5 78" xml:space="preserve">
<path fill="#FFFFFF" d="M75.641,16.753c-10.605,0-19.715,6.387-23.705,15.522c-3.99-9.136-13.1-15.522-23.705-15.522
	c-14.281,0-25.859,11.577-25.859,25.859S13.949,68.472,28.23,68.472h47.41c14.281,0,25.859-11.577,25.859-25.859
	S89.922,16.753,75.641,16.753z M25.553,42.612c0-1.479,1.199-2.679,2.678-2.679s2.678,1.199,2.678,2.679s-1.199,2.679-2.678,2.679
	S25.553,44.092,25.553,42.612z M42.508,64.172c4.129-2.74,7.424-6.634,9.428-11.223c2.004,4.589,5.298,8.482,9.428,11.223H42.508z
	 M75.641,64.172c-11.835,0-21.439-9.535-21.555-21.344c0-0.072,0.004-0.144,0.004-0.216s-0.004-0.144-0.004-0.216
	c0.115-11.807,9.72-21.344,21.555-21.344c11.906,0,21.561,9.653,21.561,21.56C97.201,54.521,87.547,64.172,75.641,64.172z"/>
</svg>
