<?xml version="1.0" encoding="utf-8"?>
<!-- Generator: Adobe Illustrator 16.0.0, SVG Export Plug-In . SVG Version: 6.00 Build 0)  -->
<!DOCTYPE svg PUBLIC "-//W3C//DTD SVG 1.0//EN" "http://www.w3.org/TR/2001/REC-SVG-20010904/DTD/svg10.dtd">
<svg version="1.0" id="Layer_1" xmlns="http://www.w3.org/2000/svg" xmlns:xlink="http://www.w3.org/1999/xlink" x="0px" y="0px"
	 width="83.637px" height="73px" viewBox="0 0 83.637 73" enable-background="new 0 0 83.637 73" xml:space="preserve">
<symbol  id="New_Symbol_3_1_" viewBox="-57.5 -30 115 60">
	<g>
		<path fill="#FFFFFF" d="M27.5,30C15.196,30,4.629,22.59,0,11.992C-4.629,22.59-15.196,30-27.5,30c-16.568,0-30-13.432-30-30
			s13.432-30,30-30h55c16.568,0,30,13.432,30,30S44.068,30,27.5,30z M-30.606,0c0,1.716,1.391,3.107,3.106,3.107
			S-24.394,1.716-24.394,0c0-1.717-1.391-3.107-3.106-3.107S-30.606-1.717-30.606,0z M-10.938-25.012
			C-6.146-21.833-2.324-17.315,0-11.992c2.324-5.323,6.146-9.841,10.938-13.02H-10.938z M27.5-25.012
			c-13.729,0-24.871,11.062-25.006,24.761C2.494-0.167,2.5-0.084,2.5,0S2.494,0.167,2.494,0.251
			C2.629,13.947,13.771,25.012,27.5,25.012c13.813,0,25.013-11.199,25.013-25.012C52.513-13.814,41.313-25.012,27.5-25.012z"/>
	</g>
</symbol>
<g id="New_Symbol_3">
</g>
<g id="New_Symbol_4">
</g>
<g>
	<path fill="#FFFFFF" d="M83.353,22h-8V11h-36v54h36v-4h8V22z M71.353,61h-28V15h28v6.826v38.818V61z M79.353,57h-4V26h4V57z"/>
	<path fill="#FFFFFF" d="M7.353,11v11h-7v39h7v4h35V11H7.353z M4.353,57V26h3v31H4.353z"/>
</g>
<g>
	<path fill="#FFFFFF" d="M57.29,14.422c0.011,0.694,0.022,4.458,0.063,6.935c0.019,1.109,0.253,2.694,0.253,2.694
		c-0.651,0.686-1.791,1.262-2.796,1.276c-2.014,0.029-3.669-1.581-3.696-3.593c-2.012,0.039-3.676-1.562-3.714-3.573
		c-0.039-2.013,1.527-3.68,3.749-3.718C53.625,14.404,56.596,14.434,57.29,14.422z"/>
	<g>
		<g>
			<path fill="#FFFFFF" d="M60.321,25.365v-0.888c-1.571,0-2.757-1.256-2.757-2.921V16.12v-0.81h0.214h4.258h1.775
				c0.838,0,1.598,0.299,2.138,0.842c0.507,0.507,0.785,1.19,0.781,1.921c-0.003,1.517-1.24,2.749-2.755,2.749h-0.893l-0.007,0.891
				c0.003,0.736-0.282,1.43-0.801,1.95c-0.521,0.522-1.211,0.812-1.947,0.814L60.321,25.365 M60.321,25.365c0.004,0,0.009,0,0.009,0
				c2.013-0.005,3.642-1.641,3.635-3.654c0.005,0,0.011,0,0.011,0c2.01,0,3.64-1.625,3.645-3.634
				c0.007-2.013-1.59-3.654-3.809-3.655c-0.537,0-1.146,0-1.775,0c-2.271,0-4.817-0.001-5.359-0.001
				c0,0.695,0.001,4.659,0.001,7.136C56.678,23.772,58.313,25.365,60.321,25.365L60.321,25.365z"/>
		</g>
	</g>
</g>
</svg>
