<?xml version="1.0" encoding="utf-8"?>
<!-- Generator: Adobe Illustrator 16.0.0, SVG Export Plug-In . SVG Version: 6.00 Build 0)  -->
<!DOCTYPE svg PUBLIC "-//W3C//DTD SVG 1.0//EN" "http://www.w3.org/TR/2001/REC-SVG-20010904/DTD/svg10.dtd">
<svg version="1.0" id="Layer_1" xmlns="http://www.w3.org/2000/svg" xmlns:xlink="http://www.w3.org/1999/xlink" x="0px" y="0px"
	 width="109.798px" height="73px" viewBox="0 0 109.798 73" enable-background="new 0 0 109.798 73" xml:space="preserve">
<symbol  id="New_Symbol_3_1_" viewBox="-57.5 -30 115 60">
	<g>
		<path fill="#FFFFFF" d="M27.5,30C15.196,30,4.629,22.59,0,11.992C-4.629,22.59-15.196,30-27.5,30c-16.568,0-30-13.432-30-30
			s13.432-30,30-30h55c16.568,0,30,13.432,30,30S44.068,30,27.5,30z M-30.606,0c0,1.716,1.391,3.107,3.106,3.107
			S-24.394,1.716-24.394,0c0-1.717-1.391-3.107-3.106-3.107S-30.606-1.717-30.606,0z M-10.938-25.012
			C-6.146-21.833-2.324-17.315,0-11.992c2.324-5.323,6.146-9.841,10.938-13.02H-10.938z M27.5-25.012
			c-13.729,0-24.871,11.062-25.006,24.761C2.494-0.167,2.5-0.084,2.5,0S2.494,0.167,2.494,0.251
			C2.629,13.947,13.771,25.012,27.5,25.012c13.813,0,25.013-11.199,25.013-25.012C52.513-13.814,41.313-25.012,27.5-25.012z"/>
	</g>
</symbol>
<g id="New_Symbol_3">
</g>
<g id="New_Symbol_4">
</g>
<g>
	<g>
		<rect x="3.798" y="16.333" fill="#FFFFFF" width="50" height="37"/>
		<path fill="#FFFFFF" d="M55.798,54.333h-53v-40h53V54.333z M5.798,51.333h47v-34h-47V51.333z"/>
	</g>
	<g>
		<polygon fill="#FFFFFF" points="55.643,53.011 58.295,62.333 2.633,62.333 5.192,53.224 		"/>
		<path fill="#FFFFFF" d="M60.943,64.333h-60.95L3.675,51.23l53.477-0.227L60.943,64.333z M5.272,60.333h50.374l-1.513-5.315
			L6.71,55.217L5.272,60.333z"/>
	</g>
	<path fill="#FFFFFF" d="M109.798,55.333h-56v-41h56V55.333z M57.798,51.333h48v-33h-48V51.333z"/>
</g>
<g id="surface1_3_">
	<path fill="#010101" d="M29.029,38.15l-3.096-3.789l3.095-3.827l0.843,0.681l-2.541,3.143l2.539,3.107L29.029,38.15z"/>
	<path fill="#010101" d="M33.117,38.15l-0.843-0.682l2.54-3.142l-2.538-3.109l0.839-0.685l3.095,3.79L33.117,38.15z"/>
</g>
</svg>
