<?xml version="1.0" encoding="utf-8"?>
<!-- Generator: Adobe Illustrator 16.0.0, SVG Export Plug-In . SVG Version: 6.00 Build 0)  -->
<!DOCTYPE svg PUBLIC "-//W3C//DTD SVG 1.0//EN" "http://www.w3.org/TR/2001/REC-SVG-20010904/DTD/svg10.dtd">
<svg version="1.0" id="Layer_1" xmlns="http://www.w3.org/2000/svg" xmlns:xlink="http://www.w3.org/1999/xlink" x="0px" y="0px"
	 width="417px" height="95px" viewBox="0 0 417 95" enable-background="new 0 0 417 95" xml:space="preserve">
<g>
	<g>
		<polygon fill="#333333" points="221.7,233.483 275.502,220.786 389.188,221.891 390.24,156.292 266.12,160.155 264.465,208.094 		
			"/>
	</g>
	<polygon fill="#333333" points="280.034,204.375 278.482,174.628 285.346,174.009 286.47,187.133 292.621,187.577 293.543,175 
		299.238,175 300.516,204.274 295.184,203.957 293.029,192.006 286.364,191.567 286.159,204.168 	"/>
	<polygon fill="#333333" points="304.822,174.62 305.336,203.743 327.69,205.794 327.588,199.539 311.898,197.692 312.104,191.95 
		320.102,192.258 320.923,188.566 312.001,188.053 312.206,181.08 324.102,181.388 323.794,174.723 	"/>
	<polygon fill="#333333" points="332.101,205.178 353.737,204.256 353.122,198.187 337.819,198.863 335.666,175.029 
		329.537,174.928 	"/>
	<polygon fill="#333333" points="357.119,204.554 357.049,175.436 378,175.337 378,192.243 363.24,192.868 363.013,204.461 	"/>
	<polygon fill="#333333" points="362.83,180.466 362.852,187 372,186.6 372,180.341 	"/>
</g>
<circle fill="#333333" cx="161.217" cy="204.819" r="47.398"/>
<circle fill="#333333" cx="43.398" cy="204.819" r="47.398"/>
<g>
	<polygon fill="#333333" points="119,263 119,267 127,267 127,281 131,281 131,267 142,267 142,263 	"/>
	<g>
		<polygon fill="#333333" points="144,263.329 144,281 161,281 161,264.058 		"/>
		<rect x="147" y="268" fill="#333333" width="10" height="9"/>
	</g>
	<g>
		<polygon fill="#333333" points="165,263.961 165,281 182,281 182,263.427 		"/>
		<rect x="167" y="268" fill="#333333" width="10" height="9"/>
	</g>
	<path fill="#333333" d="M184,282c1,0,0-19,0-19h7.484l5.516,7.985V263h5v19h-4.195L189,268.524V282H184z"/>
</g>
<g>
	<polygon fill="#333333" points="-2,263 -2,267 6.78,267 6.886,273.941 4.733,278.089 0.062,275.988 0.175,280.409 6.721,282.902 
		10.903,274.359 10.798,267 16,267 16,263 	"/>
	<g>
		<polygon fill="#333333" points="15.606,281.336 21.377,263 26.659,263 32.724,282.267 28.028,281.857 25.967,274 22.069,274 
			19.812,281.435 		"/>
		<polygon fill="#333333" points="23.138,271.282 23.92,267.678 24.898,271.233 		"/>
	</g>
	<polygon fill="#333333" points="35,263.277 35,282 39,282 39,274 43.197,274 46.066,281.842 49.327,281.982 46.718,271.615 
		49.718,266.882 45.228,262.935 	"/>
	<polygon fill="#333333" points="38.723,266.809 42.969,266.51 44.648,267.859 42.806,270 38.397,270 	"/>
	<path fill="#333333" d="M52,282c1,0,0-19,0-19h6.492L64,271.043V263h3v19h-2.788L56,268.438V282H52z"/>
	<g>
		<polygon fill="#333333" points="70,263.428 70,282 85,282 85,263.534 		"/>
		<rect x="73" y="269" fill="#333333" width="9" height="9"/>
	</g>
</g>
<g>
	<g>
		<polygon fill="#333333" points="221.7,-470.722 275.502,-483.419 389.188,-482.315 390.24,-547.914 266.12,-544.05 
			264.465,-496.112 		"/>
	</g>
	<polygon fill="#333333" points="280.034,-499.83 278.482,-529.577 285.346,-530.196 286.47,-517.073 292.621,-517.025 
		293.543,-530 299.238,-530 300.516,-500.328 295.184,-500.447 293.029,-512.298 286.364,-512.687 286.159,-500.063 	"/>
	<polygon fill="#333333" points="304.822,-529.585 305.336,-500.462 327.69,-498.412 327.588,-504.667 311.898,-506.513 
		312.104,-512.255 320.102,-511.948 320.923,-515.64 312.001,-516.152 312.206,-523.125 324.102,-522.818 323.794,-529.483 	"/>
	<polygon fill="#333333" points="332.101,-499.027 353.737,-499.95 353.122,-506.019 337.819,-505.342 335.666,-529.176 
		329.537,-529.278 	"/>
	<polygon fill="#333333" points="357.119,-499.651 357.049,-528.77 378,-528.868 378,-511.962 363.24,-511.337 363.013,-499.745 	
		"/>
	<polygon fill="#333333" points="362.83,-523.739 362.852,-517.206 372,-517.606 372,-523.864 	"/>
</g>
<circle fill="#333333" cx="161.217" cy="-499.386" r="47.398"/>
<circle fill="#333333" cx="43.398" cy="-499.386" r="47.398"/>
<g>
	<polygon fill="#333333" points="119,-442 119,-437 127,-437 127,-423 131,-423 131,-437 142,-437 142,-442 	"/>
	<g>
		<polygon fill="#333333" points="144,-440.876 144,-423 161,-423 161,-440.147 		"/>
		<rect x="147" y="-436" fill="#333333" width="10" height="9"/>
	</g>
	<g>
		<polygon fill="#333333" points="165,-440.244 165,-423 182,-423 182,-440.779 		"/>
		<rect x="167" y="-436" fill="#333333" width="10" height="9"/>
	</g>
	<path fill="#333333" d="M184-423c1,0,0-18,0-18h7.484l5.516,7.78V-441h5v18h-4.195L189-435.681V-423H184z"/>
</g>
<g>
	<polygon fill="#333333" points="-2,-441 -2,-437 6.78,-437 6.886,-430.161 4.733,-426.065 0.062,-428.192 0.175,-423.783 
		6.721,-421.296 10.903,-429.741 10.798,-437 16,-437 16,-441 	"/>
	<g>
		<polygon fill="#333333" points="15.606,-422.767 21.377,-441 26.659,-441 32.724,-421.836 28.028,-422.194 25.967,-430 
			22.069,-430 19.812,-422.617 		"/>
		<polygon fill="#333333" points="23.138,-432.923 23.92,-436.527 24.898,-432.972 		"/>
	</g>
	<polygon fill="#333333" points="35,-440.928 35,-422 39,-422 39,-430 43.197,-430 46.066,-422.261 49.327,-422.171 
		46.718,-432.565 49.718,-437.311 45.228,-441.264 	"/>
	<polygon fill="#333333" points="38.723,-437.295 42.969,-437.645 44.648,-436.217 42.806,-434 38.397,-434 	"/>
	<path fill="#333333" d="M52-422c1,0,0-19,0-19h6.492L64-433.162V-441h3v19h-2.788L56-435.768V-422H52z"/>
	<g>
		<polygon fill="#333333" points="70,-440.778 70,-422 85,-422 85,-440.671 		"/>
		<rect x="73" y="-436" fill="#333333" width="9" height="10"/>
	</g>
</g>
<g>
	<polygon fill="#333333" stroke="#FFFFFF" stroke-width="0" stroke-linecap="round" stroke-linejoin="round" points="
		220.347,-220.864 249.094,-247.104 362.779,-246 363.833,-311.598 239.712,-307.735 238.058,-259.797 	"/>
	<polygon fill="#333333" stroke="#333333" stroke-width="0" stroke-linecap="round" stroke-linejoin="round" points="
		252.074,-293.262 253.626,-263.515 259.752,-263.736 259.957,-276.349 266.622,-275.938 268.775,-264.04 274.107,-263.671 
		272.83,-293 267.135,-293 266.214,-280.367 260.062,-280.679 258.938,-293.842 	"/>
	<polygon fill="#333333" stroke="#333333" stroke-width="0" stroke-linecap="round" stroke-linejoin="round" points="
		278.415,-293.271 278.928,-264.147 301.283,-262.097 301.18,-268.352 285.49,-270.197 285.695,-275.94 293.694,-275.633 
		294.515,-279.324 285.593,-279.837 285.798,-286.81 297.693,-286.502 297.386,-293.168 	"/>
	<polygon fill="#333333" stroke="#333333" stroke-width="0" stroke-linecap="round" stroke-linejoin="round" points="
		303.129,-292.963 305.692,-262.712 327.33,-263.635 326.715,-269.704 311.412,-269.027 309.258,-292.86 	"/>
	<polygon fill="#333333" stroke="#333333" stroke-width="0" stroke-linecap="round" stroke-linejoin="round" points="
		330.345,-292.455 330.589,-263.337 336.518,-263.43 336.506,-275.022 351,-275.647 351,-292.553 	"/>
	<polygon fill="#333333" stroke="#FFFFFF" stroke-width="0" stroke-linecap="round" stroke-linejoin="round" points="345,-287.549 
		336.125,-287.424 335.999,-280.891 345,-281.291 	"/>
	
		<circle fill="#333333" stroke="#333333" stroke-width="0" stroke-linecap="round" stroke-linejoin="round" cx="161.217" cy="-231.924" r="47.398"/>
	
		<circle fill="#333333" stroke="#333333" stroke-width="0" stroke-linecap="round" stroke-linejoin="round" cx="43.398" cy="-231.924" r="47.398"/>
	<polygon fill="#333333" stroke="#333333" stroke-width="0" stroke-linecap="round" stroke-linejoin="round" points="115,-169 
		124,-169 124,-155 129,-155 129,-169 140,-169 140,-174 115,-174 	"/>
	<polygon fill="#333333" stroke="#333333" stroke-width="0" stroke-linecap="round" stroke-linejoin="round" points="142,-155 
		161,-155 161,-172.581 142,-173.361 	"/>
	
		<rect x="146" y="-168" fill="#333333" stroke="#FFFFFF" stroke-width="0" stroke-linecap="round" stroke-linejoin="round" width="10" height="9"/>
	<polygon fill="#333333" stroke="#333333" stroke-width="0" stroke-linecap="round" stroke-linejoin="round" points="164,-155 
		182,-155 182,-173.257 164,-172.684 	"/>
	
		<rect x="167" y="-168" fill="#333333" stroke="#FFFFFF" stroke-width="0" stroke-linecap="round" stroke-linejoin="round" width="11" height="9"/>
	<polygon fill="#333333" stroke="#333333" stroke-width="0" stroke-linecap="round" stroke-linejoin="round" points="186,-154 
		190,-154 190,-167.795 199.813,-154 204,-154 204,-173 199,-173 199,-165.158 193.042,-173 186,-173 	"/>
	<polygon fill="#333333" stroke="#333333" stroke-width="0" stroke-linecap="round" stroke-linejoin="round" points="-4,-171 
		4.749,-171 4.854,-164.446 2.702,-160.492 -1.969,-162.69 -1.856,-158.315 4.689,-155.847 8.872,-164.016 8.767,-171 14,-171 
		14,-175 -4,-175 	"/>
	<polygon fill="#333333" stroke="#333333" stroke-width="0" stroke-linecap="round" stroke-linejoin="round" points="
		13.575,-157.051 17.78,-157.259 20.038,-165 23.936,-165 25.997,-156.96 30.692,-156.204 24.628,-175 19.346,-175 	"/>
	<polygon fill="#333333" stroke="#FFFFFF" stroke-width="0" stroke-linecap="round" stroke-linejoin="round" points="
		21.106,-167.491 22.867,-167.541 21.889,-171.096 	"/>
	<polygon fill="#333333" stroke="#333333" stroke-width="0" stroke-linecap="round" stroke-linejoin="round" points="33,-157 
		37,-157 37,-165 41.166,-165 44.035,-157.045 47.296,-156.848 44.687,-167.188 47.687,-171.906 43.212,-175.847 33,-175.497 	"/>
	<polygon fill="#333333" stroke="#FFFFFF" stroke-width="0" stroke-linecap="round" stroke-linejoin="round" points="36.366,-169 
		40.774,-169 42.617,-171.021 40.938,-172.321 36.691,-172.114 	"/>
	<path fill="#333333" stroke="#333333" stroke-width="0" stroke-linecap="round" stroke-linejoin="round" d="M50-157h4v-13.336
		L62.181-157H65v-18h-3v7.269L56.461-175H50C50-175,51-157,50-157z"/>
	<polygon fill="#333333" stroke="#333333" stroke-width="0" stroke-linecap="round" stroke-linejoin="round" points="68,-157 
		83,-157 83,-175.24 68,-175.346 	"/>
	
		<rect x="71" y="-170" fill="#333333" stroke="#FFFFFF" stroke-width="0" stroke-linecap="round" stroke-linejoin="round" width="9" height="9"/>
</g>
<g opacity="0.6">
	<path fill="#FFFFFF" d="M287.11,8.48l-1.654,47.938l-42.765,25.39l53.801-12.697l113.686,1.104l1.054-65.599L287.11,8.48z
		 M316.174,52.175l-2.153-11.897l-6.665-0.412l-0.205,12.613l-6.126,0.221l-1.552-29.747l6.864-0.62l1.124,13.124l6.151,0.283
		L314.533,23h5.695l1.277,29.437L316.174,52.175z M326.326,52.068l-0.513-29.124l18.971,0.103l0.308,6.666l-11.896-0.308
		l-0.205,6.973l8.922,0.513l-0.82,3.691l-7.999-0.307l-0.205,5.742l15.689,1.847l0.104,6.254L326.326,52.068z M353.091,53.503
		l-2.563-30.25l6.129,0.103l2.154,23.833l15.303-0.676l0.615,6.069L353.091,53.503z M399,40.568l-14.765,0.625l-0.229,11.592
		l-5.883,0.093l-0.072-29.119L399,23.662V40.568z"/>
	<polygon fill="#FFFFFF" points="393,28.666 383.824,28.791 383.849,35.325 393,34.925 	"/>
</g>
<g opacity="0.6">
	<polygon fill="#FFFFFF" points="144,74 152,74 152,88 156,88 156,74 167,74 167,70 144,70 	"/>
	<path fill="#FFFFFF" d="M169,88h17V71.078l-17-0.729V88z M172,75h10v9h-10V75z"/>
	<path fill="#FFFFFF" d="M190,88h17V70.447l-17,0.535V88z M192,75h11v9h-11V75z"/>
	<path fill="#FFFFFF" d="M222,70v8.006L216.538,70H209c0,0,1,19,0,19h5V75.545L222.857,89H227V70H222z"/>
</g>
<g opacity="0.6">
	<polygon fill="#FFFFFF" points="20,74 20,70 2,70 2,74 10.843,74 10.948,80.951 8.796,85.104 4.125,83.006 4.238,87.43 
		10.784,89.923 14.966,81.369 14.861,74 	"/>
	<path fill="#FFFFFF" d="M25.44,70l-5.771,18.347l4.206,0.093L26.132,81h3.897l2.062,7.938l4.695,0.307L30.722,70H25.44z
		 M27.2,78.303l0.783-3.604l0.978,3.555L27.2,78.303z"/>
	<path fill="#FFFFFF" d="M49.26,69.959L39,70.297V89h4v-8h4.26l2.869,7.853l3.261,0.146l-2.608-10.365l3.085-4.732L49.26,69.959z
		 M46.869,77h-4.409l0.326-3.182l4.246-0.293l1.679,1.342L46.869,77z"/>
	<path fill="#FFFFFF" d="M68,78.064L62.555,70H56c0,0,1,19,0,19h4V75.459L68.274,89H71V70h-3V78.064z"/>
	<path fill="#FFFFFF" d="M74,70.448V89h15V70.555L74,70.448z M86,85h-9v-9h9V85z"/>
</g>
<g opacity="0.6">
	<path fill="#FFFFFF" d="M132.963,78.168l-2.724-3.514l-6.327,5.799l-6.591-1.23l4.13-5.887l-2.373-4.043l-13.796-0.351
		l0.088,12.654l5.448,0.791l0.176,9.578l6.766-0.176l7.118-6.151l4.394,4.218l3.603-2.899l-4.745-4.394L132.963,78.168z
		 M109.237,77.686l-0.088-5.141l6.942,0.527l-3.515,5.359L109.237,77.686z M115.564,87.659l-0.616-4.921l5.449,1.318L115.564,87.659
		z"/>
</g>
</svg>
