<?xml version="1.0" encoding="utf-8"?>
<!-- Generator: Adobe Illustrator 16.0.0, SVG Export Plug-In . SVG Version: 6.00 Build 0)  -->
<!DOCTYPE svg PUBLIC "-//W3C//DTD SVG 1.0//EN" "http://www.w3.org/TR/2001/REC-SVG-20010904/DTD/svg10.dtd">
<svg version="1.0" id="Layer_1" xmlns="http://www.w3.org/2000/svg" xmlns:xlink="http://www.w3.org/1999/xlink" x="0px" y="0px"
	 width="190.333px" height="62.999px" viewBox="0 0 190.333 62.999" enable-background="new 0 0 190.333 62.999"
	 xml:space="preserve">
<g id="Layer_2" display="none">
	<rect x="-116.333" y="-68.667" display="inline" fill="#2081B7" width="490" height="191"/>
</g>
<g id="New_Symbol">
	<g>
		<text transform="matrix(1 0 0 1 6.9995 62.022)" fill="#FFFFFF" font-family="'AtlasTypewriter-Light'" font-size="12">local hackers tribe</text>
	</g>
	<g>
		<text transform="matrix(1 0 0 1 73.4868 42.9434)"><tspan x="0" y="0" fill="#333333" font-family="'AtlasTypewriter-Medium'" font-size="28">hck</tspan><tspan x="53.76" y="0" fill="#333333" font-family="'AtlasTypewriter-Medium'" font-size="28" letter-spacing="-1">r</tspan><tspan x="70.56" y="0" fill="#333333" font-family="'AtlasTypewriter-Medium'" font-size="28">s</tspan></text>
	</g>
	<g>
		<rect x="156.372" y="1.03" fill="#1666A8" width="33" height="13"/>
		<g>
			<path fill="#FFFFFF" d="M160.262,3.906c0.479-0.096,1.451-0.168,2.362-0.168c1.115,0,1.799,0.108,2.387,0.456
				c0.563,0.3,0.972,0.852,0.972,1.583c0,0.719-0.42,1.391-1.332,1.727v0.024c0.924,0.252,1.607,0.947,1.607,1.991
				c0,0.732-0.336,1.307-0.84,1.715c-0.588,0.468-1.57,0.731-3.178,0.731c-0.899,0-1.571-0.06-1.979-0.12V3.906z M162.073,7h0.6
				c0.959,0,1.475-0.396,1.475-0.996c0-0.611-0.467-0.936-1.295-0.936c-0.396,0-0.623,0.024-0.779,0.048V7z M162.073,10.586
				c0.18,0.024,0.396,0.024,0.707,0.024c0.828,0,1.56-0.312,1.56-1.163c0-0.815-0.731-1.14-1.644-1.14h-0.623V10.586z"/>
			<path fill="#FFFFFF" d="M172.319,8.463h-2.975v1.919h3.322v1.499h-5.156V3.798h4.988v1.499h-3.154v1.679h2.975V8.463z"/>
			<path fill="#FFFFFF" d="M175.537,5.333h-2.171V3.798h6.213v1.535h-2.207v6.548h-1.835V5.333z"/>
			<path fill="#FFFFFF" d="M181.573,9.807l-0.576,2.075h-1.895l2.471-8.083h2.398l2.507,8.083h-1.968l-0.623-2.075H181.573z
				 M183.624,8.439l-0.504-1.715c-0.145-0.479-0.288-1.079-0.408-1.559h-0.023c-0.12,0.48-0.24,1.091-0.372,1.559l-0.479,1.715
				H183.624z"/>
		</g>
	</g>
	<g>
		<path fill="#333333" d="M33.857,42.558c0.038-2.269,0.074-14.567,0.209-22.662c0.061-3.627,0.825-8.801,0.825-8.801
			c-2.126-2.242-5.85-4.13-9.138-4.177c-6.577-0.092-11.984,5.166-12.076,11.744C7.102,18.534,1.667,23.762,1.54,30.34
			c-0.128,6.576,4.992,12.025,12.246,12.148C21.88,42.621,31.589,42.52,33.857,42.558z"/>
		<g>
			<g>
				<path fill="#333333" d="M43.765,6.795l0.023,2.905c2.405,0.007,4.665,0.95,6.361,2.655c1.696,1.706,2.627,3.969,2.62,6.374
					l0.024,2.914h2.914c4.952,0,8.991,4.029,9.004,8.981c0.007,2.394-0.899,4.625-2.552,6.282c-1.765,1.771-4.248,2.747-6.988,2.748
					l-5.805-0.001l-13.91,0.002h-0.7l0-2.646l0.002-17.767c0-5.44,3.871-9.542,9.005-9.542V6.795 M43.765,6.795
					c-6.562,0-11.91,5.204-11.91,12.447c0,8.095-0.004,21.05-0.004,23.319c1.776,0,10.1-0.003,17.516-0.003
					c2.057,0,4.046,0,5.804,0.001c7.255-0.002,12.465-5.366,12.446-11.943c-0.018-6.568-5.347-11.878-11.91-11.878
					c-0.011,0-0.022,0-0.033,0c0.019-6.578-5.301-11.925-11.879-11.943C43.786,6.795,43.776,6.795,43.765,6.795L43.765,6.795z"/>
			</g>
		</g>
	</g>
</g>
</svg>
